999
dxfrw 0.6.3
  0
SECTION
  2
HEADER
  9
$ACADVER
  1
AC1021
  9
$DWGCODEPAGE
  3
ANSI_1252
  9
$INSBASE
 10
0
 20
0
 30
0
  9
$EXTMIN
 10
-0.5999999999999999
 20
-0.5999999999999999
 30
0
  9
$EXTMAX
 10
34.6
 20
22.6
 30
0
  9
$LIMMIN
 10
0
 20
0
  9
$LIMMAX
 10
420
 20
297
  9
$ORTHOMODE
 70
    0
  9
$REGENMODE
 70
    1
  9
$FILLMODE
 70
    1
  9
$QTEXTMODE
 70
    0
  9
$MIRRTEXT
 70
    0
  9
$LTSCALE
 40
1
  9
$ATTMODE
 70
    0
  9
$TEXTSIZE
 40
2.5
  9
$TRACEWID
 40
15.68
  9
$TEXTSTYLE
  7
STANDARD
  9
$CLAYER
  8
0
  9
$CELTYPE
  6
BYLAYER
  9
$CECOLOR
 62
  256
  9
$CELTSCALE
 40
1
  9
$DISPSILH
 70
    0
  9
$DIMSCALE
 40
2.5
  9
$DIMASZ
 40
0.1
  9
$DIMEXO
 40
0.025
  9
$DIMDLI
 40
3.75
  9
$DIMRND
 40
0
  9
$DIMDLE
 40
0
  9
$DIMEXE
 40
0.05
  9
$DIMTP
 40
0
  9
$DIMTM
 40
0
  9
$DIMTXT
 40
0.1
  9
$DIMCEN
 40
2.5
  9
$DIMTSZ
 40
0
  9
$DIMTOL
 70
    0
  9
$DIMLIM
 70
    0
  9
$DIMTIH
 70
    0
  9
$DIMTOH
 70
    0
  9
$DIMSE1
 70
    0
  9
$DIMSE2
 70
    0
  9
$DIMTAD
 70
    1
  9
$DIMZIN
 70
    8
  9
$DIMBLK
  1

  9
$DIMASO
 70
    1
  9
$DIMSHO
 70
    1
  9
$DIMPOST
  1

  9
$DIMAPOST
  1

  9
$DIMALT
 70
    0
  9
$DIMALTD
 70
    3
  9
$DIMALTF
 40
0.03937
  9
$DIMLFAC
 40
1
  9
$DIMTOFL
 70
    1
  9
$DIMTVP
 40
0
  9
$DIMTIX
 70
    0
  9
$DIMSOXD
 70
    0
  9
$DIMSAH
 70
    0
  9
$DIMBLK1
  1

  9
$DIMBLK2
  1

  9
$DIMSTYLE
  2
STANDARD
  9
$DIMCLRD
 70
    0
  9
$DIMCLRE
 70
    0
  9
$DIMCLRT
 70
    0
  9
$DIMTFAC
 40
1
  9
$DIMGAP
 40
0.025
  9
$DIMJUST
 70
    0
  9
$DIMSD1
 70
    0
  9
$DIMSD2
 70
    0
  9
$DIMTOLJ
 70
    0
  9
$DIMTZIN
 70
    8
  9
$DIMALTZ
 70
    0
  9
$DIMALTTZ
 70
    0
  9
$DIMUPT
 70
    0
  9
$DIMDEC
 70
    2
  9
$DIMTDEC
 70
    2
  9
$DIMALTU
 70
    2
  9
$DIMALTTD
 70
    3
  9
$DIMTXSTY
  7
standard
  9
$DIMAUNIT
 70
    0
  9
$DIMADEC
 70
    0
  9
$DIMALTRND
 40
0
  9
$DIMAZIN
 70
    0
  9
$DIMDSEP
 70
   44
  9
$DIMATFIT
 70
    3
  9
$DIMFRAC
 70
    0
  9
$DIMLDRBLK
  1
STANDARD
  9
$DIMLUNIT
 70
    2
  9
$DIMLWD
 70
   -2
  9
$DIMLWE
 70
   -2
  9
$DIMTMOVE
 70
    0
  9
$DIMFXL
 40
1
  9
$DIMFXLON
 70
    0
  9
$DIMJOGANG
 40
0.7854
  9
$DIMTFILL
 70
    0
  9
$DIMTFILLCLR
 70
    0
  9
$DIMARCSYM
 70
    0
  9
$DIMLTYPE
  6

  9
$DIMLTEX1
  6

  9
$DIMLTEX2
  6

  9
$LUNITS
 70
    2
  9
$LUPREC
 70
    4
  9
$SKETCHINC
 40
1
  9
$FILLETRAD
 40
0
  9
$AUNITS
 70
    0
  9
$AUPREC
 70
    2
  9
$MENU
  1
.
  9
$ELEVATION
 40
0
  9
$PELEVATION
 40
0
  9
$THICKNESS
 40
0
  9
$LIMCHECK
 70
    0
  9
$CHAMFERA
 40
0
  9
$CHAMFERB
 40
0
  9
$CHAMFERC
 40
0
  9
$CHAMFERD
 40
0
  9
$SKPOLY
 70
    0
  9
$USRTIMER
 70
    1
  9
$ANGBASE
 50
0
  9
$ANGDIR
 70
    0
  9
$PDMODE
 70
   34
  9
$PDSIZE
 40
0
  9
$PLINEWID
 40
0
  9
$SPLFRAME
 70
    0
  9
$SPLINETYPE
 70
    2
  9
$SPLINESEGS
 70
    8
  9
$HANDSEED
  5
20000
  9
$SURFTAB1
 70
    6
  9
$SURFTAB2
 70
    6
  9
$SURFTYPE
 70
    6
  9
$SURFU
 70
    6
  9
$SURFV
 70
    6
  9
$UCSBASE
  2

  9
$UCSNAME
  2

  9
$UCSORG
 10
0
 20
0
 30
0
  9
$UCSXDIR
 10
1
 20
0
 30
0
  9
$UCSYDIR
 10
0
 20
1
 30
0
  9
$UCSORTHOREF
  2

  9
$UCSORTHOVIEW
 70
    0
  9
$UCSORGTOP
 10
0
 20
0
 30
0
  9
$UCSORGBOTTOM
 10
0
 20
0
 30
0
  9
$UCSORGLEFT
 10
0
 20
0
 30
0
  9
$UCSORGRIGHT
 10
0
 20
0
 30
0
  9
$UCSORGFRONT
 10
0
 20
0
 30
0
  9
$UCSORGBACK
 10
0
 20
0
 30
0
  9
$PUCSBASE
  2

  9
$PUCSNAME
  2

  9
$PUCSORG
 10
0
 20
0
 30
0
  9
$PUCSXDIR
 10
1
 20
0
 30
0
  9
$PUCSYDIR
 10
0
 20
1
 30
0
  9
$PUCSORTHOREF
  2

  9
$PUCSORTHOVIEW
 70
    0
  9
$PUCSORGTOP
 10
0
 20
0
 30
0
  9
$PUCSORGBOTTOM
 10
0
 20
0
 30
0
  9
$PUCSORGLEFT
 10
0
 20
0
 30
0
  9
$PUCSORGRIGHT
 10
0
 20
0
 30
0
  9
$PUCSORGFRONT
 10
0
 20
0
 30
0
  9
$PUCSORGBACK
 10
0
 20
0
 30
0
  9
$USERI1
 70
    0
  9
$USERI2
 70
    0
  9
$USERI3
 70
    0
  9
$USERI4
 70
    0
  9
$USERI5
 70
    0
  9
$USERR1
 40
0
  9
$USERR2
 40
0
  9
$USERR3
 40
0
  9
$USERR4
 40
0
  9
$USERR5
 40
0
  9
$WORLDVIEW
 70
    1
  9
$SHADEDGE
 70
    3
  9
$SHADEDIF
 70
   70
  9
$TILEMODE
 70
    1
  9
$MAXACTVP
 70
   64
  9
$PINSBASE
 10
0.4551316861254414
 20
0.2840754819440672
 30
0
  9
$PLIMCHECK
 70
    0
  9
$PEXTMIN
 10
0
 20
0
 30
0
  9
$PEXTMAX
 10
0
 20
0
 30
0
  9
$GRIDMODE
 70
    1
  9
$SNAPSTYLE
 70
    0
  9
$GRIDUNIT
 10
0
 20
0
  9
$PLIMMIN
 10
0
 20
0
  9
$PLIMMAX
 10
17.00787401574803
 20
10.98425196850394
  9
$UNITMODE
 70
    0
  9
$VISRETAIN
 70
    1
  9
$PLINEGEN
 70
    0
  9
$PSLTSCALE
 70
    1
  9
$TREEDEPTH
 70
 3020
  9
$CMLSTYLE
  2
Standard
  9
$CMLJUST
 70
    0
  9
$CMLSCALE
 40
20
  9
$PROXYGRAPHICS
 70
    1
  9
$MEASUREMENT
 70
    0
  9
$CELWEIGHT
370
   -1
  9
$ENDCAPS
280
    0
  9
$JOINSTYLE
280
    0
  9
$LWDISPLAY
290
    0
  9
$INSUNITS
 70
    1
  9
$HYPERLINKBASE
  1

  9
$STYLESHEET
  1

  9
$XEDIT
290
    1
  9
$CEPSNTYPE
380
    0
  9
$PSTYLEMODE
290
    1
  9
$EXTNAMES
290
    1
  9
$PSVPSCALE
 40
0.4734601890999995
  9
$OLESTARTUP
290
    0
  9
$SORTENTS
280
  127
  9
$INDEXCTL
280
    0
  9
$HIDETEXT
280
    1
  9
$XCLIPFRAME
290
    0
  9
$HALOGAP
280
    0
  9
$OBSCOLOR
 70
  257
  9
$OBSLTYPE
280
    0
  9
$INTERSECTIONDISPLAY
280
    0
  9
$INTERSECTIONCOLOR
 70
  257
  9
$DIMASSOC
280
    1
  9
$PROJECTNAME
  1

  9
$CAMERADISPLAY
290
    0
  9
$LENSLENGTH
 40
50
  9
$CAMERAHEIGHT
 40
0
  9
$STEPSPERSEC
 40
2
  9
$STEPSIZE
 40
50
  9
$3DDWFPREC
 40
2
  9
$PSOLWIDTH
 40
5
  9
$PSOLHEIGHT
 40
80
  9
$LOFTANG1
 40
1.570796326794897
  9
$LOFTANG2
 40
1.570796326794897
  9
$LOFTMAG1
 40
0
  9
$LOFTMAG2
 40
0
  9
$LOFTPARAM
 70
    7
  9
$LOFTNORMALS
280
    1
  9
$LATITUDE
 40
1
  9
$LONGITUDE
 40
1
  9
$NORTHDIRECTION
 40
0
  9
$TIMEZONE
 70
-8000
  9
$LIGHTGLYPHDISPLAY
280
    1
  9
$TILEMODELIGHTSYNCH
280
    1
  9
$SOLIDHIST
280
    1
  9
$SHOWHIST
280
    1
  9
$DWFFRAME
280
    2
  9
$DGNFRAME
280
    0
  9
$REALWORLDSCALE
290
    1
  9
$INTERFERECOLOR
 62
    1
  9
$CSHADOW
280
    0
  9
$SHADOWPLANELOCATION
 40
0
  0
ENDSEC
  0
SECTION
  2
CLASSES
  0
ENDSEC
  0
SECTION
  2
TABLES
  0
TABLE
  2
VPORT
  5
8
330
0
100
AcDbSymbolTable
 70
    1
  0
VPORT
  5
31
330
2
100
AcDbSymbolTableRecord
100
AcDbViewportTableRecord
  2
*ACTIVE
 70
    0
 10
0
 20
0
 11
1
 21
1
 12
20.90829630448099
 22
15.04016597374222
 13
0
 23
0
 14
10
 24
10
 15
10
 25
10
 16
0
 26
0
 36
1
 17
0
 27
0
 37
0
 40
45.07118590164062
 41
1.637855579868709
 42
50
 43
0
 44
0
 50
0
 51
0
 71
    0
 72
  100
 73
    1
 74
    3
 75
    0
 76
    1
 77
    0
 78
    0
281
    0
 65
    1
110
0
120
0
130
0
111
1
121
0
131
0
112
0
122
1
132
0
 79
    0
146
0
348
10020
 60
    7
 61
    5
292
1
282
    1
141
0
142
0
 63
  250
421
3358443
  0
ENDTAB
  0
TABLE
  2
LTYPE
  5
5
330
0
100
AcDbSymbolTable
 70
    4
  0
LTYPE
  5
14
330
5
100
AcDbSymbolTableRecord
100
AcDbLinetypeTableRecord
  2
ByBlock
 70
    0
  3

 72
   65
 73
    0
 40
0
  0
LTYPE
  5
15
330
5
100
AcDbSymbolTableRecord
100
AcDbLinetypeTableRecord
  2
ByLayer
 70
    0
  3

 72
   65
 73
    0
 40
0
  0
LTYPE
  5
16
330
5
100
AcDbSymbolTableRecord
100
AcDbLinetypeTableRecord
  2
Continuous
 70
    0
  3
Solid line
 72
   65
 73
    0
 40
0
  0
LTYPE
  5
32
330
5
100
AcDbSymbolTableRecord
100
AcDbLinetypeTableRecord
  2
DOT
 70
    0
  3
Dot . . . . . . . . . . . . . . . . . . . . . .
 72
   65
 73
    2
 40
6.35
 49
0
 74
    0
 49
-6.35
 74
    0
  0
LTYPE
  5
33
330
5
100
AcDbSymbolTableRecord
100
AcDbLinetypeTableRecord
  2
DOTTINY
 70
    0
  3
Dot (.15x) .....................................
 72
   65
 73
    2
 40
0.9525
 49
0
 74
    0
 49
-0.9525
 74
    0
  0
LTYPE
  5
34
330
5
100
AcDbSymbolTableRecord
100
AcDbLinetypeTableRecord
  2
DOT2
 70
    0
  3
Dot (.5x) .....................................
 72
   65
 73
    2
 40
3.175
 49
0
 74
    0
 49
-3.175
 74
    0
  0
LTYPE
  5
35
330
5
100
AcDbSymbolTableRecord
100
AcDbLinetypeTableRecord
  2
DOTX2
 70
    0
  3
Dot (2x) .  .  .  .  .  .  .  .  .  .  .  .  .
 72
   65
 73
    2
 40
12.7
 49
0
 74
    0
 49
-12.7
 74
    0
  0
LTYPE
  5
36
330
5
100
AcDbSymbolTableRecord
100
AcDbLinetypeTableRecord
  2
DASHED
 70
    0
  3
Dashed _ _ _ _ _ _ _ _ _ _ _ _ _ _ _ _ _
 72
   65
 73
    2
 40
19.05
 49
12.7
 74
    0
 49
-6.35
 74
    0
  0
LTYPE
  5
37
330
5
100
AcDbSymbolTableRecord
100
AcDbLinetypeTableRecord
  2
DASHEDTINY
 70
    0
  3
Dashed (.15x) _ _ _ _ _ _ _ _ _ _ _ _ _ _ _ _ _
 72
   65
 73
    2
 40
2.8575
 49
1.905
 74
    0
 49
-0.9525
 74
    0
  0
LTYPE
  5
38
330
5
100
AcDbSymbolTableRecord
100
AcDbLinetypeTableRecord
  2
DASHED2
 70
    0
  3
Dashed (.5x) _ _ _ _ _ _ _ _ _ _ _ _ _ _ _ _ _
 72
   65
 73
    2
 40
9.524999999999999
 49
6.35
 74
    0
 49
-3.175
 74
    0
  0
LTYPE
  5
39
330
5
100
AcDbSymbolTableRecord
100
AcDbLinetypeTableRecord
  2
DASHEDX2
 70
    0
  3
Dashed (2x) ____  ____  ____  ____  ____  ___
 72
   65
 73
    2
 40
38.09999999999999
 49
25.4
 74
    0
 49
-12.7
 74
    0
  0
LTYPE
  5
3A
330
5
100
AcDbSymbolTableRecord
100
AcDbLinetypeTableRecord
  2
DASHDOT
 70
    0
  3
Dash dot __ . __ . __ . __ . __ . __ . __ . __
 72
   65
 73
    4
 40
25.4
 49
12.7
 74
    0
 49
-6.35
 74
    0
 49
0
 74
    0
 49
-6.35
 74
    0
  0
LTYPE
  5
3B
330
5
100
AcDbSymbolTableRecord
100
AcDbLinetypeTableRecord
  2
DASHDOTTINY
 70
    0
  3
Dash dot (.15x) _._._._._._._._._._._._._._._.
 72
   65
 73
    4
 40
3.81
 49
1.905
 74
    0
 49
-0.9525
 74
    0
 49
0
 74
    0
 49
-0.9525
 74
    0
  0
LTYPE
  5
3C
330
5
100
AcDbSymbolTableRecord
100
AcDbLinetypeTableRecord
  2
DASHDOT2
 70
    0
  3
Dash dot (.5x) _._._._._._._._._._._._._._._.
 72
   65
 73
    4
 40
12.7
 49
6.35
 74
    0
 49
-3.175
 74
    0
 49
0
 74
    0
 49
-3.175
 74
    0
  0
LTYPE
  5
3D
330
5
100
AcDbSymbolTableRecord
100
AcDbLinetypeTableRecord
  2
DASHDOTX2
 70
    0
  3
Dash dot (2x) ____  .  ____  .  ____  .  ___
 72
   65
 73
    4
 40
50.8
 49
25.4
 74
    0
 49
-12.7
 74
    0
 49
0
 74
    0
 49
-12.7
 74
    0
  0
LTYPE
  5
3E
330
5
100
AcDbSymbolTableRecord
100
AcDbLinetypeTableRecord
  2
DIVIDE
 70
    0
  3
Divide ____ . . ____ . . ____ . . ____ . . ____
 72
   65
 73
    6
 40
31.75
 49
12.7
 74
    0
 49
-6.35
 74
    0
 49
0
 74
    0
 49
-6.35
 74
    0
 49
0
 74
    0
 49
-6.35
 74
    0
  0
LTYPE
  5
3F
330
5
100
AcDbSymbolTableRecord
100
AcDbLinetypeTableRecord
  2
DIVIDETINY
 70
    0
  3
Divide (.15x) __..__..__..__..__..__..__..__.._
 72
   65
 73
    6
 40
4.7625
 49
1.905
 74
    0
 49
-0.9525
 74
    0
 49
0
 74
    0
 49
-0.9525
 74
    0
 49
0
 74
    0
 49
-0.9525
 74
    0
  0
LTYPE
  5
40
330
5
100
AcDbSymbolTableRecord
100
AcDbLinetypeTableRecord
  2
DIVIDE2
 70
    0
  3
Divide (.5x) __..__..__..__..__..__..__..__.._
 72
   65
 73
    6
 40
15.875
 49
6.35
 74
    0
 49
-3.175
 74
    0
 49
0
 74
    0
 49
-3.175
 74
    0
 49
0
 74
    0
 49
-3.175
 74
    0
  0
LTYPE
  5
41
330
5
100
AcDbSymbolTableRecord
100
AcDbLinetypeTableRecord
  2
DIVIDEX2
 70
    0
  3
Divide (2x) ________  .  .  ________  .  .  _
 72
   65
 73
    6
 40
63.5
 49
25.4
 74
    0
 49
-12.7
 74
    0
 49
0
 74
    0
 49
-12.7
 74
    0
 49
0
 74
    0
 49
-12.7
 74
    0
  0
LTYPE
  5
42
330
5
100
AcDbSymbolTableRecord
100
AcDbLinetypeTableRecord
  2
BORDER
 70
    0
  3
Border __ __ . __ __ . __ __ . __ __ . __ __ .
 72
   65
 73
    6
 40
44.45
 49
12.7
 74
    0
 49
-6.35
 74
    0
 49
12.7
 74
    0
 49
-6.35
 74
    0
 49
0
 74
    0
 49
-6.35
 74
    0
  0
LTYPE
  5
43
330
5
100
AcDbSymbolTableRecord
100
AcDbLinetypeTableRecord
  2
BORDERTINY
 70
    0
  3
Border (.15x) __.__.__.__.__.__.__.__.__.__.__.
 72
   65
 73
    6
 40
6.6675
 49
1.905
 74
    0
 49
-0.9525
 74
    0
 49
1.905
 74
    0
 49
-0.9525
 74
    0
 49
0
 74
    0
 49
-0.9525
 74
    0
  0
LTYPE
  5
44
330
5
100
AcDbSymbolTableRecord
100
AcDbLinetypeTableRecord
  2
BORDER2
 70
    0
  3
Border (.5x) __.__.__.__.__.__.__.__.__.__.__.
 72
   65
 73
    6
 40
22.225
 49
6.35
 74
    0
 49
-3.175
 74
    0
 49
6.35
 74
    0
 49
-3.175
 74
    0
 49
0
 74
    0
 49
-3.175
 74
    0
  0
LTYPE
  5
45
330
5
100
AcDbSymbolTableRecord
100
AcDbLinetypeTableRecord
  2
BORDERX2
 70
    0
  3
Border (2x) ____  ____  .  ____  ____  .  ___
 72
   65
 73
    6
 40
88.89999999999999
 49
25.4
 74
    0
 49
-12.7
 74
    0
 49
25.4
 74
    0
 49
-12.7
 74
    0
 49
0
 74
    0
 49
-12.7
 74
    0
  0
LTYPE
  5
46
330
5
100
AcDbSymbolTableRecord
100
AcDbLinetypeTableRecord
  2
CENTER
 70
    0
  3
Center ____ _ ____ _ ____ _ ____ _ ____ _ ____
 72
   65
 73
    4
 40
50.8
 49
31.75
 74
    0
 49
-6.35
 74
    0
 49
6.35
 74
    0
 49
-6.35
 74
    0
  0
LTYPE
  5
47
330
5
100
AcDbSymbolTableRecord
100
AcDbLinetypeTableRecord
  2
CENTERTINY
 70
    0
  3
Center (.15x) ___ _ ___ _ ___ _ ___ _ ___ _ ___
 72
   65
 73
    4
 40
7.619999999999999
 49
4.7625
 74
    0
 49
-0.9525
 74
    0
 49
0.9525
 74
    0
 49
-0.9525
 74
    0
  0
LTYPE
  5
48
330
5
100
AcDbSymbolTableRecord
100
AcDbLinetypeTableRecord
  2
CENTER2
 70
    0
  3
Center (.5x) ___ _ ___ _ ___ _ ___ _ ___ _ ___
 72
   65
 73
    4
 40
28.575
 49
19.05
 74
    0
 49
-3.175
 74
    0
 49
3.175
 74
    0
 49
-3.175
 74
    0
  0
LTYPE
  5
49
330
5
100
AcDbSymbolTableRecord
100
AcDbLinetypeTableRecord
  2
CENTERX2
 70
    0
  3
Center (2x) ________  __  ________  __  _____
 72
   65
 73
    4
 40
101.6
 49
63.5
 74
    0
 49
-12.7
 74
    0
 49
12.7
 74
    0
 49
-12.7
 74
    0
  0
ENDTAB
  0
TABLE
  2
LAYER
  5
2
330
0
100
AcDbSymbolTable
 70
    1
  0
LAYER
  5
10
330
2
100
AcDbSymbolTableRecord
100
AcDbLayerTableRecord
  2
0
 70
    0
 62
    7
  6
CONTINUOUS
370
   13
390
F
  0
LAYER
  5
4A
330
2
100
AcDbSymbolTableRecord
100
AcDbLayerTableRecord
  2
Coord_Grid
 70
    5
 62
    4
  6
CONTINUOUS
290
0
370
    0
390
F
  0
LAYER
  5
4B
330
2
100
AcDbSymbolTableRecord
100
AcDbLayerTableRecord
  2
Formating
 70
    0
 62
    6
  6
CONTINUOUS
290
0
370
    0
390
F
  0
LAYER
  5
4C
330
2
100
AcDbSymbolTableRecord
100
AcDbLayerTableRecord
  2
Notes
 70
    0
 62
    7
  6
CONTINUOUS
370
   25
390
F
  0
LAYER
  5
4D
330
2
100
AcDbSymbolTableRecord
100
AcDbLayerTableRecord
  2
Title_Block
 70
    4
 62
    7
  6
CONTINUOUS
370
   13
390
F
  0
LAYER
  5
4E
330
2
100
AcDbSymbolTableRecord
100
AcDbLayerTableRecord
  2
Title_Block_Text
 70
    0
 62
    7
  6
CONTINUOUS
370
   25
390
F
  0
LAYER
  5
4F
330
2
100
AcDbSymbolTableRecord
100
AcDbLayerTableRecord
  2
delete_me
 70
    1
 62
    1
  6
CONTINUOUS
290
0
370
    0
390
F
  0
ENDTAB
  0
TABLE
  2
STYLE
  5
3
330
0
100
AcDbSymbolTable
 70
    3
  0
STYLE
  5
50
330
2
100
AcDbSymbolTableRecord
100
AcDbTextStyleTableRecord
  2
romansi
 70
    0
 40
0
 41
1
 50
0
 71
    0
 42
1
  3
romansi
  4

  0
STYLE
  5
51
330
2
100
AcDbSymbolTableRecord
100
AcDbTextStyleTableRecord
  2
romans
 70
    0
 40
0
 41
1
 50
0
 71
    0
 42
1
  3
romans
  4

  0
STYLE
  5
52
330
2
100
AcDbSymbolTableRecord
100
AcDbTextStyleTableRecord
  2
Standard
 70
    0
 40
0
 41
1
 50
0
 71
    0
 42
1
  3
txt
  4

  0
ENDTAB
  0
TABLE
  2
VIEW
  5
6
330
0
100
AcDbSymbolTable
 70
    0
  0
ENDTAB
  0
TABLE
  2
UCS
  5
7
330
0
100
AcDbSymbolTable
 70
    0
  0
ENDTAB
  0
TABLE
  2
APPID
  5
9
330
0
100
AcDbSymbolTable
 70
    1
  0
APPID
  5
12
330
9
100
AcDbSymbolTableRecord
100
AcDbRegAppTableRecord
  2
ACAD
 70
    0
  0
APPID
  5
53
330
9
100
AcDbSymbolTableRecord
100
AcDbRegAppTableRecord
  2
LibreCad
 70
    0
  0
ENDTAB
  0
TABLE
  2
DIMSTYLE
  5
A
330
0
100
AcDbSymbolTable
 70
    1
100
AcDbDimStyleTable
 71
    1
  0
DIMSTYLE
105
54
330
A
100
AcDbSymbolTableRecord
100
AcDbDimStyleTableRecord
  2
Standard
 70
    0
 40
2.5
 41
0.1
 42
0.025
 43
0.38
 44
0.05
 45
0
 46
0
 47
0
 48
0
 49
1
140
0.1
141
0.09
142
0
143
25.4
144
1
145
0
146
1
147
0.025
148
0
 71
    0
 72
    0
 73
    0
 74
    1
 75
    0
 76
    0
 77
    0
 78
    8
 79
    0
170
    0
171
    2
172
    0
173
    0
174
    0
175
    0
176
    0
177
    0
178
    0
179
    0
271
    2
272
    4
273
    2
274
    2
275
    0
276
    0
277
    2
278
   44
279
    0
280
    0
281
    0
282
    0
283
    1
284
    0
285
    0
286
    0
288
    0
289
    3
340
standard
341

371
   -2
372
   -2
  0
ENDTAB
  0
TABLE
  2
BLOCK_RECORD
  5
1
330
0
100
AcDbSymbolTable
 70
    2
  0
BLOCK_RECORD
  5
1F
330
1
100
AcDbSymbolTableRecord
100
AcDbBlockTableRecord
  2
*Model_Space
 70
    0
280
    1
281
    0
  0
BLOCK_RECORD
  5
1E
330
1
100
AcDbSymbolTableRecord
100
AcDbBlockTableRecord
  2
*Paper_Space
 70
    0
280
    1
281
    0
  0
ENDTAB
  0
ENDSEC
  0
SECTION
  2
BLOCKS
  0
BLOCK
  5
20
330
1F
100
AcDbEntity
  8
0
100
AcDbBlockBegin
  2
*Model_Space
 70
    0
 10
0
 20
0
 30
0
  3
*Model_Space
  1

  0
ENDBLK
  5
21
330
1F
100
AcDbEntity
  8
0
100
AcDbBlockEnd
  0
BLOCK
  5
1C
330
1B
100
AcDbEntity
  8
0
100
AcDbBlockBegin
  2
*Paper_Space
 70
    0
 10
0
 20
0
 30
0
  3
*Paper_Space
  1

  0
ENDBLK
  5
1D
330
1F
100
AcDbEntity
  8
0
100
AcDbBlockEnd
  0
ENDSEC
  0
SECTION
  2
ENTITIES
  0
LINE
  5
55
100
AcDbEntity
  8
Title_Block
  6
ByLayer
 62
  256
370
   -1
100
AcDbLine
 10
34
 20
0
 11
34
 21
22
  0
LINE
  5
56
100
AcDbEntity
  8
Title_Block
  6
ByLayer
 62
  256
370
   -1
100
AcDbLine
 10
34
 20
22
 11
0
 21
22
  0
LINE
  5
57
100
AcDbEntity
  8
Title_Block
  6
ByLayer
 62
  256
370
   -1
100
AcDbLine
 10
0
 20
0
 11
34
 21
0
  0
LINE
  5
58
100
AcDbEntity
  8
Title_Block
  6
ByLayer
 62
  256
370
   -1
100
AcDbLine
 10
33.5
 20
0.4999999999999999
 11
33.5
 21
21.5
  0
LINE
  5
59
100
AcDbEntity
  8
Title_Block
  6
ByLayer
 62
  256
370
   -1
100
AcDbLine
 10
33.5
 20
21.5
 11
0.4999999999999929
 21
21.5
  0
LINE
  5
5A
100
AcDbEntity
  8
Title_Block
  6
ByLayer
 62
  256
370
   -1
100
AcDbLine
 10
0.4999999999999929
 20
21.5
 11
0.5
 21
0.5
  0
LINE
  5
5B
100
AcDbEntity
  8
Title_Block
  6
ByLayer
 62
  256
370
   -1
100
AcDbLine
 10
0.5
 20
0.5
 11
33.5
 21
0.4999999999999999
  0
LINE
  5
5C
100
AcDbEntity
  8
Title_Block
  6
ByLayer
 62
  256
370
   -1
100
AcDbLine
 10
33.5
 20
5.5
 11
34
 21
5.5
  0
LINE
  5
5D
100
AcDbEntity
  8
Title_Block
  6
ByLayer
 62
  256
370
   -1
100
AcDbLine
 10
33.5
 20
11
 11
34
 21
11
  0
LINE
  5
5E
100
AcDbEntity
  8
Title_Block
  6
ByLayer
 62
  256
370
   -1
100
AcDbLine
 10
33.5
 20
16.5
 11
34
 21
16.5
  0
LINE
  5
5F
100
AcDbEntity
  8
Title_Block
  6
ByLayer
 62
  256
370
   -1
100
AcDbLine
 10
29.75
 20
0.5
 11
29.75
 21
0
  0
LINE
  5
60
100
AcDbEntity
  8
Title_Block
  6
ByLayer
 62
  256
370
   -1
100
AcDbLine
 10
25.5
 20
0.5
 11
25.5
 21
0
  0
LINE
  5
61
100
AcDbEntity
  8
Title_Block
  6
ByLayer
 62
  256
370
   -1
100
AcDbLine
 10
21.25
 20
0.5
 11
21.25
 21
0
  0
LINE
  5
62
100
AcDbEntity
  8
Title_Block
  6
ByLayer
 62
  256
370
   -1
100
AcDbLine
 10
17
 20
0.5
 11
17
 21
0
  0
LINE
  5
63
100
AcDbEntity
  8
Title_Block
  6
ByLayer
 62
  256
370
   -1
100
AcDbLine
 10
12.75
 20
0.5
 11
12.75
 21
0
  0
LINE
  5
64
100
AcDbEntity
  8
Title_Block
  6
ByLayer
 62
  256
370
   -1
100
AcDbLine
 10
8.5
 20
0.5
 11
8.5
 21
0
  0
LINE
  5
65
100
AcDbEntity
  8
Title_Block
  6
ByLayer
 62
  256
370
   -1
100
AcDbLine
 10
4.25
 20
0.5
 11
4.25
 21
0
  0
MTEXT
  5
66
100
AcDbEntity
  8
Title_Block
  6
ByLayer
 62
  256
370
   -1
100
AcDbMText
 10
33.75
 20
2.75
 30
0
 40
0.3
 41
0.2285713333333333
 71
    5
 72
    1
  1
A
  7
romans
210
0
220
0
230
1
 50
0
 73
    2
 44
1
  0
MTEXT
  5
67
100
AcDbEntity
  8
Title_Block
  6
ByLayer
 62
  256
370
   -1
100
AcDbMText
 10
33.75
 20
8.25
 30
0
 40
0.3
 41
0.2
 71
    5
 72
    1
  1
B
  7
romans
210
0
220
0
230
1
 50
0
 73
    2
 44
1
  0
MTEXT
  5
68
100
AcDbEntity
  8
Title_Block
  6
ByLayer
 62
  256
370
   -1
100
AcDbMText
 10
33.75
 20
13.75
 30
0
 40
0.3
 41
0.2142856666666667
 71
    5
 72
    1
  1
C
  7
romans
210
0
220
0
230
1
 50
0
 73
    2
 44
1
  0
MTEXT
  5
69
100
AcDbEntity
  8
Title_Block
  6
ByLayer
 62
  256
370
   -1
100
AcDbMText
 10
33.75
 20
19.25
 30
0
 40
0.3
 41
0.2
 71
    5
 72
    1
  1
D
  7
romans
210
0
220
0
230
1
 50
0
 73
    2
 44
1
  0
LINE
  5
6A
100
AcDbEntity
  8
Title_Block
  6
ByLayer
 62
  256
370
   -1
100
AcDbLine
 10
0
 20
5.5
 11
0.5
 21
5.5
  0
LINE
  5
6B
100
AcDbEntity
  8
Title_Block
  6
ByLayer
 62
  256
370
   -1
100
AcDbLine
 10
0
 20
11
 11
0.5
 21
11
  0
LINE
  5
6C
100
AcDbEntity
  8
Title_Block
  6
ByLayer
 62
  256
370
   -1
100
AcDbLine
 10
0
 20
16.5
 11
0.5
 21
16.5
  0
MTEXT
  5
6D
100
AcDbEntity
  8
Title_Block
  6
ByLayer
 62
  256
370
   -1
100
AcDbMText
 10
0.25
 20
2.75
 30
0
 40
0.3
 41
0.2285713333333333
 71
    5
 72
    1
  1
A
  7
romans
210
0
220
0
230
1
 50
0
 73
    2
 44
1
  0
MTEXT
  5
6E
100
AcDbEntity
  8
Title_Block
  6
ByLayer
 62
  256
370
   -1
100
AcDbMText
 10
0.25
 20
8.25
 30
0
 40
0.3
 41
0.2
 71
    5
 72
    1
  1
B
  7
romans
210
0
220
0
230
1
 50
0
 73
    2
 44
1
  0
MTEXT
  5
6F
100
AcDbEntity
  8
Title_Block
  6
ByLayer
 62
  256
370
   -1
100
AcDbMText
 10
0.25
 20
13.75
 30
0
 40
0.3
 41
0.2142856666666667
 71
    5
 72
    1
  1
C
  7
romans
210
0
220
0
230
1
 50
0
 73
    2
 44
1
  0
MTEXT
  5
70
100
AcDbEntity
  8
Title_Block
  6
ByLayer
 62
  256
370
   -1
100
AcDbMText
 10
0.25
 20
19.25
 30
0
 40
0.3
 41
0.2
 71
    5
 72
    1
  1
D
  7
romans
210
0
220
0
230
1
 50
0
 73
    2
 44
1
  0
MTEXT
  5
71
100
AcDbEntity
  8
Title_Block
  6
ByLayer
 62
  256
370
   -1
100
AcDbMText
 10
31.875
 20
0.25
 30
0
 40
0.3
 41
0.07142866666666667
 71
    5
 72
    1
  1
1
  7
romans
210
0
220
0
230
1
 50
0
 73
    2
 44
1
  0
MTEXT
  5
72
100
AcDbEntity
  8
Title_Block
  6
ByLayer
 62
  256
370
   -1
100
AcDbMText
 10
27.625
 20
0.25
 30
0
 40
0.3
 41
0.2
 71
    5
 72
    1
  1
2
  7
romans
210
0
220
0
230
1
 50
0
 73
    2
 44
1
  0
MTEXT
  5
73
100
AcDbEntity
  8
Title_Block
  6
ByLayer
 62
  256
370
   -1
100
AcDbMText
 10
23.375
 20
0.25
 30
0
 40
0.3
 41
0.2
 71
    5
 72
    1
  1
3
  7
romans
210
0
220
0
230
1
 50
0
 73
    2
 44
1
  0
MTEXT
  5
74
100
AcDbEntity
  8
Title_Block
  6
ByLayer
 62
  256
370
   -1
100
AcDbMText
 10
19.125
 20
0.25
 30
0
 40
0.3
 41
0.2142856666666667
 71
    5
 72
    1
  1
4
  7
romans
210
0
220
0
230
1
 50
0
 73
    2
 44
1
  0
MTEXT
  5
75
100
AcDbEntity
  8
Title_Block
  6
ByLayer
 62
  256
370
   -1
100
AcDbMText
 10
14.875
 20
0.25
 30
0
 40
0.3
 41
0.2
 71
    5
 72
    1
  1
5
  7
romans
210
0
220
0
230
1
 50
0
 73
    2
 44
1
  0
MTEXT
  5
76
100
AcDbEntity
  8
Title_Block
  6
ByLayer
 62
  256
370
   -1
100
AcDbMText
 10
10.625
 20
0.25
 30
0
 40
0.3
 41
0.1857143333333333
 71
    5
 72
    1
  1
6
  7
romans
210
0
220
0
230
1
 50
0
 73
    2
 44
1
  0
MTEXT
  5
77
100
AcDbEntity
  8
Title_Block
  6
ByLayer
 62
  256
370
   -1
100
AcDbMText
 10
6.375
 20
0.25
 30
0
 40
0.3
 41
0.2
 71
    5
 72
    1
  1
7
  7
romans
210
0
220
0
230
1
 50
0
 73
    2
 44
1
  0
MTEXT
  5
78
100
AcDbEntity
  8
Title_Block
  6
ByLayer
 62
  256
370
   -1
100
AcDbMText
 10
2.125
 20
0.25
 30
0
 40
0.3
 41
0.2
 71
    5
 72
    1
  1
8
  7
romans
210
0
220
0
230
1
 50
0
 73
    2
 44
1
  0
LINE
  5
79
100
AcDbEntity
  8
Title_Block
  6
ByLayer
 62
  256
370
   -1
100
AcDbLine
 10
29.75
 20
22
 11
29.75
 21
21.5
  0
LINE
  5
7A
100
AcDbEntity
  8
Title_Block
  6
ByLayer
 62
  256
370
   -1
100
AcDbLine
 10
25.5
 20
22
 11
25.5
 21
21.5
  0
LINE
  5
7B
100
AcDbEntity
  8
Title_Block
  6
ByLayer
 62
  256
370
   -1
100
AcDbLine
 10
21.25
 20
22
 11
21.25
 21
21.5
  0
LINE
  5
7C
100
AcDbEntity
  8
Title_Block
  6
ByLayer
 62
  256
370
   -1
100
AcDbLine
 10
17
 20
22
 11
17
 21
21.5
  0
LINE
  5
7D
100
AcDbEntity
  8
Title_Block
  6
ByLayer
 62
  256
370
   -1
100
AcDbLine
 10
12.75
 20
22
 11
12.75
 21
21.5
  0
LINE
  5
7E
100
AcDbEntity
  8
Title_Block
  6
ByLayer
 62
  256
370
   -1
100
AcDbLine
 10
8.5
 20
22
 11
8.5
 21
21.5
  0
LINE
  5
7F
100
AcDbEntity
  8
Title_Block
  6
ByLayer
 62
  256
370
   -1
100
AcDbLine
 10
4.25
 20
22
 11
4.25
 21
21.5
  0
MTEXT
  5
80
100
AcDbEntity
  8
Title_Block
  6
ByLayer
 62
  256
370
   -1
100
AcDbMText
 10
31.875
 20
21.75
 30
0
 40
0.3
 41
0.07142866666666667
 71
    5
 72
    1
  1
1
  7
romans
210
0
220
0
230
1
 50
0
 73
    2
 44
1
  0
MTEXT
  5
81
100
AcDbEntity
  8
Title_Block
  6
ByLayer
 62
  256
370
   -1
100
AcDbMText
 10
27.625
 20
21.75
 30
0
 40
0.3
 41
0.2
 71
    5
 72
    1
  1
2
  7
romans
210
0
220
0
230
1
 50
0
 73
    2
 44
1
  0
MTEXT
  5
82
100
AcDbEntity
  8
Title_Block
  6
ByLayer
 62
  256
370
   -1
100
AcDbMText
 10
23.375
 20
21.75
 30
0
 40
0.3
 41
0.2
 71
    5
 72
    1
  1
3
  7
romans
210
0
220
0
230
1
 50
0
 73
    2
 44
1
  0
MTEXT
  5
83
100
AcDbEntity
  8
Title_Block
  6
ByLayer
 62
  256
370
   -1
100
AcDbMText
 10
19.125
 20
21.75
 30
0
 40
0.3
 41
0.2142856666666667
 71
    5
 72
    1
  1
4
  7
romans
210
0
220
0
230
1
 50
0
 73
    2
 44
1
  0
MTEXT
  5
84
100
AcDbEntity
  8
Title_Block
  6
ByLayer
 62
  256
370
   -1
100
AcDbMText
 10
14.875
 20
21.75
 30
0
 40
0.3
 41
0.2
 71
    5
 72
    1
  1
5
  7
romans
210
0
220
0
230
1
 50
0
 73
    2
 44
1
  0
MTEXT
  5
85
100
AcDbEntity
  8
Title_Block
  6
ByLayer
 62
  256
370
   -1
100
AcDbMText
 10
10.625
 20
21.75
 30
0
 40
0.3
 41
0.1857143333333333
 71
    5
 72
    1
  1
6
  7
romans
210
0
220
0
230
1
 50
0
 73
    2
 44
1
  0
MTEXT
  5
86
100
AcDbEntity
  8
Title_Block
  6
ByLayer
 62
  256
370
   -1
100
AcDbMText
 10
6.375
 20
21.75
 30
0
 40
0.3
 41
0.2
 71
    5
 72
    1
  1
7
  7
romans
210
0
220
0
230
1
 50
0
 73
    2
 44
1
  0
MTEXT
  5
87
100
AcDbEntity
  8
Title_Block
  6
ByLayer
 62
  256
370
   -1
100
AcDbMText
 10
2.125
 20
21.75
 30
0
 40
0.3
 41
0.2
 71
    5
 72
    1
  1
8
  7
romans
210
0
220
0
230
1
 50
0
 73
    2
 44
1
  0
LINE
  5
88
100
AcDbEntity
  8
Title_Block
  6
ByLayer
 62
  256
370
   -1
100
AcDbLine
 10
33.5
 20
0.5
 11
27.25
 21
0.5
  0
LINE
  5
89
100
AcDbEntity
  8
Title_Block
  6
ByLayer
 62
  256
370
   -1
100
AcDbLine
 10
27.25
 20
0.5
 11
27.25
 21
2.5
  0
LINE
  5
8A
100
AcDbEntity
  8
Title_Block
  6
ByLayer
 62
  256
370
   -1
100
AcDbLine
 10
33.5
 20
2.5
 11
27.25
 21
2.5
  0
LINE
  5
8B
100
AcDbEntity
  8
Title_Block
  6
ByLayer
 62
  256
370
   -1
100
AcDbLine
 10
33.5
 20
0.5
 11
33.5
 21
2.5
  0
LINE
  5
8C
100
AcDbEntity
  8
Title_Block
  6
ByLayer
 62
  256
370
   -1
100
AcDbLine
 10
33.5
 20
1.119999999999999
 11
29.25
 21
1.119999999999999
  0
LINE
  5
8D
100
AcDbEntity
  8
Title_Block
  6
ByLayer
 62
  256
370
   -1
100
AcDbLine
 10
33.5
 20
1.879999999999999
 11
29.25
 21
1.879999999999999
  0
LINE
  5
8E
100
AcDbEntity
  8
Title_Block
  6
ByLayer
 62
  256
370
   -1
100
AcDbLine
 10
29.25
 20
0.5
 11
29.25
 21
2.5
  0
LINE
  5
8F
100
AcDbEntity
  8
Title_Block
  6
ByLayer
 62
  256
370
   -1
100
AcDbLine
 10
31.75
 20
0.5
 11
31.75
 21
0.75
  0
LINE
  5
90
100
AcDbEntity
  8
Title_Block
  6
ByLayer
 62
  256
370
   -1
100
AcDbLine
 10
30.25
 20
0.5
 11
30.25
 21
0.75
  0
LINE
  5
91
100
AcDbEntity
  8
Title_Block
  6
ByLayer
 62
  256
370
   -1
100
AcDbLine
 10
33.12
 20
0.75
 11
33.12
 21
1.119999999999999
  0
LINE
  5
92
100
AcDbEntity
  8
Title_Block
  6
ByLayer
 62
  256
370
   -1
100
AcDbLine
 10
30.75
 20
0.75
 11
30.75
 21
1.119999999999999
  0
LINE
  5
93
100
AcDbEntity
  8
Title_Block
  6
ByLayer
 62
  256
370
   -1
100
AcDbLine
 10
29.63
 20
0.75
 11
29.63
 21
1.119999999999999
  0
MTEXT
  5
94
100
AcDbEntity
  8
Title_Block
  6
ByLayer
 62
  256
370
   -1
100
AcDbMText
 10
33.21
 20
1.1
 30
0
 40
0.075
 41
0.2035714166666667
 71
    1
 72
    1
  1
REV
  7
romans
210
0
220
0
230
1
 50
0
 73
    2
 44
1
  0
MTEXT
  5
95
100
AcDbEntity
  8
Title_Block
  6
ByLayer
 62
  256
370
   -1
100
AcDbMText
 10
30.77
 20
1.1
 30
0
 40
0.075
 41
0.4383928333333333
 71
    1
 72
    1
  1
DWG NO
  7
romans
210
0
220
0
230
1
 50
0
 73
    2
 44
1
  0
MTEXT
  5
96
100
AcDbEntity
  8
Title_Block
  6
ByLayer
 62
  256
370
   -1
100
AcDbMText
 10
31.78
 20
0.669999999999999
 30
0
 40
0.075
 41
0.3428571666666667
 71
    1
 72
    1
  1
SHEET
  7
romans
210
0
220
0
230
1
 50
0
 73
    2
 44
1
  0
MTEXT
  5
97
100
AcDbEntity
  8
Title_Block
  6
ByLayer
 62
  256
370
   -1
100
AcDbMText
 10
29.28
 20
0.669999999999999
 30
0
 40
0.075
 41
0.35
 71
    1
 72
    1
  1
SCALE
  7
romans
210
0
220
0
230
1
 50
0
 73
    2
 44
1
  0
MTEXT
  5
98
100
AcDbEntity
  8
Title_Block
  6
ByLayer
 62
  256
370
   -1
100
AcDbMText
 10
29.97
 20
1.1
 30
0
 40
0.075
 41
0.3705356666666667
 71
    1
 72
    1
  1
DIA NO
  7
romans
210
0
220
0
230
1
 50
0
 73
    2
 44
1
  0
MTEXT
  5
99
100
AcDbEntity
  8
Title_Block
  6
ByLayer
 62
  256
370
   -1
100
AcDbMText
 10
29.32
 20
1.1
 30
0
 40
0.075
 41
0.2214285833333333
 71
    1
 72
    1
  1
SIZE
  7
romans
210
0
220
0
230
1
 50
0
 73
    2
 44
1
  0
LINE
  5
9A
100
AcDbEntity
  8
Title_Block
  6
ByLayer
 62
  256
370
   -1
100
AcDbLine
 10
33.5
 20
0.75
 11
29.25
 21
0.75
  0
LINE
  5
9B
100
AcDbEntity
  8
Title_Block
  6
ByLayer
 62
  256
370
   -1
100
AcDbLine
 10
29.25
 20
0.75
 11
27.25
 21
0.75
  0
LINE
  5
9C
100
AcDbEntity
  8
Title_Block
  6
ByLayer
 62
  256
370
   -1
100
AcDbLine
 10
27.25
 20
1.1875
 11
29.25
 21
1.1875
  0
LINE
  5
9D
100
AcDbEntity
  8
Title_Block
  6
ByLayer
 62
  256
370
   -1
100
AcDbLine
 10
27.25
 20
1.625
 11
29.25
 21
1.625
  0
LINE
  5
9E
100
AcDbEntity
  8
Title_Block
  6
ByLayer
 62
  256
370
   -1
100
AcDbLine
 10
27.25
 20
2.0625
 11
29.25
 21
2.0625
  0
MTEXT
  5
9F
100
AcDbEntity
  8
Title_Block
  6
ByLayer
 62
  256
370
   -1
100
AcDbMText
 10
27.27
 20
2.48
 30
0
 40
0.075
 41
0.5178571666666667
 71
    1
 72
    1
  1
ENGINEER
  7
romans
210
0
220
0
230
1
 50
0
 73
    2
 44
1
  0
MTEXT
  5
A0
100
AcDbEntity
  8
Title_Block
  6
ByLayer
 62
  256
370
   -1
100
AcDbMText
 10
27.27
 20
2.039999999999999
 30
0
 40
0.075
 41
0.5
 71
    1
 72
    1
  1
DRAFTER
  7
romans
210
0
220
0
230
1
 50
0
 73
    2
 44
1
  0
MTEXT
  5
A1
100
AcDbEntity
  8
Title_Block
  6
ByLayer
 62
  256
370
   -1
100
AcDbMText
 10
27.27
 20
1.6
 30
0
 40
0.075
 41
0.5
 71
    1
 72
    1
  1
CHECKER
  7
romans
210
0
220
0
230
1
 50
0
 73
    2
 44
1
  0
MTEXT
  5
A2
100
AcDbEntity
  8
Title_Block
  6
ByLayer
 62
  256
370
   -1
100
AcDbMText
 10
27.27
 20
1.17
 30
0
 40
0.075
 41
0.5214285000000001
 71
    1
 72
    1
  1
MANAGER
  7
romans
210
0
220
0
230
1
 50
0
 73
    2
 44
1
  0
MTEXT
  5
A3
100
AcDbEntity
  8
Title_Block
  6
ByLayer
 62
  256
370
   -1
100
AcDbMText
 10
29.28
 20
1.85
 30
0
 40
0.075
 41
0.28928575
 71
    1
 72
    1
  1
TITLE
  7
romans
210
0
220
0
230
1
 50
0
 73
    2
 44
1
  0
LINE
  5
A4
100
AcDbEntity
  8
Title_Block
  6
ByLayer
 62
  256
370
   -1
100
AcDbLine
 10
33.5
 20
21
 11
33.5
 21
21.5
  0
LINE
  5
A5
100
AcDbEntity
  8
Title_Block
  6
ByLayer
 62
  256
370
   -1
100
AcDbLine
 10
25.1
 20
21.5
 11
33.5
 21
21.5
  0
LINE
  5
A6
100
AcDbEntity
  8
Title_Block
  6
ByLayer
 62
  256
370
   -1
100
AcDbLine
 10
33.5
 20
21
 11
33.5
 21
20.75
  0
LINE
  5
A7
100
AcDbEntity
  8
Title_Block
  6
ByLayer
 62
  256
370
   -1
100
AcDbLine
 10
33.5
 20
20.75
 11
33.5
 21
20.5
  0
LINE
  5
A8
100
AcDbEntity
  8
Title_Block
  6
ByLayer
 62
  256
370
   -1
100
AcDbLine
 10
27.25
 20
0.5
 11
24.5
 21
0.5
  0
LINE
  5
A9
100
AcDbEntity
  8
Title_Block
  6
ByLayer
 62
  256
370
   -1
100
AcDbLine
 10
27.25
 20
0.5
 11
27.25
 21
0.75
  0
LINE
  5
AA
100
AcDbEntity
  8
Title_Block
  6
ByLayer
 62
  256
370
   -1
100
AcDbLine
 10
24.5
 20
0.5
 11
24.5
 21
0.75
  0
LINE
  5
AB
100
AcDbEntity
  8
Title_Block
  6
ByLayer
 62
  256
370
   -1
100
AcDbLine
 10
27.25
 20
0.75
 11
24.5
 21
0.75
  0
LINE
  5
AC
100
AcDbEntity
  8
Title_Block
  6
ByLayer
 62
  256
370
   -1
100
AcDbLine
 10
27.25
 20
0.75
 11
27.25
 21
1
  0
LINE
  5
AD
100
AcDbEntity
  8
Title_Block
  6
ByLayer
 62
  256
370
   -1
100
AcDbLine
 10
27.25
 20
1
 11
25.87
 21
1
  0
LINE
  5
AE
100
AcDbEntity
  8
Title_Block
  6
ByLayer
 62
  256
370
   -1
100
AcDbLine
 10
25.87
 20
1
 11
25.87
 21
0.75
  0
LINE
  5
AF
100
AcDbEntity
  8
Title_Block
  6
ByLayer
 62
  256
370
   -1
100
AcDbLine
 10
24.5
 20
0.75
 11
24.5
 21
1
  0
LINE
  5
B0
100
AcDbEntity
  8
Title_Block
  6
ByLayer
 62
  256
370
   -1
100
AcDbLine
 10
24.5
 20
1
 11
25.87
 21
1
  0
LINE
  5
B1
100
AcDbEntity
  8
Title_Block
  6
ByLayer
 62
  256
370
   -1
100
AcDbLine
 10
27.25
 20
1
 11
27.25
 21
1.25
  0
LINE
  5
B2
100
AcDbEntity
  8
Title_Block
  6
ByLayer
 62
  256
370
   -1
100
AcDbLine
 10
27.25
 20
1.25
 11
25.87
 21
1.25
  0
LINE
  5
B3
100
AcDbEntity
  8
Title_Block
  6
ByLayer
 62
  256
370
   -1
100
AcDbLine
 10
25.87
 20
1.25
 11
25.87
 21
1
  0
LINE
  5
B4
100
AcDbEntity
  8
Title_Block
  6
ByLayer
 62
  256
370
   -1
100
AcDbLine
 10
24.5
 20
1
 11
24.5
 21
1.25
  0
LINE
  5
B5
100
AcDbEntity
  8
Title_Block
  6
ByLayer
 62
  256
370
   -1
100
AcDbLine
 10
24.5
 20
1.25
 11
25.87
 21
1.25
  0
LINE
  5
B6
100
AcDbEntity
  8
Title_Block
  6
ByLayer
 62
  256
370
   -1
100
AcDbLine
 10
27.25
 20
1.25
 11
27.25
 21
1.5
  0
LINE
  5
B7
100
AcDbEntity
  8
Title_Block
  6
ByLayer
 62
  256
370
   -1
100
AcDbLine
 10
27.25
 20
1.5
 11
25.87
 21
1.5
  0
LINE
  5
B8
100
AcDbEntity
  8
Title_Block
  6
ByLayer
 62
  256
370
   -1
100
AcDbLine
 10
25.87
 20
1.5
 11
25.87
 21
1.25
  0
LINE
  5
B9
100
AcDbEntity
  8
Title_Block
  6
ByLayer
 62
  256
370
   -1
100
AcDbLine
 10
24.5
 20
1.25
 11
24.5
 21
1.5
  0
LINE
  5
BA
100
AcDbEntity
  8
Title_Block
  6
ByLayer
 62
  256
370
   -1
100
AcDbLine
 10
24.5
 20
1.5
 11
25.87
 21
1.5
  0
LINE
  5
BB
100
AcDbEntity
  8
Title_Block
  6
ByLayer
 62
  256
370
   -1
100
AcDbLine
 10
27.25
 20
1.5
 11
27.25
 21
1.75
  0
LINE
  5
BC
100
AcDbEntity
  8
Title_Block
  6
ByLayer
 62
  256
370
   -1
100
AcDbLine
 10
27.25
 20
1.75
 11
25.87
 21
1.75
  0
LINE
  5
BD
100
AcDbEntity
  8
Title_Block
  6
ByLayer
 62
  256
370
   -1
100
AcDbLine
 10
25.87
 20
1.75
 11
25.87
 21
1.5
  0
LINE
  5
BE
100
AcDbEntity
  8
Title_Block
  6
ByLayer
 62
  256
370
   -1
100
AcDbLine
 10
24.5
 20
1.5
 11
24.5
 21
1.75
  0
LINE
  5
BF
100
AcDbEntity
  8
Title_Block
  6
ByLayer
 62
  256
370
   -1
100
AcDbLine
 10
24.5
 20
1.75
 11
25.87
 21
1.75
  0
LINE
  5
C0
100
AcDbEntity
  8
Title_Block
  6
ByLayer
 62
  256
370
   -1
100
AcDbLine
 10
27.25
 20
1.75
 11
27.25
 21
2
  0
LINE
  5
C1
100
AcDbEntity
  8
Title_Block
  6
ByLayer
 62
  256
370
   -1
100
AcDbLine
 10
27.25
 20
2
 11
25.87
 21
2
  0
LINE
  5
C2
100
AcDbEntity
  8
Title_Block
  6
ByLayer
 62
  256
370
   -1
100
AcDbLine
 10
25.87
 20
2
 11
25.87
 21
1.75
  0
LINE
  5
C3
100
AcDbEntity
  8
Title_Block
  6
ByLayer
 62
  256
370
   -1
100
AcDbLine
 10
24.5
 20
1.75
 11
24.5
 21
2
  0
LINE
  5
C4
100
AcDbEntity
  8
Title_Block
  6
ByLayer
 62
  256
370
   -1
100
AcDbLine
 10
24.5
 20
2
 11
25.87
 21
2
  0
LINE
  5
C5
100
AcDbEntity
  8
Title_Block
  6
ByLayer
 62
  256
370
   -1
100
AcDbLine
 10
27.25
 20
2
 11
27.25
 21
2.25
  0
LINE
  5
C6
100
AcDbEntity
  8
Title_Block
  6
ByLayer
 62
  256
370
   -1
100
AcDbLine
 10
27.25
 20
2.25
 11
25.87
 21
2.25
  0
LINE
  5
C7
100
AcDbEntity
  8
Title_Block
  6
ByLayer
 62
  256
370
   -1
100
AcDbLine
 10
25.87
 20
2.25
 11
25.87
 21
2
  0
LINE
  5
C8
100
AcDbEntity
  8
Title_Block
  6
ByLayer
 62
  256
370
   -1
100
AcDbLine
 10
24.5
 20
2
 11
24.5
 21
2.25
  0
LINE
  5
C9
100
AcDbEntity
  8
Title_Block
  6
ByLayer
 62
  256
370
   -1
100
AcDbLine
 10
24.5
 20
2.25
 11
25.87
 21
2.25
  0
LINE
  5
CA
100
AcDbEntity
  8
Title_Block
  6
ByLayer
 62
  256
370
   -1
100
AcDbLine
 10
27.25
 20
2.25
 11
27.25
 21
2.5
  0
LINE
  5
CB
100
AcDbEntity
  8
Title_Block
  6
ByLayer
 62
  256
370
   -1
100
AcDbLine
 10
27.25
 20
2.5
 11
25.87
 21
2.5
  0
LINE
  5
CC
100
AcDbEntity
  8
Title_Block
  6
ByLayer
 62
  256
370
   -1
100
AcDbLine
 10
25.87
 20
2.5
 11
25.87
 21
2.25
  0
LINE
  5
CD
100
AcDbEntity
  8
Title_Block
  6
ByLayer
 62
  256
370
   -1
100
AcDbLine
 10
24.5
 20
2.25
 11
24.5
 21
2.5
  0
LINE
  5
CE
100
AcDbEntity
  8
Title_Block
  6
ByLayer
 62
  256
370
   -1
100
AcDbLine
 10
24.5
 20
2.5
 11
25.87
 21
2.5
  0
LINE
  5
CF
100
AcDbEntity
  8
Title_Block
  6
ByLayer
 62
  256
370
   -1
100
AcDbLine
 10
27.25
 20
2.5
 11
27.25
 21
2.75
  0
LINE
  5
D0
100
AcDbEntity
  8
Title_Block
  6
ByLayer
 62
  256
370
   -1
100
AcDbLine
 10
27.25
 20
2.75
 11
25.87
 21
2.75
  0
LINE
  5
D1
100
AcDbEntity
  8
Title_Block
  6
ByLayer
 62
  256
370
   -1
100
AcDbLine
 10
25.87
 20
2.75
 11
25.87
 21
2.5
  0
LINE
  5
D2
100
AcDbEntity
  8
Title_Block
  6
ByLayer
 62
  256
370
   -1
100
AcDbLine
 10
24.5
 20
2.5
 11
24.5
 21
2.75
  0
LINE
  5
D3
100
AcDbEntity
  8
Title_Block
  6
ByLayer
 62
  256
370
   -1
100
AcDbLine
 10
24.5
 20
2.75
 11
25.87
 21
2.75
  0
MTEXT
  5
D4
100
AcDbEntity
  8
Title_Block
  6
ByLayer
 62
  256
370
   -1
100
AcDbMText
 10
24.66
 20
0.9300000000000002
 30
0
 40
0.13
 41
1.112738033333333
 71
    1
 72
    1
  1
NEXT ASSY
  7
romans
210
0
220
0
230
1
 50
0
 73
    2
 44
1
  0
MTEXT
  5
D5
100
AcDbEntity
  8
Title_Block
  6
ByLayer
 62
  256
370
   -1
100
AcDbMText
 10
26.16
 20
0.9300000000000002
 30
0
 40
0.13
 41
0.8403571222222223
 71
    1
 72
    1
  1
USED ON
  7
romans
210
0
220
0
230
1
 50
0
 73
    2
 44
1
  0
MTEXT
  5
D6
100
AcDbEntity
  8
Title_Block
  6
ByLayer
 62
  256
370
   -1
100
AcDbMText
 10
25.26
 20
0.6899999999999999
 30
0
 40
0.13
 41
1.244285611111111
 71
    1
 72
    1
  1
APPLICATION
  7
romans
210
0
220
0
230
1
 50
0
 73
    2
 44
1
  0
LINE
  5
D7
100
AcDbEntity
  8
Formating
  6
ByLayer
 62
  256
370
   -1
100
AcDbLine
 10
29.25
 20
2.5
 11
33.5
 21
1.879999999999999
  0
LINE
  5
D8
100
AcDbEntity
  8
Formating
  6
ByLayer
 62
  256
370
   -1
100
AcDbLine
 10
29.25
 20
1
 11
29.63
 21
0.7500000000000001
  0
LINE
  5
D9
100
AcDbEntity
  8
Formating
  6
ByLayer
 62
  256
370
   -1
100
AcDbLine
 10
29.25
 20
1
 11
33.50000000000001
 21
1
  0
LINE
  5
DA
100
AcDbEntity
  8
Formating
  6
ByLayer
 62
  256
370
   -1
100
AcDbLine
 10
33.12
 20
1
 11
33.50000000000001
 21
0.7500000000000001
  0
LINE
  5
DB
100
AcDbEntity
  8
Formating
  6
ByLayer
 62
  256
370
   -1
100
AcDbLine
 10
30.75
 20
1
 11
33.12
 21
0.75
  0
LINE
  5
DC
100
AcDbEntity
  8
Formating
  6
ByLayer
 62
  256
370
   -1
100
AcDbLine
 10
29.63
 20
1
 11
30.75
 21
0.75
  0
LINE
  5
DD
100
AcDbEntity
  8
Formating
  6
ByLayer
 62
  256
370
   -1
100
AcDbLine
 10
29.64
 20
0.75
 11
29.64
 21
0.5
  0
LINE
  5
DE
100
AcDbEntity
  8
Formating
  6
ByLayer
 62
  256
370
   -1
100
AcDbLine
 10
29.64
 20
0.75
 11
30.25
 21
0.5
  0
LINE
  5
DF
100
AcDbEntity
  8
Formating
  6
ByLayer
 62
  256
370
   -1
100
AcDbLine
 10
32.16
 20
0.75
 11
32.16
 21
0.5
  0
LINE
  5
E0
100
AcDbEntity
  8
Formating
  6
ByLayer
 62
  256
370
   -1
100
AcDbLine
 10
32.16
 20
0.75
 11
33.5
 21
0.5
  0
LINE
  5
E1
100
AcDbEntity
  8
Formating
  6
ByLayer
 62
  256
370
   -1
100
AcDbLine
 10
24.5
 20
2.75
 11
25.87
 21
2.5
  0
LINE
  5
E2
100
AcDbEntity
  8
Formating
  6
ByLayer
 62
  256
370
   -1
100
AcDbLine
 10
24.5
 20
2.5
 11
25.87
 21
2.25
  0
LINE
  5
E3
100
AcDbEntity
  8
Formating
  6
ByLayer
 62
  256
370
   -1
100
AcDbLine
 10
24.5
 20
2.25
 11
25.87
 21
2
  0
LINE
  5
E4
100
AcDbEntity
  8
Formating
  6
ByLayer
 62
  256
370
   -1
100
AcDbLine
 10
24.5
 20
2
 11
25.87
 21
1.75
  0
LINE
  5
E5
100
AcDbEntity
  8
Formating
  6
ByLayer
 62
  256
370
   -1
100
AcDbLine
 10
24.5
 20
1.75
 11
25.87
 21
1.5
  0
LINE
  5
E6
100
AcDbEntity
  8
Formating
  6
ByLayer
 62
  256
370
   -1
100
AcDbLine
 10
24.5
 20
1.5
 11
25.87
 21
1.25
  0
LINE
  5
E7
100
AcDbEntity
  8
Formating
  6
ByLayer
 62
  256
370
   -1
100
AcDbLine
 10
24.5
 20
1.25
 11
25.87
 21
1
  0
LINE
  5
E8
100
AcDbEntity
  8
Formating
  6
ByLayer
 62
  256
370
   -1
100
AcDbLine
 10
25.87
 20
1.25
 11
27.25
 21
1
  0
LINE
  5
E9
100
AcDbEntity
  8
Formating
  6
ByLayer
 62
  256
370
   -1
100
AcDbLine
 10
25.87
 20
1.5
 11
27.25
 21
1.25
  0
LINE
  5
EA
100
AcDbEntity
  8
Formating
  6
ByLayer
 62
  256
370
   -1
100
AcDbLine
 10
25.87
 20
1.75
 11
27.25
 21
1.5
  0
LINE
  5
EB
100
AcDbEntity
  8
Formating
  6
ByLayer
 62
  256
370
   -1
100
AcDbLine
 10
25.87
 20
2
 11
27.25
 21
1.75
  0
LINE
  5
EC
100
AcDbEntity
  8
Formating
  6
ByLayer
 62
  256
370
   -1
100
AcDbLine
 10
25.87
 20
2.25
 11
27.25
 21
2
  0
LINE
  5
ED
100
AcDbEntity
  8
Formating
  6
ByLayer
 62
  256
370
   -1
100
AcDbLine
 10
25.87
 20
2.5
 11
27.25
 21
2.25
  0
LINE
  5
EE
100
AcDbEntity
  8
Formating
  6
ByLayer
 62
  256
370
   -1
100
AcDbLine
 10
25.87
 20
2.75
 11
27.25
 21
2.5
  0
LINE
  5
EF
100
AcDbEntity
  8
Formating
  6
ByLayer
 62
  256
370
   -1
100
AcDbLine
 10
28.35
 20
2.5
 11
28.35
 21
0.75
  0
LINE
  5
F0
100
AcDbEntity
  8
Formating
  6
ByLayer
 62
  256
370
   -1
100
AcDbLine
 10
27.25
 20
2.350000000000001
 11
29.25
 21
2.35
  0
LINE
  5
F1
100
AcDbEntity
  8
Formating
  6
ByLayer
 62
  256
370
   -1
100
AcDbLine
 10
29.25
 20
1.77
 11
33.50000000000001
 21
1.77
  0
LINE
  5
F2
100
AcDbEntity
  8
Formating
  6
ByLayer
 62
  256
370
   -1
100
AcDbLine
 10
29.25
 20
1.77
 11
33.50000000000001
 21
1.12
  0
MTEXT
  5
F3
100
AcDbEntity
  8
Title_Block_Text
  6
ByLayer
 62
  256
370
   -1
100
AcDbMText
 10
29.44
 20
0.875
 30
0
 40
0.15
 41
0.1
 71
    5
 72
    1
  1
D
  7
romans
210
0
220
0
230
1
 50
0
 73
    2
 44
1
  0
LINE
  5
F4
100
AcDbEntity
  8
Title_Block
  6
ByLayer
 62
  256
370
   -1
100
AcDbLine
 10
0
 20
22
 11
0
 21
0
  0
LWPOLYLINE
  5
F5
100
AcDbEntity
  8
Formating
  6
ByLayer
 62
  256
370
   -1
100
AcDbPolyline
 90
    4
 70
    1
 43
0
 10
0.4999999999999929
 20
21.5
 10
0.7499999999999929
 20
21.5
 10
0.7499999999999929
 20
21.25
 10
0.4999999999999929
 20
21.25
  0
LINE
  5
F6
100
AcDbEntity
  8
Formating
  6
ByLayer
 62
  256
370
   -1
100
AcDbLine
 10
0.7499999999999929
 20
20.8
 11
0.5999999999999925
 21
20.8
  0
LINE
  5
F7
100
AcDbEntity
  8
Formating
  6
ByLayer
 62
  256
370
   -1
100
AcDbLine
 10
0.7499999999999929
 20
20.8
 11
0.9999999999999929
 21
20.8
  0
LINE
  5
F8
100
AcDbEntity
  8
Formating
  6
ByLayer
 62
  256
370
   -1
100
AcDbLine
 10
0.7499999999999929
 20
21.25
 11
0.7499999999999929
 21
20.8
  0
LINE
  5
F9
100
AcDbEntity
  8
Formating
  6
ByLayer
 62
  256
370
   -1
100
AcDbLine
 10
0.7499999999999929
 20
20.8
 11
0.7499999999999929
 21
20.5
  0
LINE
  5
FA
100
AcDbEntity
  8
Formating
  6
ByLayer
 62
  256
370
   -1
100
AcDbLine
 10
0.7499999999999929
 20
20.5
 11
0.5999999999999925
 21
20.5
  0
LINE
  5
FB
100
AcDbEntity
  8
Formating
  6
ByLayer
 62
  256
370
   -1
100
AcDbLine
 10
0.7499999999999929
 20
20.5
 11
0.9999999999999929
 21
20.5
  0
LINE
  5
FC
100
AcDbEntity
  8
Formating
  6
ByLayer
 62
  256
370
   -1
100
AcDbLine
 10
0.7499999999999929
 20
20.5
 11
0.7499999999999929
 21
20.2
  0
LINE
  5
FD
100
AcDbEntity
  8
Formating
  6
ByLayer
 62
  256
370
   -1
100
AcDbLine
 10
0.7499999999999929
 20
20.2
 11
0.5999999999999925
 21
20.2
  0
LINE
  5
FE
100
AcDbEntity
  8
Formating
  6
ByLayer
 62
  256
370
   -1
100
AcDbLine
 10
0.7499999999999929
 20
20.2
 11
0.9999999999999929
 21
20.2
  0
LINE
  5
FF
100
AcDbEntity
  8
Formating
  6
ByLayer
 62
  256
370
   -1
100
AcDbLine
 10
0.7499999999999929
 20
20.2
 11
0.7499999999999929
 21
19.9
  0
LINE
  5
100
100
AcDbEntity
  8
Formating
  6
ByLayer
 62
  256
370
   -1
100
AcDbLine
 10
0.7499999999999929
 20
19.9
 11
0.5999999999999925
 21
19.9
  0
LINE
  5
101
100
AcDbEntity
  8
Formating
  6
ByLayer
 62
  256
370
   -1
100
AcDbLine
 10
0.7499999999999929
 20
19.9
 11
0.9999999999999929
 21
19.9
  0
LINE
  5
102
100
AcDbEntity
  8
Formating
  6
ByLayer
 62
  256
370
   -1
100
AcDbLine
 10
0.7499999999999929
 20
19.9
 11
0.7499999999999929
 21
19.6
  0
LINE
  5
103
100
AcDbEntity
  8
Formating
  6
ByLayer
 62
  256
370
   -1
100
AcDbLine
 10
0.7499999999999929
 20
19.6
 11
0.5999999999999925
 21
19.6
  0
LINE
  5
104
100
AcDbEntity
  8
Formating
  6
ByLayer
 62
  256
370
   -1
100
AcDbLine
 10
0.7499999999999929
 20
19.6
 11
0.9999999999999929
 21
19.6
  0
LINE
  5
105
100
AcDbEntity
  8
Formating
  6
ByLayer
 62
  256
370
   -1
100
AcDbLine
 10
0.7499999999999929
 20
19.6
 11
0.7499999999999929
 21
19.3
  0
LINE
  5
106
100
AcDbEntity
  8
Formating
  6
ByLayer
 62
  256
370
   -1
100
AcDbLine
 10
0.7499999999999929
 20
19.3
 11
0.5999999999999925
 21
19.3
  0
LINE
  5
107
100
AcDbEntity
  8
Formating
  6
ByLayer
 62
  256
370
   -1
100
AcDbLine
 10
0.7499999999999929
 20
19.3
 11
0.9999999999999929
 21
19.3
  0
LINE
  5
108
100
AcDbEntity
  8
Formating
  6
ByLayer
 62
  256
370
   -1
100
AcDbLine
 10
0.7499999999999929
 20
19.3
 11
0.7499999999999929
 21
19
  0
LINE
  5
109
100
AcDbEntity
  8
Formating
  6
ByLayer
 62
  256
370
   -1
100
AcDbLine
 10
0.7499999999999929
 20
19
 11
0.5999999999999925
 21
19
  0
LINE
  5
10A
100
AcDbEntity
  8
Formating
  6
ByLayer
 62
  256
370
   -1
100
AcDbLine
 10
0.7499999999999929
 20
19
 11
0.9999999999999929
 21
19
  0
LINE
  5
10B
100
AcDbEntity
  8
Formating
  6
ByLayer
 62
  256
370
   -1
100
AcDbLine
 10
0.7499999999999929
 20
19
 11
0.7499999999999929
 21
18.7
  0
LINE
  5
10C
100
AcDbEntity
  8
Formating
  6
ByLayer
 62
  256
370
   -1
100
AcDbLine
 10
0.7499999999999929
 20
18.7
 11
0.5999999999999925
 21
18.7
  0
LINE
  5
10D
100
AcDbEntity
  8
Formating
  6
ByLayer
 62
  256
370
   -1
100
AcDbLine
 10
0.7499999999999929
 20
18.7
 11
0.9999999999999929
 21
18.7
  0
LINE
  5
10E
100
AcDbEntity
  8
Formating
  6
ByLayer
 62
  256
370
   -1
100
AcDbLine
 10
0.7499999999999929
 20
18.4
 11
0.5999999999999925
 21
18.4
  0
LINE
  5
10F
100
AcDbEntity
  8
Formating
  6
ByLayer
 62
  256
370
   -1
100
AcDbLine
 10
0.7499999999999929
 20
18.4
 11
0.9999999999999929
 21
18.4
  0
LINE
  5
110
100
AcDbEntity
  8
Formating
  6
ByLayer
 62
  256
370
   -1
100
AcDbLine
 10
0.7499999999999929
 20
18.4
 11
0.7499999999999929
 21
18.09999999999999
  0
LINE
  5
111
100
AcDbEntity
  8
Formating
  6
ByLayer
 62
  256
370
   -1
100
AcDbLine
 10
0.7499999999999929
 20
18.09999999999999
 11
0.5999999999999925
 21
18.09999999999999
  0
LINE
  5
112
100
AcDbEntity
  8
Formating
  6
ByLayer
 62
  256
370
   -1
100
AcDbLine
 10
0.7499999999999929
 20
18.09999999999999
 11
0.9999999999999929
 21
18.09999999999999
  0
LINE
  5
113
100
AcDbEntity
  8
Formating
  6
ByLayer
 62
  256
370
   -1
100
AcDbLine
 10
0.7499999999999929
 20
18.09999999999999
 11
0.7499999999999929
 21
17.79999999999999
  0
LINE
  5
114
100
AcDbEntity
  8
Formating
  6
ByLayer
 62
  256
370
   -1
100
AcDbLine
 10
0.7499999999999929
 20
17.79999999999999
 11
0.5999999999999925
 21
17.79999999999999
  0
LINE
  5
115
100
AcDbEntity
  8
Formating
  6
ByLayer
 62
  256
370
   -1
100
AcDbLine
 10
0.7499999999999929
 20
17.79999999999999
 11
0.9999999999999929
 21
17.79999999999999
  0
LINE
  5
116
100
AcDbEntity
  8
Formating
  6
ByLayer
 62
  256
370
   -1
100
AcDbLine
 10
0.7499999999999929
 20
17.79999999999999
 11
0.7499999999999929
 21
17.49999999999999
  0
LINE
  5
117
100
AcDbEntity
  8
Formating
  6
ByLayer
 62
  256
370
   -1
100
AcDbLine
 10
0.7499999999999929
 20
17.49999999999999
 11
0.5999999999999925
 21
17.49999999999999
  0
LINE
  5
118
100
AcDbEntity
  8
Formating
  6
ByLayer
 62
  256
370
   -1
100
AcDbLine
 10
0.7499999999999929
 20
17.49999999999999
 11
0.9999999999999929
 21
17.49999999999999
  0
LINE
  5
119
100
AcDbEntity
  8
Formating
  6
ByLayer
 62
  256
370
   -1
100
AcDbLine
 10
0.7499999999999929
 20
17.49999999999999
 11
0.7499999999999929
 21
17.19999999999999
  0
LINE
  5
11A
100
AcDbEntity
  8
Formating
  6
ByLayer
 62
  256
370
   -1
100
AcDbLine
 10
0.7499999999999929
 20
17.19999999999999
 11
0.5999999999999925
 21
17.19999999999999
  0
LINE
  5
11B
100
AcDbEntity
  8
Formating
  6
ByLayer
 62
  256
370
   -1
100
AcDbLine
 10
0.7499999999999929
 20
17.19999999999999
 11
0.9999999999999929
 21
17.19999999999999
  0
LINE
  5
11C
100
AcDbEntity
  8
Formating
  6
ByLayer
 62
  256
370
   -1
100
AcDbLine
 10
0.7499999999999929
 20
17.19999999999999
 11
0.7499999999999929
 21
16.89999999999999
  0
LINE
  5
11D
100
AcDbEntity
  8
Formating
  6
ByLayer
 62
  256
370
   -1
100
AcDbLine
 10
0.7499999999999929
 20
16.89999999999999
 11
0.5999999999999925
 21
16.89999999999999
  0
LINE
  5
11E
100
AcDbEntity
  8
Formating
  6
ByLayer
 62
  256
370
   -1
100
AcDbLine
 10
0.7499999999999929
 20
16.89999999999999
 11
0.9999999999999929
 21
16.89999999999999
  0
LINE
  5
11F
100
AcDbEntity
  8
Formating
  6
ByLayer
 62
  256
370
   -1
100
AcDbLine
 10
0.7499999999999929
 20
16.89999999999999
 11
0.7499999999999929
 21
16.59999999999999
  0
LINE
  5
120
100
AcDbEntity
  8
Formating
  6
ByLayer
 62
  256
370
   -1
100
AcDbLine
 10
0.7499999999999929
 20
16.59999999999999
 11
0.5999999999999925
 21
16.59999999999999
  0
LINE
  5
121
100
AcDbEntity
  8
Formating
  6
ByLayer
 62
  256
370
   -1
100
AcDbLine
 10
0.7499999999999929
 20
16.59999999999999
 11
0.9999999999999929
 21
16.59999999999999
  0
LINE
  5
122
100
AcDbEntity
  8
Formating
  6
ByLayer
 62
  256
370
   -1
100
AcDbLine
 10
0.7499999999999929
 20
16.59999999999999
 11
0.7499999999999929
 21
16.29999999999999
  0
LINE
  5
123
100
AcDbEntity
  8
Formating
  6
ByLayer
 62
  256
370
   -1
100
AcDbLine
 10
0.7499999999999929
 20
16.29999999999999
 11
0.5999999999999925
 21
16.29999999999999
  0
LINE
  5
124
100
AcDbEntity
  8
Formating
  6
ByLayer
 62
  256
370
   -1
100
AcDbLine
 10
0.7499999999999929
 20
16.29999999999999
 11
0.9999999999999929
 21
16.29999999999999
  0
LINE
  5
125
100
AcDbEntity
  8
Formating
  6
ByLayer
 62
  256
370
   -1
100
AcDbLine
 10
0.7499999999999929
 20
16.29999999999999
 11
0.7499999999999929
 21
15.99999999999999
  0
LINE
  5
126
100
AcDbEntity
  8
Formating
  6
ByLayer
 62
  256
370
   -1
100
AcDbLine
 10
0.7499999999999929
 20
15.99999999999999
 11
0.5999999999999925
 21
15.99999999999999
  0
LINE
  5
127
100
AcDbEntity
  8
Formating
  6
ByLayer
 62
  256
370
   -1
100
AcDbLine
 10
0.7499999999999929
 20
15.99999999999999
 11
0.9999999999999929
 21
15.99999999999999
  0
LINE
  5
128
100
AcDbEntity
  8
Formating
  6
ByLayer
 62
  256
370
   -1
100
AcDbLine
 10
0.7499999999999929
 20
15.99999999999999
 11
0.7499999999999929
 21
15.69999999999999
  0
LINE
  5
129
100
AcDbEntity
  8
Formating
  6
ByLayer
 62
  256
370
   -1
100
AcDbLine
 10
0.7499999999999929
 20
19.5
 11
0.7499999999999929
 21
19.3
  0
LINE
  5
12A
100
AcDbEntity
  8
Formating
  6
ByLayer
 62
  256
370
   -1
100
AcDbLine
 10
0.75
 20
18.7
 11
0.75
 21
18.4
  0
LINE
  5
12B
100
AcDbEntity
  8
Formating
  6
ByLayer
 62
  256
370
   -1
100
AcDbLine
 10
0.7499999999999929
 20
15.69999999999999
 11
0.5999999999999925
 21
15.69999999999999
  0
LINE
  5
12C
100
AcDbEntity
  8
Formating
  6
ByLayer
 62
  256
370
   -1
100
AcDbLine
 10
0.7499999999999929
 20
15.69999999999999
 11
0.9999999999999929
 21
15.69999999999999
  0
LINE
  5
12D
100
AcDbEntity
  8
Formating
  6
ByLayer
 62
  256
370
   -1
100
AcDbLine
 10
0.7499999999999929
 20
15.69999999999999
 11
0.7499999999999929
 21
15.39999999999999
  0
LINE
  5
12E
100
AcDbEntity
  8
Formating
  6
ByLayer
 62
  256
370
   -1
100
AcDbLine
 10
0.7499999999999929
 20
15.39999999999999
 11
0.5999999999999925
 21
15.39999999999999
  0
LINE
  5
12F
100
AcDbEntity
  8
Formating
  6
ByLayer
 62
  256
370
   -1
100
AcDbLine
 10
0.7499999999999929
 20
15.39999999999999
 11
0.9999999999999929
 21
15.39999999999999
  0
LINE
  5
130
100
AcDbEntity
  8
Formating
  6
ByLayer
 62
  256
370
   -1
100
AcDbLine
 10
0.7499999999999929
 20
15.39999999999999
 11
0.7499999999999929
 21
15.09999999999999
  0
LINE
  5
131
100
AcDbEntity
  8
Formating
  6
ByLayer
 62
  256
370
   -1
100
AcDbLine
 10
0.7499999999999929
 20
15.09999999999999
 11
0.5999999999999925
 21
15.09999999999999
  0
LINE
  5
132
100
AcDbEntity
  8
Formating
  6
ByLayer
 62
  256
370
   -1
100
AcDbLine
 10
0.7499999999999929
 20
15.09999999999999
 11
0.9999999999999929
 21
15.09999999999999
  0
LINE
  5
133
100
AcDbEntity
  8
Formating
  6
ByLayer
 62
  256
370
   -1
100
AcDbLine
 10
0.7499999999999929
 20
15.09999999999999
 11
0.7499999999999929
 21
14.79999999999999
  0
LINE
  5
134
100
AcDbEntity
  8
Formating
  6
ByLayer
 62
  256
370
   -1
100
AcDbLine
 10
0.7499999999999929
 20
14.79999999999999
 11
0.5999999999999925
 21
14.79999999999999
  0
LINE
  5
135
100
AcDbEntity
  8
Formating
  6
ByLayer
 62
  256
370
   -1
100
AcDbLine
 10
0.7499999999999929
 20
14.79999999999999
 11
0.9999999999999929
 21
14.79999999999999
  0
LINE
  5
136
100
AcDbEntity
  8
Formating
  6
ByLayer
 62
  256
370
   -1
100
AcDbLine
 10
0.7499999999999929
 20
14.79999999999999
 11
0.7499999999999929
 21
14.49999999999999
  0
LINE
  5
137
100
AcDbEntity
  8
Formating
  6
ByLayer
 62
  256
370
   -1
100
AcDbLine
 10
0.7499999999999929
 20
14.49999999999999
 11
0.5999999999999925
 21
14.49999999999999
  0
LINE
  5
138
100
AcDbEntity
  8
Formating
  6
ByLayer
 62
  256
370
   -1
100
AcDbLine
 10
0.7499999999999929
 20
14.49999999999999
 11
0.9999999999999929
 21
14.49999999999999
  0
LINE
  5
139
100
AcDbEntity
  8
Formating
  6
ByLayer
 62
  256
370
   -1
100
AcDbLine
 10
0.7499999999999929
 20
14.49999999999999
 11
0.7499999999999929
 21
14.19999999999999
  0
LINE
  5
13A
100
AcDbEntity
  8
Formating
  6
ByLayer
 62
  256
370
   -1
100
AcDbLine
 10
0.7499999999999929
 20
14.19999999999999
 11
0.5999999999999925
 21
14.19999999999999
  0
LINE
  5
13B
100
AcDbEntity
  8
Formating
  6
ByLayer
 62
  256
370
   -1
100
AcDbLine
 10
0.7499999999999929
 20
14.19999999999999
 11
0.9999999999999929
 21
14.19999999999999
  0
LINE
  5
13C
100
AcDbEntity
  8
Formating
  6
ByLayer
 62
  256
370
   -1
100
AcDbLine
 10
0.7499999999999929
 20
14.19999999999999
 11
0.7499999999999929
 21
13.89999999999999
  0
LINE
  5
13D
100
AcDbEntity
  8
Formating
  6
ByLayer
 62
  256
370
   -1
100
AcDbLine
 10
0.7499999999999929
 20
13.89999999999999
 11
0.5999999999999925
 21
13.89999999999999
  0
LINE
  5
13E
100
AcDbEntity
  8
Formating
  6
ByLayer
 62
  256
370
   -1
100
AcDbLine
 10
0.7499999999999929
 20
13.89999999999999
 11
0.9999999999999929
 21
13.89999999999999
  0
LINE
  5
13F
100
AcDbEntity
  8
Formating
  6
ByLayer
 62
  256
370
   -1
100
AcDbLine
 10
0.7499999999999929
 20
13.89999999999999
 11
0.7499999999999929
 21
13.59999999999999
  0
LINE
  5
140
100
AcDbEntity
  8
Formating
  6
ByLayer
 62
  256
370
   -1
100
AcDbLine
 10
0.7499999999999929
 20
13.59999999999999
 11
0.5999999999999925
 21
13.59999999999999
  0
LINE
  5
141
100
AcDbEntity
  8
Formating
  6
ByLayer
 62
  256
370
   -1
100
AcDbLine
 10
0.7499999999999929
 20
13.59999999999999
 11
0.9999999999999929
 21
13.59999999999999
  0
LINE
  5
142
100
AcDbEntity
  8
Formating
  6
ByLayer
 62
  256
370
   -1
100
AcDbLine
 10
0.7499999999999929
 20
13.59999999999999
 11
0.7499999999999929
 21
13.29999999999999
  0
LINE
  5
143
100
AcDbEntity
  8
Formating
  6
ByLayer
 62
  256
370
   -1
100
AcDbLine
 10
0.7499999999999929
 20
13.29999999999999
 11
0.5999999999999925
 21
13.29999999999999
  0
LINE
  5
144
100
AcDbEntity
  8
Formating
  6
ByLayer
 62
  256
370
   -1
100
AcDbLine
 10
0.7499999999999929
 20
13.29999999999999
 11
0.9999999999999929
 21
13.29999999999999
  0
LINE
  5
145
100
AcDbEntity
  8
Formating
  6
ByLayer
 62
  256
370
   -1
100
AcDbLine
 10
0.7499999999999929
 20
13.29999999999999
 11
0.7499999999999929
 21
12.99999999999999
  0
LINE
  5
146
100
AcDbEntity
  8
Formating
  6
ByLayer
 62
  256
370
   -1
100
AcDbLine
 10
0.7499999999999929
 20
12.99999999999999
 11
0.5999999999999925
 21
12.99999999999999
  0
LINE
  5
147
100
AcDbEntity
  8
Formating
  6
ByLayer
 62
  256
370
   -1
100
AcDbLine
 10
0.7499999999999929
 20
12.99999999999999
 11
0.9999999999999929
 21
12.99999999999999
  0
LINE
  5
148
100
AcDbEntity
  8
Formating
  6
ByLayer
 62
  256
370
   -1
100
AcDbLine
 10
0.7499999999999929
 20
12.99999999999999
 11
0.7499999999999929
 21
12.69999999999999
  0
LINE
  5
149
100
AcDbEntity
  8
Formating
  6
ByLayer
 62
  256
370
   -1
100
AcDbLine
 10
0.7499999999999929
 20
12.69999999999999
 11
0.5999999999999925
 21
12.69999999999999
  0
LINE
  5
14A
100
AcDbEntity
  8
Formating
  6
ByLayer
 62
  256
370
   -1
100
AcDbLine
 10
0.7499999999999929
 20
12.69999999999999
 11
0.9999999999999929
 21
12.69999999999999
  0
LINE
  5
14B
100
AcDbEntity
  8
Formating
  6
ByLayer
 62
  256
370
   -1
100
AcDbLine
 10
0.7499999999999929
 20
12.69999999999999
 11
0.7499999999999929
 21
12.39999999999999
  0
LINE
  5
14C
100
AcDbEntity
  8
Formating
  6
ByLayer
 62
  256
370
   -1
100
AcDbLine
 10
0.7499999999999929
 20
12.39999999999999
 11
0.5999999999999925
 21
12.39999999999999
  0
LINE
  5
14D
100
AcDbEntity
  8
Formating
  6
ByLayer
 62
  256
370
   -1
100
AcDbLine
 10
0.7499999999999929
 20
12.39999999999999
 11
0.9999999999999929
 21
12.39999999999999
  0
LINE
  5
14E
100
AcDbEntity
  8
Formating
  6
ByLayer
 62
  256
370
   -1
100
AcDbLine
 10
0.7499999999999929
 20
12.39999999999999
 11
0.7499999999999929
 21
12.09999999999999
  0
LINE
  5
14F
100
AcDbEntity
  8
Formating
  6
ByLayer
 62
  256
370
   -1
100
AcDbLine
 10
0.7499999999999929
 20
12.09999999999999
 11
0.5999999999999925
 21
12.09999999999999
  0
LINE
  5
150
100
AcDbEntity
  8
Formating
  6
ByLayer
 62
  256
370
   -1
100
AcDbLine
 10
0.7499999999999929
 20
12.09999999999999
 11
0.9999999999999929
 21
12.09999999999999
  0
LINE
  5
151
100
AcDbEntity
  8
Formating
  6
ByLayer
 62
  256
370
   -1
100
AcDbLine
 10
0.7499999999999929
 20
12.09999999999999
 11
0.7499999999999929
 21
11.79999999999999
  0
LINE
  5
152
100
AcDbEntity
  8
Formating
  6
ByLayer
 62
  256
370
   -1
100
AcDbLine
 10
0.7499999999999929
 20
11.79999999999999
 11
0.5999999999999925
 21
11.79999999999999
  0
LINE
  5
153
100
AcDbEntity
  8
Formating
  6
ByLayer
 62
  256
370
   -1
100
AcDbLine
 10
0.7499999999999929
 20
11.79999999999999
 11
0.9999999999999929
 21
11.79999999999999
  0
LINE
  5
154
100
AcDbEntity
  8
Formating
  6
ByLayer
 62
  256
370
   -1
100
AcDbLine
 10
0.7499999999999929
 20
11.79999999999999
 11
0.7499999999999929
 21
11.49999999999999
  0
LINE
  5
155
100
AcDbEntity
  8
Formating
  6
ByLayer
 62
  256
370
   -1
100
AcDbLine
 10
0.7499999999999929
 20
11.49999999999999
 11
0.5999999999999925
 21
11.49999999999999
  0
LINE
  5
156
100
AcDbEntity
  8
Formating
  6
ByLayer
 62
  256
370
   -1
100
AcDbLine
 10
0.7499999999999929
 20
11.49999999999999
 11
0.9999999999999929
 21
11.49999999999999
  0
LINE
  5
157
100
AcDbEntity
  8
Formating
  6
ByLayer
 62
  256
370
   -1
100
AcDbLine
 10
0.7499999999999929
 20
11.49999999999999
 11
0.7499999999999929
 21
11.19999999999999
  0
LINE
  5
158
100
AcDbEntity
  8
Formating
  6
ByLayer
 62
  256
370
   -1
100
AcDbLine
 10
0.7499999999999929
 20
11.19999999999999
 11
0.5999999999999925
 21
11.19999999999999
  0
LINE
  5
159
100
AcDbEntity
  8
Formating
  6
ByLayer
 62
  256
370
   -1
100
AcDbLine
 10
0.7499999999999929
 20
11.19999999999999
 11
0.9999999999999929
 21
11.19999999999999
  0
LINE
  5
15A
100
AcDbEntity
  8
Formating
  6
ByLayer
 62
  256
370
   -1
100
AcDbLine
 10
0.7499999999999929
 20
11.19999999999999
 11
0.7499999999999929
 21
10.89999999999999
  0
LINE
  5
15B
100
AcDbEntity
  8
Formating
  6
ByLayer
 62
  256
370
   -1
100
AcDbLine
 10
0.7499999999999929
 20
10.89999999999999
 11
0.5999999999999925
 21
10.89999999999999
  0
LINE
  5
15C
100
AcDbEntity
  8
Formating
  6
ByLayer
 62
  256
370
   -1
100
AcDbLine
 10
0.7499999999999929
 20
10.89999999999999
 11
0.9999999999999929
 21
10.89999999999999
  0
LINE
  5
15D
100
AcDbEntity
  8
Formating
  6
ByLayer
 62
  256
370
   -1
100
AcDbLine
 10
0.7499999999999929
 20
10.89999999999999
 11
0.7499999999999929
 21
10.59999999999999
  0
LINE
  5
15E
100
AcDbEntity
  8
Formating
  6
ByLayer
 62
  256
370
   -1
100
AcDbLine
 10
0.7499999999999929
 20
10.59999999999999
 11
0.5999999999999925
 21
10.59999999999999
  0
LINE
  5
15F
100
AcDbEntity
  8
Formating
  6
ByLayer
 62
  256
370
   -1
100
AcDbLine
 10
0.7499999999999929
 20
10.59999999999999
 11
0.9999999999999929
 21
10.59999999999999
  0
LINE
  5
160
100
AcDbEntity
  8
Formating
  6
ByLayer
 62
  256
370
   -1
100
AcDbLine
 10
0.7499999999999929
 20
10.59999999999999
 11
0.7499999999999929
 21
10.29999999999999
  0
LINE
  5
161
100
AcDbEntity
  8
Formating
  6
ByLayer
 62
  256
370
   -1
100
AcDbLine
 10
0.7499999999999929
 20
10.29999999999999
 11
0.5999999999999925
 21
10.29999999999999
  0
LINE
  5
162
100
AcDbEntity
  8
Formating
  6
ByLayer
 62
  256
370
   -1
100
AcDbLine
 10
0.7499999999999929
 20
10.29999999999999
 11
0.9999999999999929
 21
10.29999999999999
  0
LINE
  5
163
100
AcDbEntity
  8
Formating
  6
ByLayer
 62
  256
370
   -1
100
AcDbLine
 10
0.7499999999999929
 20
10.29999999999999
 11
0.7499999999999929
 21
9.999999999999993
  0
LINE
  5
164
100
AcDbEntity
  8
Formating
  6
ByLayer
 62
  256
370
   -1
100
AcDbLine
 10
0.7499999999999929
 20
9.999999999999993
 11
0.5999999999999925
 21
9.999999999999993
  0
LINE
  5
165
100
AcDbEntity
  8
Formating
  6
ByLayer
 62
  256
370
   -1
100
AcDbLine
 10
0.7499999999999929
 20
9.999999999999993
 11
0.9999999999999929
 21
9.999999999999993
  0
LINE
  5
166
100
AcDbEntity
  8
Formating
  6
ByLayer
 62
  256
370
   -1
100
AcDbLine
 10
0.7499999999999929
 20
9.999999999999993
 11
0.7499999999999929
 21
9.699999999999996
  0
LINE
  5
167
100
AcDbEntity
  8
Formating
  6
ByLayer
 62
  256
370
   -1
100
AcDbLine
 10
0.7499999999999929
 20
9.699999999999996
 11
0.5999999999999925
 21
9.699999999999996
  0
LINE
  5
168
100
AcDbEntity
  8
Formating
  6
ByLayer
 62
  256
370
   -1
100
AcDbLine
 10
0.7499999999999929
 20
9.699999999999996
 11
0.9999999999999929
 21
9.699999999999996
  0
LINE
  5
169
100
AcDbEntity
  8
Formating
  6
ByLayer
 62
  256
370
   -1
100
AcDbLine
 10
0.7499999999999929
 20
9.699999999999996
 11
0.7499999999999929
 21
9.399999999999995
  0
LINE
  5
16A
100
AcDbEntity
  8
Formating
  6
ByLayer
 62
  256
370
   -1
100
AcDbLine
 10
0.7499999999999929
 20
9.399999999999995
 11
0.5999999999999925
 21
9.399999999999995
  0
LINE
  5
16B
100
AcDbEntity
  8
Formating
  6
ByLayer
 62
  256
370
   -1
100
AcDbLine
 10
0.7499999999999929
 20
9.399999999999995
 11
0.9999999999999929
 21
9.399999999999995
  0
LINE
  5
16C
100
AcDbEntity
  8
Formating
  6
ByLayer
 62
  256
370
   -1
100
AcDbLine
 10
0.7499999999999929
 20
9.399999999999995
 11
0.7499999999999929
 21
9.099999999999994
  0
LINE
  5
16D
100
AcDbEntity
  8
Formating
  6
ByLayer
 62
  256
370
   -1
100
AcDbLine
 10
0.7499999999999929
 20
9.099999999999994
 11
0.5999999999999925
 21
9.099999999999994
  0
LINE
  5
16E
100
AcDbEntity
  8
Formating
  6
ByLayer
 62
  256
370
   -1
100
AcDbLine
 10
0.7499999999999929
 20
9.099999999999994
 11
0.9999999999999929
 21
9.099999999999994
  0
LINE
  5
16F
100
AcDbEntity
  8
Formating
  6
ByLayer
 62
  256
370
   -1
100
AcDbLine
 10
0.7499999999999929
 20
9.099999999999994
 11
0.7499999999999929
 21
8.799999999999994
  0
LINE
  5
170
100
AcDbEntity
  8
Formating
  6
ByLayer
 62
  256
370
   -1
100
AcDbLine
 10
0.7499999999999929
 20
8.799999999999994
 11
0.5999999999999925
 21
8.799999999999994
  0
LINE
  5
171
100
AcDbEntity
  8
Formating
  6
ByLayer
 62
  256
370
   -1
100
AcDbLine
 10
0.7499999999999929
 20
8.799999999999994
 11
0.9999999999999929
 21
8.799999999999994
  0
LINE
  5
172
100
AcDbEntity
  8
Formating
  6
ByLayer
 62
  256
370
   -1
100
AcDbLine
 10
0.7499999999999929
 20
8.799999999999994
 11
0.7499999999999929
 21
8.499999999999995
  0
LINE
  5
173
100
AcDbEntity
  8
Formating
  6
ByLayer
 62
  256
370
   -1
100
AcDbLine
 10
0.7499999999999929
 20
8.499999999999995
 11
0.5999999999999925
 21
8.499999999999995
  0
LINE
  5
174
100
AcDbEntity
  8
Formating
  6
ByLayer
 62
  256
370
   -1
100
AcDbLine
 10
0.7499999999999929
 20
8.499999999999995
 11
0.9999999999999929
 21
8.499999999999995
  0
LINE
  5
175
100
AcDbEntity
  8
Formating
  6
ByLayer
 62
  256
370
   -1
100
AcDbLine
 10
0.7499999999999929
 20
8.499999999999995
 11
0.7499999999999929
 21
8.199999999999994
  0
LINE
  5
176
100
AcDbEntity
  8
Formating
  6
ByLayer
 62
  256
370
   -1
100
AcDbLine
 10
0.7499999999999929
 20
8.199999999999994
 11
0.5999999999999925
 21
8.199999999999994
  0
LINE
  5
177
100
AcDbEntity
  8
Formating
  6
ByLayer
 62
  256
370
   -1
100
AcDbLine
 10
0.7499999999999929
 20
8.199999999999994
 11
0.9999999999999929
 21
8.199999999999994
  0
LINE
  5
178
100
AcDbEntity
  8
Formating
  6
ByLayer
 62
  256
370
   -1
100
AcDbLine
 10
0.7499999999999929
 20
8.199999999999994
 11
0.7499999999999929
 21
7.899999999999997
  0
LINE
  5
179
100
AcDbEntity
  8
Formating
  6
ByLayer
 62
  256
370
   -1
100
AcDbLine
 10
0.7499999999999929
 20
7.899999999999997
 11
0.5999999999999925
 21
7.899999999999997
  0
LINE
  5
17A
100
AcDbEntity
  8
Formating
  6
ByLayer
 62
  256
370
   -1
100
AcDbLine
 10
0.7499999999999929
 20
7.899999999999997
 11
0.9999999999999929
 21
7.899999999999997
  0
LINE
  5
17B
100
AcDbEntity
  8
Formating
  6
ByLayer
 62
  256
370
   -1
100
AcDbLine
 10
0.7499999999999929
 20
7.899999999999997
 11
0.7499999999999929
 21
7.599999999999996
  0
LINE
  5
17C
100
AcDbEntity
  8
Formating
  6
ByLayer
 62
  256
370
   -1
100
AcDbLine
 10
0.7499999999999929
 20
7.599999999999996
 11
0.5999999999999925
 21
7.599999999999996
  0
LINE
  5
17D
100
AcDbEntity
  8
Formating
  6
ByLayer
 62
  256
370
   -1
100
AcDbLine
 10
0.7499999999999929
 20
7.599999999999996
 11
0.9999999999999929
 21
7.599999999999996
  0
LINE
  5
17E
100
AcDbEntity
  8
Formating
  6
ByLayer
 62
  256
370
   -1
100
AcDbLine
 10
0.7499999999999929
 20
7.599999999999996
 11
0.7499999999999929
 21
7.299999999999995
  0
LINE
  5
17F
100
AcDbEntity
  8
Formating
  6
ByLayer
 62
  256
370
   -1
100
AcDbLine
 10
0.7499999999999929
 20
7.299999999999995
 11
0.5999999999999925
 21
7.299999999999995
  0
LINE
  5
180
100
AcDbEntity
  8
Formating
  6
ByLayer
 62
  256
370
   -1
100
AcDbLine
 10
0.7499999999999929
 20
7.299999999999995
 11
0.9999999999999929
 21
7.299999999999995
  0
LINE
  5
181
100
AcDbEntity
  8
Formating
  6
ByLayer
 62
  256
370
   -1
100
AcDbLine
 10
0.7499999999999929
 20
7.299999999999995
 11
0.7499999999999929
 21
6.999999999999995
  0
LINE
  5
182
100
AcDbEntity
  8
Formating
  6
ByLayer
 62
  256
370
   -1
100
AcDbLine
 10
0.7499999999999929
 20
6.999999999999995
 11
0.5999999999999925
 21
6.999999999999995
  0
LINE
  5
183
100
AcDbEntity
  8
Formating
  6
ByLayer
 62
  256
370
   -1
100
AcDbLine
 10
0.7499999999999929
 20
6.999999999999995
 11
0.9999999999999929
 21
6.999999999999995
  0
LINE
  5
184
100
AcDbEntity
  8
Formating
  6
ByLayer
 62
  256
370
   -1
100
AcDbLine
 10
0.7499999999999929
 20
6.999999999999995
 11
0.7499999999999929
 21
6.699999999999996
  0
LINE
  5
185
100
AcDbEntity
  8
Formating
  6
ByLayer
 62
  256
370
   -1
100
AcDbLine
 10
0.7499999999999929
 20
6.699999999999996
 11
0.5999999999999925
 21
6.699999999999996
  0
LINE
  5
186
100
AcDbEntity
  8
Formating
  6
ByLayer
 62
  256
370
   -1
100
AcDbLine
 10
0.7499999999999929
 20
6.699999999999996
 11
0.9999999999999929
 21
6.699999999999996
  0
LINE
  5
187
100
AcDbEntity
  8
Formating
  6
ByLayer
 62
  256
370
   -1
100
AcDbLine
 10
0.7499999999999929
 20
6.699999999999996
 11
0.7499999999999929
 21
6.399999999999995
  0
LINE
  5
188
100
AcDbEntity
  8
Formating
  6
ByLayer
 62
  256
370
   -1
100
AcDbLine
 10
0.7499999999999929
 20
6.399999999999995
 11
0.5999999999999925
 21
6.399999999999995
  0
LINE
  5
189
100
AcDbEntity
  8
Formating
  6
ByLayer
 62
  256
370
   -1
100
AcDbLine
 10
0.7499999999999929
 20
6.399999999999995
 11
0.9999999999999929
 21
6.399999999999995
  0
LINE
  5
18A
100
AcDbEntity
  8
Formating
  6
ByLayer
 62
  256
370
   -1
100
AcDbLine
 10
0.7499999999999929
 20
6.399999999999995
 11
0.7499999999999929
 21
6.099999999999998
  0
LINE
  5
18B
100
AcDbEntity
  8
Formating
  6
ByLayer
 62
  256
370
   -1
100
AcDbLine
 10
0.7499999999999929
 20
6.099999999999998
 11
0.5999999999999925
 21
6.099999999999998
  0
LINE
  5
18C
100
AcDbEntity
  8
Formating
  6
ByLayer
 62
  256
370
   -1
100
AcDbLine
 10
0.7499999999999929
 20
6.099999999999998
 11
0.9999999999999929
 21
6.099999999999998
  0
LINE
  5
18D
100
AcDbEntity
  8
Formating
  6
ByLayer
 62
  256
370
   -1
100
AcDbLine
 10
0.7499999999999929
 20
6.099999999999998
 11
0.7499999999999929
 21
5.799999999999997
  0
LINE
  5
18E
100
AcDbEntity
  8
Formating
  6
ByLayer
 62
  256
370
   -1
100
AcDbLine
 10
0.7499999999999929
 20
5.799999999999997
 11
0.5999999999999925
 21
5.799999999999997
  0
LINE
  5
18F
100
AcDbEntity
  8
Formating
  6
ByLayer
 62
  256
370
   -1
100
AcDbLine
 10
0.7499999999999929
 20
5.799999999999997
 11
0.9999999999999929
 21
5.799999999999997
  0
LINE
  5
190
100
AcDbEntity
  8
Formating
  6
ByLayer
 62
  256
370
   -1
100
AcDbLine
 10
0.7499999999999929
 20
5.799999999999997
 11
0.7499999999999929
 21
5.499999999999996
  0
LINE
  5
191
100
AcDbEntity
  8
Formating
  6
ByLayer
 62
  256
370
   -1
100
AcDbLine
 10
0.7499999999999929
 20
5.499999999999996
 11
0.5999999999999925
 21
5.499999999999996
  0
LINE
  5
192
100
AcDbEntity
  8
Formating
  6
ByLayer
 62
  256
370
   -1
100
AcDbLine
 10
0.7499999999999929
 20
5.499999999999996
 11
0.9999999999999929
 21
5.499999999999996
  0
LINE
  5
193
100
AcDbEntity
  8
Formating
  6
ByLayer
 62
  256
370
   -1
100
AcDbLine
 10
0.7499999999999929
 20
5.499999999999996
 11
0.7499999999999929
 21
5.199999999999996
  0
LINE
  5
194
100
AcDbEntity
  8
Formating
  6
ByLayer
 62
  256
370
   -1
100
AcDbLine
 10
0.7499999999999929
 20
5.199999999999996
 11
0.5999999999999925
 21
5.199999999999996
  0
LINE
  5
195
100
AcDbEntity
  8
Formating
  6
ByLayer
 62
  256
370
   -1
100
AcDbLine
 10
0.7499999999999929
 20
5.199999999999996
 11
0.9999999999999929
 21
5.199999999999996
  0
LINE
  5
196
100
AcDbEntity
  8
Formating
  6
ByLayer
 62
  256
370
   -1
100
AcDbLine
 10
0.7499999999999929
 20
5.199999999999996
 11
0.7499999999999929
 21
4.899999999999997
  0
LINE
  5
197
100
AcDbEntity
  8
Formating
  6
ByLayer
 62
  256
370
   -1
100
AcDbLine
 10
0.7499999999999929
 20
4.899999999999997
 11
0.5999999999999925
 21
4.899999999999997
  0
LINE
  5
198
100
AcDbEntity
  8
Formating
  6
ByLayer
 62
  256
370
   -1
100
AcDbLine
 10
0.7499999999999929
 20
4.899999999999997
 11
0.9999999999999929
 21
4.899999999999997
  0
LINE
  5
199
100
AcDbEntity
  8
Formating
  6
ByLayer
 62
  256
370
   -1
100
AcDbLine
 10
0.7499999999999929
 20
4.899999999999997
 11
0.7499999999999929
 21
4.599999999999996
  0
LINE
  5
19A
100
AcDbEntity
  8
Formating
  6
ByLayer
 62
  256
370
   -1
100
AcDbLine
 10
0.7499999999999929
 20
4.599999999999996
 11
0.5999999999999925
 21
4.599999999999996
  0
LINE
  5
19B
100
AcDbEntity
  8
Formating
  6
ByLayer
 62
  256
370
   -1
100
AcDbLine
 10
0.7499999999999929
 20
4.599999999999996
 11
0.9999999999999929
 21
4.599999999999996
  0
LINE
  5
19C
100
AcDbEntity
  8
Formating
  6
ByLayer
 62
  256
370
   -1
100
AcDbLine
 10
0.7499999999999929
 20
4.599999999999996
 11
0.7499999999999929
 21
4.299999999999999
  0
LINE
  5
19D
100
AcDbEntity
  8
Formating
  6
ByLayer
 62
  256
370
   -1
100
AcDbLine
 10
0.7499999999999929
 20
4.299999999999999
 11
0.5999999999999925
 21
4.299999999999999
  0
LINE
  5
19E
100
AcDbEntity
  8
Formating
  6
ByLayer
 62
  256
370
   -1
100
AcDbLine
 10
0.7499999999999929
 20
4.299999999999999
 11
0.9999999999999929
 21
4.299999999999999
  0
LINE
  5
19F
100
AcDbEntity
  8
Formating
  6
ByLayer
 62
  256
370
   -1
100
AcDbLine
 10
0.7499999999999929
 20
4.299999999999999
 11
0.7499999999999929
 21
3.999999999999998
  0
LINE
  5
1A0
100
AcDbEntity
  8
Formating
  6
ByLayer
 62
  256
370
   -1
100
AcDbLine
 10
0.7499999999999929
 20
3.999999999999998
 11
0.5999999999999925
 21
3.999999999999998
  0
LINE
  5
1A1
100
AcDbEntity
  8
Formating
  6
ByLayer
 62
  256
370
   -1
100
AcDbLine
 10
0.7499999999999929
 20
3.999999999999998
 11
0.9999999999999929
 21
3.999999999999998
  0
LINE
  5
1A2
100
AcDbEntity
  8
Formating
  6
ByLayer
 62
  256
370
   -1
100
AcDbLine
 10
0.7499999999999929
 20
3.999999999999998
 11
0.7499999999999929
 21
3.699999999999998
  0
LINE
  5
1A3
100
AcDbEntity
  8
Formating
  6
ByLayer
 62
  256
370
   -1
100
AcDbLine
 10
0.7499999999999929
 20
3.699999999999998
 11
0.5999999999999925
 21
3.699999999999998
  0
LINE
  5
1A4
100
AcDbEntity
  8
Formating
  6
ByLayer
 62
  256
370
   -1
100
AcDbLine
 10
0.7499999999999929
 20
3.699999999999998
 11
0.9999999999999929
 21
3.699999999999998
  0
LINE
  5
1A5
100
AcDbEntity
  8
Formating
  6
ByLayer
 62
  256
370
   -1
100
AcDbLine
 10
0.7499999999999929
 20
3.699999999999998
 11
0.7499999999999929
 21
3.399999999999997
  0
LINE
  5
1A6
100
AcDbEntity
  8
Formating
  6
ByLayer
 62
  256
370
   -1
100
AcDbLine
 10
0.7499999999999929
 20
3.399999999999997
 11
0.5999999999999925
 21
3.399999999999997
  0
LINE
  5
1A7
100
AcDbEntity
  8
Formating
  6
ByLayer
 62
  256
370
   -1
100
AcDbLine
 10
0.7499999999999929
 20
3.399999999999997
 11
0.9999999999999929
 21
3.399999999999997
  0
LINE
  5
1A8
100
AcDbEntity
  8
Coord_Grid
  6
ByLayer
 62
  256
370
   -1
100
AcDbLine
 10
4.25
 20
21.5
 11
4.25
 21
0.5
  0
LINE
  5
1A9
100
AcDbEntity
  8
Coord_Grid
  6
ByLayer
 62
  256
370
   -1
100
AcDbLine
 10
8.5
 20
0.5
 11
8.5
 21
21.5
  0
LINE
  5
1AA
100
AcDbEntity
  8
Coord_Grid
  6
ByLayer
 62
  256
370
   -1
100
AcDbLine
 10
12.75
 20
21.5
 11
12.75
 21
0.5
  0
LINE
  5
1AB
100
AcDbEntity
  8
Coord_Grid
  6
ByLayer
 62
  256
370
   -1
100
AcDbLine
 10
17
 20
0.5
 11
17
 21
21.5
  0
LINE
  5
1AC
100
AcDbEntity
  8
Coord_Grid
  6
ByLayer
 62
  256
370
   -1
100
AcDbLine
 10
21.25
 20
21.5
 11
21.25
 21
0.5
  0
LINE
  5
1AD
100
AcDbEntity
  8
Coord_Grid
  6
ByLayer
 62
  256
370
   -1
100
AcDbLine
 10
25.5
 20
0.5
 11
25.5
 21
21.5
  0
LINE
  5
1AE
100
AcDbEntity
  8
Coord_Grid
  6
ByLayer
 62
  256
370
   -1
100
AcDbLine
 10
29.75
 20
21.5
 11
29.75
 21
0.5
  0
LINE
  5
1AF
100
AcDbEntity
  8
Coord_Grid
  6
ByLayer
 62
  256
370
   -1
100
AcDbLine
 10
0.4999999999999983
 20
5.5
 11
33.5
 21
5.5
  0
LINE
  5
1B0
100
AcDbEntity
  8
Coord_Grid
  6
ByLayer
 62
  256
370
   -1
100
AcDbLine
 10
33.5
 20
11
 11
0.4999999999999965
 21
11
  0
LINE
  5
1B1
100
AcDbEntity
  8
Coord_Grid
  6
ByLayer
 62
  256
370
   -1
100
AcDbLine
 10
0.4999999999999946
 20
16.5
 11
33.5
 21
16.5
  0
MTEXT
  5
1B2
100
AcDbEntity
  8
Coord_Grid
  6
ByLayer
 62
  256
370
   -1
100
AcDbMText
 10
31.625
 20
2.999999999999999
 30
0
 40
1
 41
1.333333333333333
 71
    5
 72
    1
  1
A1
  7
romans
210
0
220
0
230
1
 50
0
 73
    2
 44
1
  0
MTEXT
  5
1B3
100
AcDbEntity
  8
Coord_Grid
  6
ByLayer
 62
  256
370
   -1
100
AcDbMText
 10
2.374999999999999
 20
2.999999999999999
 30
0
 40
1
 41
1.761904444444444
 71
    5
 72
    1
  1
A8
  7
romans
210
0
220
0
230
1
 50
0
 73
    2
 44
1
  0
MTEXT
  5
1B4
100
AcDbEntity
  8
Coord_Grid
  6
ByLayer
 62
  256
370
   -1
100
AcDbMText
 10
6.125000000000001
 20
2.999999999999999
 30
0
 40
1
 41
1.761904444444444
 71
    5
 72
    1
  1
A7
  7
romans
210
0
220
0
230
1
 50
0
 73
    2
 44
1
  0
MTEXT
  5
1B5
100
AcDbEntity
  8
Coord_Grid
  6
ByLayer
 62
  256
370
   -1
100
AcDbMText
 10
10.375
 20
2.999999999999999
 30
0
 40
1
 41
1.714285555555556
 71
    5
 72
    1
  1
A6
  7
romans
210
0
220
0
230
1
 50
0
 73
    2
 44
1
  0
MTEXT
  5
1B6
100
AcDbEntity
  8
Coord_Grid
  6
ByLayer
 62
  256
370
   -1
100
AcDbMText
 10
14.625
 20
2.999999999999999
 30
0
 40
1
 41
1.761904444444444
 71
    5
 72
    1
  1
A5
  7
romans
210
0
220
0
230
1
 50
0
 73
    2
 44
1
  0
MTEXT
  5
1B7
100
AcDbEntity
  8
Coord_Grid
  6
ByLayer
 62
  256
370
   -1
100
AcDbMText
 10
18.875
 20
2.999999999999999
 30
0
 40
1
 41
1.809523333333333
 71
    5
 72
    1
  1
A4
  7
romans
210
0
220
0
230
1
 50
0
 73
    2
 44
1
  0
MTEXT
  5
1B8
100
AcDbEntity
  8
Coord_Grid
  6
ByLayer
 62
  256
370
   -1
100
AcDbMText
 10
23.125
 20
2.999999999999999
 30
0
 40
1
 41
1.761904444444444
 71
    5
 72
    1
  1
A3
  7
romans
210
0
220
0
230
1
 50
0
 73
    2
 44
1
  0
MTEXT
  5
1B9
100
AcDbEntity
  8
Coord_Grid
  6
ByLayer
 62
  256
370
   -1
100
AcDbMText
 10
27.375
 20
2.999999999999999
 30
0
 40
1
 41
1.761904444444444
 71
    5
 72
    1
  1
A2
  7
romans
210
0
220
0
230
1
 50
0
 73
    2
 44
1
  0
MTEXT
  5
1BA
100
AcDbEntity
  8
Coord_Grid
  6
ByLayer
 62
  256
370
   -1
100
AcDbMText
 10
2.375
 20
19
 30
0
 40
1
 41
1.666666666666667
 71
    5
 72
    1
  1
D8
  7
romans
210
0
220
0
230
1
 50
0
 73
    2
 44
1
  0
MTEXT
  5
1BB
100
AcDbEntity
  8
Coord_Grid
  6
ByLayer
 62
  256
370
   -1
100
AcDbMText
 10
6.125
 20
19
 30
0
 40
1
 41
1.666666666666667
 71
    5
 72
    1
  1
D7
  7
romans
210
0
220
0
230
1
 50
0
 73
    2
 44
1
  0
MTEXT
  5
1BC
100
AcDbEntity
  8
Coord_Grid
  6
ByLayer
 62
  256
370
   -1
100
AcDbMText
 10
10.375
 20
19
 30
0
 40
1
 41
1.619047777777778
 71
    5
 72
    1
  1
D6
  7
romans
210
0
220
0
230
1
 50
0
 73
    2
 44
1
  0
MTEXT
  5
1BD
100
AcDbEntity
  8
Coord_Grid
  6
ByLayer
 62
  256
370
   -1
100
AcDbMText
 10
14.625
 20
19
 30
0
 40
1
 41
1.666666666666667
 71
    5
 72
    1
  1
D5
  7
romans
210
0
220
0
230
1
 50
0
 73
    2
 44
1
  0
MTEXT
  5
1BE
100
AcDbEntity
  8
Coord_Grid
  6
ByLayer
 62
  256
370
   -1
100
AcDbMText
 10
18.875
 20
19
 30
0
 40
1
 41
1.714285555555556
 71
    5
 72
    1
  1
D4
  7
romans
210
0
220
0
230
1
 50
0
 73
    2
 44
1
  0
MTEXT
  5
1BF
100
AcDbEntity
  8
Coord_Grid
  6
ByLayer
 62
  256
370
   -1
100
AcDbMText
 10
23.125
 20
19
 30
0
 40
1
 41
1.666666666666667
 71
    5
 72
    1
  1
D3
  7
romans
210
0
220
0
230
1
 50
0
 73
    2
 44
1
  0
MTEXT
  5
1C0
100
AcDbEntity
  8
Coord_Grid
  6
ByLayer
 62
  256
370
   -1
100
AcDbMText
 10
27.375
 20
19
 30
0
 40
1
 41
1.666666666666667
 71
    5
 72
    1
  1
D2
  7
romans
210
0
220
0
230
1
 50
0
 73
    2
 44
1
  0
MTEXT
  5
1C1
100
AcDbEntity
  8
Coord_Grid
  6
ByLayer
 62
  256
370
   -1
100
AcDbMText
 10
31.625
 20
19
 30
0
 40
1
 41
1.238095555555556
 71
    5
 72
    1
  1
D1
  7
romans
210
0
220
0
230
1
 50
0
 73
    2
 44
1
  0
MTEXT
  5
1C2
100
AcDbEntity
  8
Coord_Grid
  6
ByLayer
 62
  256
370
   -1
100
AcDbMText
 10
31.625
 20
14
 30
0
 40
1
 41
1.285714444444444
 71
    5
 72
    1
  1
C1
  7
romans
210
0
220
0
230
1
 50
0
 73
    2
 44
1
  0
MTEXT
  5
1C3
100
AcDbEntity
  8
Coord_Grid
  6
ByLayer
 62
  256
370
   -1
100
AcDbMText
 10
27.375
 20
14
 30
0
 40
1
 41
1.714285555555556
 71
    5
 72
    1
  1
C2
  7
romans
210
0
220
0
230
1
 50
0
 73
    2
 44
1
  0
MTEXT
  5
1C4
100
AcDbEntity
  8
Coord_Grid
  6
ByLayer
 62
  256
370
   -1
100
AcDbMText
 10
23.125
 20
14
 30
0
 40
1
 41
1.714285555555556
 71
    5
 72
    1
  1
C3
  7
romans
210
0
220
0
230
1
 50
0
 73
    2
 44
1
  0
MTEXT
  5
1C5
100
AcDbEntity
  8
Coord_Grid
  6
ByLayer
 62
  256
370
   -1
100
AcDbMText
 10
18.875
 20
14
 30
0
 40
1
 41
1.761904444444444
 71
    5
 72
    1
  1
C4
  7
romans
210
0
220
0
230
1
 50
0
 73
    2
 44
1
  0
MTEXT
  5
1C6
100
AcDbEntity
  8
Coord_Grid
  6
ByLayer
 62
  256
370
   -1
100
AcDbMText
 10
14.625
 20
14
 30
0
 40
1
 41
1.714285555555556
 71
    5
 72
    1
  1
C5
  7
romans
210
0
220
0
230
1
 50
0
 73
    2
 44
1
  0
MTEXT
  5
1C7
100
AcDbEntity
  8
Coord_Grid
  6
ByLayer
 62
  256
370
   -1
100
AcDbMText
 10
10.375
 20
14
 30
0
 40
1
 41
1.666666666666667
 71
    5
 72
    1
  1
C6
  7
romans
210
0
220
0
230
1
 50
0
 73
    2
 44
1
  0
MTEXT
  5
1C8
100
AcDbEntity
  8
Coord_Grid
  6
ByLayer
 62
  256
370
   -1
100
AcDbMText
 10
6.125
 20
14
 30
0
 40
1
 41
1.714285555555556
 71
    5
 72
    1
  1
C7
  7
romans
210
0
220
0
230
1
 50
0
 73
    2
 44
1
  0
MTEXT
  5
1C9
100
AcDbEntity
  8
Coord_Grid
  6
ByLayer
 62
  256
370
   -1
100
AcDbMText
 10
2.375
 20
14
 30
0
 40
1
 41
1.714285555555556
 71
    5
 72
    1
  1
C8
  7
romans
210
0
220
0
230
1
 50
0
 73
    2
 44
1
  0
MTEXT
  5
1CA
100
AcDbEntity
  8
Coord_Grid
  6
ByLayer
 62
  256
370
   -1
100
AcDbMText
 10
31.625
 20
8.5
 30
0
 40
1
 41
1.238095555555556
 71
    5
 72
    1
  1
B1
  7
romans
210
0
220
0
230
1
 50
0
 73
    2
 44
1
  0
MTEXT
  5
1CB
100
AcDbEntity
  8
Coord_Grid
  6
ByLayer
 62
  256
370
   -1
100
AcDbMText
 10
27.375
 20
8.5
 30
0
 40
1
 41
1.666666666666667
 71
    5
 72
    1
  1
B2
  7
romans
210
0
220
0
230
1
 50
0
 73
    2
 44
1
  0
MTEXT
  5
1CC
100
AcDbEntity
  8
Coord_Grid
  6
ByLayer
 62
  256
370
   -1
100
AcDbMText
 10
23.125
 20
8.5
 30
0
 40
1
 41
1.666666666666667
 71
    5
 72
    1
  1
B3
  7
romans
210
0
220
0
230
1
 50
0
 73
    2
 44
1
  0
MTEXT
  5
1CD
100
AcDbEntity
  8
Coord_Grid
  6
ByLayer
 62
  256
370
   -1
100
AcDbMText
 10
18.875
 20
8.5
 30
0
 40
1
 41
1.714285555555556
 71
    5
 72
    1
  1
B4
  7
romans
210
0
220
0
230
1
 50
0
 73
    2
 44
1
  0
MTEXT
  5
1CE
100
AcDbEntity
  8
Coord_Grid
  6
ByLayer
 62
  256
370
   -1
100
AcDbMText
 10
14.625
 20
8.5
 30
0
 40
1
 41
1.666666666666667
 71
    5
 72
    1
  1
B5
  7
romans
210
0
220
0
230
1
 50
0
 73
    2
 44
1
  0
MTEXT
  5
1CF
100
AcDbEntity
  8
Coord_Grid
  6
ByLayer
 62
  256
370
   -1
100
AcDbMText
 10
10.375
 20
8.5
 30
0
 40
1
 41
1.619047777777778
 71
    5
 72
    1
  1
B6
  7
romans
210
0
220
0
230
1
 50
0
 73
    2
 44
1
  0
MTEXT
  5
1D0
100
AcDbEntity
  8
Coord_Grid
  6
ByLayer
 62
  256
370
   -1
100
AcDbMText
 10
6.125
 20
8.5
 30
0
 40
1
 41
1.666666666666667
 71
    5
 72
    1
  1
B7
  7
romans
210
0
220
0
230
1
 50
0
 73
    2
 44
1
  0
MTEXT
  5
1D1
100
AcDbEntity
  8
Coord_Grid
  6
ByLayer
 62
  256
370
   -1
100
AcDbMText
 10
2.375
 20
8.5
 30
0
 40
1
 41
1.666666666666667
 71
    5
 72
    1
  1
B8
  7
romans
210
0
220
0
230
1
 50
0
 73
    2
 44
1
  0
MTEXT
  5
1D2
100
AcDbEntity
  8
Title_Block_Text
  6
ByLayer
 62
  256
370
   -1
100
AcDbMText
 10
32.83
 20
0.6250000000000001
 30
0
 40
0.15
 41
0.5964286666666667
 71
    5
 72
    1
  1
1 of 1
  7
romans
210
0
220
0
230
1
 50
0
 73
    2
 44
1
  0
LINE
  5
1D3
100
AcDbEntity
  8
Formating
  6
ByLayer
 62
  256
370
   -1
100
AcDbLine
 10
29.64
 20
0.5
 11
30.25
 21
0.75
  0
LINE
  5
1D4
100
AcDbEntity
  8
Formating
  6
ByLayer
 62
  256
370
   -1
100
AcDbLine
 10
30.25
 20
0.75
 11
31.75
 21
0.5
  0
LINE
  5
1D5
100
AcDbEntity
  8
Formating
  6
ByLayer
 62
  256
370
   -1
100
AcDbLine
 10
31.75
 20
0.75
 11
30.25
 21
0.5
  0
LINE
  5
1D6
100
AcDbEntity
  8
Formating
  6
ByLayer
 62
  256
370
   -1
100
AcDbLine
 10
29.63
 20
0.7500000000000001
 11
30.75
 21
1
  0
LINE
  5
1D7
100
AcDbEntity
  8
Formating
  6
ByLayer
 62
  256
370
   -1
100
AcDbLine
 10
33.12
 20
1
 11
30.75
 21
0.75
  0
LINE
  5
1D8
100
AcDbEntity
  8
Formating
  6
ByLayer
 62
  256
370
   -1
100
AcDbLine
 10
33.12
 20
0.75
 11
33.5
 21
1
  0
LINE
  5
1D9
100
AcDbEntity
  8
Formating
  6
ByLayer
 62
  256
370
   -1
100
AcDbLine
 10
29.25
 20
1.119999999999999
 11
33.5
 21
1.77
  0
LINE
  5
1DA
100
AcDbEntity
  8
Formating
  6
ByLayer
 62
  256
370
   -1
100
AcDbLine
 10
33.5
 20
2.5
 11
29.25
 21
1.879999999999999
  0
LINE
  5
1DB
100
AcDbEntity
  8
Formating
  6
ByLayer
 62
  256
370
   -1
100
AcDbLine
 10
27.25
 20
2.350000000000001
 11
28.35
 21
2.0625
  0
LINE
  5
1DC
100
AcDbEntity
  8
Formating
  6
ByLayer
 62
  256
370
   -1
100
AcDbLine
 10
28.35
 20
2.350000000000001
 11
27.25
 21
2.0625
  0
LINE
  5
1DD
100
AcDbEntity
  8
Formating
  6
ByLayer
 62
  256
370
   -1
100
AcDbLine
 10
28.35
 20
2.350000000000001
 11
29.25
 21
2.0625
  0
LINE
  5
1DE
100
AcDbEntity
  8
Formating
  6
ByLayer
 62
  256
370
   -1
100
AcDbLine
 10
29.25
 20
2.35
 11
28.35
 21
2.0625
  0
LINE
  5
1DF
100
AcDbEntity
  8
Formating
  6
ByLayer
 62
  256
370
   -1
100
AcDbLine
 10
27.25
 20
1.912500000000001
 11
29.25
 21
1.912500000000001
  0
LINE
  5
1E0
100
AcDbEntity
  8
Formating
  6
ByLayer
 62
  256
370
   -1
100
AcDbLine
 10
27.25
 20
1.912500000000001
 11
28.35
 21
1.625
  0
LINE
  5
1E1
100
AcDbEntity
  8
Formating
  6
ByLayer
 62
  256
370
   -1
100
AcDbLine
 10
28.35
 20
1.912500000000001
 11
27.25
 21
1.625
  0
LINE
  5
1E2
100
AcDbEntity
  8
Formating
  6
ByLayer
 62
  256
370
   -1
100
AcDbLine
 10
28.35
 20
1.912500000000001
 11
29.25
 21
1.625
  0
LINE
  5
1E3
100
AcDbEntity
  8
Formating
  6
ByLayer
 62
  256
370
   -1
100
AcDbLine
 10
29.25
 20
1.912500000000001
 11
28.35
 21
1.625
  0
LINE
  5
1E4
100
AcDbEntity
  8
Formating
  6
ByLayer
 62
  256
370
   -1
100
AcDbLine
 10
27.25
 20
1.475000000000001
 11
29.25
 21
1.475000000000001
  0
LINE
  5
1E5
100
AcDbEntity
  8
Formating
  6
ByLayer
 62
  256
370
   -1
100
AcDbLine
 10
27.25
 20
1.475000000000001
 11
28.35
 21
1.1875
  0
LINE
  5
1E6
100
AcDbEntity
  8
Formating
  6
ByLayer
 62
  256
370
   -1
100
AcDbLine
 10
28.35
 20
1.475000000000001
 11
27.25
 21
1.1875
  0
LINE
  5
1E7
100
AcDbEntity
  8
Formating
  6
ByLayer
 62
  256
370
   -1
100
AcDbLine
 10
28.35
 20
1.475000000000001
 11
29.25
 21
1.1875
  0
LINE
  5
1E8
100
AcDbEntity
  8
Formating
  6
ByLayer
 62
  256
370
   -1
100
AcDbLine
 10
29.25
 20
1.475000000000001
 11
28.35
 21
1.1875
  0
LINE
  5
1E9
100
AcDbEntity
  8
Formating
  6
ByLayer
 62
  256
370
   -1
100
AcDbLine
 10
27.25
 20
1.037500000000001
 11
29.25
 21
1.037500000000001
  0
LINE
  5
1EA
100
AcDbEntity
  8
Formating
  6
ByLayer
 62
  256
370
   -1
100
AcDbLine
 10
27.25
 20
1.037500000000001
 11
28.35
 21
0.7500000000000004
  0
LINE
  5
1EB
100
AcDbEntity
  8
Formating
  6
ByLayer
 62
  256
370
   -1
100
AcDbLine
 10
28.35
 20
1.037500000000001
 11
27.25
 21
0.7500000000000004
  0
LINE
  5
1EC
100
AcDbEntity
  8
Formating
  6
ByLayer
 62
  256
370
   -1
100
AcDbLine
 10
28.35
 20
1.037500000000001
 11
29.25
 21
0.7500000000000004
  0
LINE
  5
1ED
100
AcDbEntity
  8
Formating
  6
ByLayer
 62
  256
370
   -1
100
AcDbLine
 10
29.25
 20
1.037500000000001
 11
28.35
 21
0.7500000000000004
  0
MTEXT
  5
1EE
100
AcDbEntity
  8
Title_Block_Text
  6
ByLayer
 62
  256
370
   -1
100
AcDbMText
 10
27.8
 20
0.9000000000000001
 30
0
 40
0.08
 41
0.9971429333333335
 71
    5
 72
    1
  1
WILLIAM FRIEDEL
  7
romans
210
0
220
0
230
1
 50
0
 73
    2
 44
1
  0
MTEXT
  5
1EF
100
AcDbEntity
  8
Title_Block_Text
  6
ByLayer
 62
  256
370
   -1
100
AcDbMText
 10
27.8
 20
1.3375
 30
0
 40
0.08
 41
0.9971429333333335
 71
    5
 72
    1
  1
WILLIAM FRIEDEL
  7
romans
210
0
220
0
230
1
 50
0
 73
    2
 44
1
  0
LINE
  5
1F0
100
AcDbEntity
  8
Formating
  6
ByLayer
 62
  256
370
   -1
100
AcDbLine
 10
33.5
 20
0.75
 11
32.16
 21
0.5
  0
MTEXT
  5
1F1
100
AcDbEntity
  8
Title_Block_Text
  6
ByLayer
 62
  256
370
   -1
100
AcDbMText
 10
28.30000000000001
 20
20.875
 30
0
 40
0.08
 41
0.9819048000000001
 71
    5
 72
    1
  1
INITIAL RELEASE
  7
romans
210
0
220
0
230
1
 50
0
 73
    2
 44
1
  0
MTEXT
  5
1F2
100
AcDbEntity
  8
Title_Block_Text
  6
ByLayer
 62
  256
370
   -1
100
AcDbMText
 10
32.89999999999998
 20
20.875
 30
0
 40
0.08
 41
0.2361904888888889
 71
    5
 72
    1
  1
WGF
  7
romans
210
0
220
0
230
1
 50
0
 73
    2
 44
1
  0
MTEXT
  5
1F3
100
AcDbEntity
  8
Title_Block_Text
  6
ByLayer
 62
  256
370
   -1
100
AcDbMText
 10
25.3
 20
20.875
 30
0
 40
0.08
 41
0.06857146666666666
 71
    5
 72
    1
  1
-
  7
romans
210
0
220
0
230
1
 50
0
 73
    2
 44
1
  0
LINE
  5
1F4
100
AcDbEntity
  8
Title_Block
  6
ByLayer
 62
  256
370
   -1
100
AcDbLine
 10
33.5
 20
21
 11
31.1
 21
21
  0
LINE
  5
1F5
100
AcDbEntity
  8
Title_Block
  6
ByLayer
 62
  256
370
   -1
100
AcDbLine
 10
31.1
 20
21
 11
25.5
 21
21
  0
LINE
  5
1F6
100
AcDbEntity
  8
Title_Block
  6
ByLayer
 62
  256
370
   -1
100
AcDbLine
 10
33.5
 20
21.25
 11
31.1
 21
21.25
  0
LINE
  5
1F7
100
AcDbEntity
  8
Title_Block
  6
ByLayer
 62
  256
370
   -1
100
AcDbLine
 10
31.1
 20
21.25
 11
25.5
 21
21.25
  0
LINE
  5
1F8
100
AcDbEntity
  8
Title_Block
  6
ByLayer
 62
  256
370
   -1
100
AcDbLine
 10
25.5
 20
21.25
 11
25.5
 21
21
  0
LINE
  5
1F9
100
AcDbEntity
  8
Title_Block
  6
ByLayer
 62
  256
370
   -1
100
AcDbLine
 10
25.5
 20
21
 11
25.1
 21
21
  0
LINE
  5
1FA
100
AcDbEntity
  8
Title_Block
  6
ByLayer
 62
  256
370
   -1
100
AcDbLine
 10
25.1
 20
21
 11
25.1
 21
21.5
  0
LINE
  5
1FB
100
AcDbEntity
  8
Title_Block
  6
ByLayer
 62
  256
370
   -1
100
AcDbLine
 10
25.5
 20
21.25
 11
25.1
 21
21.25
  0
LINE
  5
1FC
100
AcDbEntity
  8
Title_Block
  6
ByLayer
 62
  256
370
   -1
100
AcDbLine
 10
32.3
 20
21.25
 11
32.3
 21
21
  0
LINE
  5
1FD
100
AcDbEntity
  8
Title_Block
  6
ByLayer
 62
  256
370
   -1
100
AcDbLine
 10
31.1
 20
21.25
 11
31.1
 21
21
  0
MTEXT
  5
1FE
100
AcDbEntity
  8
Title_Block
  6
ByLayer
 62
  256
370
   -1
100
AcDbMText
 10
25.2
 20
21.16
 30
0
 40
0.075
 41
0.2035714166666667
 71
    1
 72
    1
  1
REV
  7
romans
210
0
220
0
230
1
 50
0
 73
    2
 44
1
  0
MTEXT
  5
1FF
100
AcDbEntity
  8
Title_Block
  6
ByLayer
 62
  256
370
   -1
100
AcDbMText
 10
28
 20
21.16
 30
0
 40
0.075
 41
0.7071428333333334
 71
    1
 72
    1
  1
DESCRIPTION
  7
romans
210
0
220
0
230
1
 50
0
 73
    2
 44
1
  0
MTEXT
  5
200
100
AcDbEntity
  8
Title_Block
  6
ByLayer
 62
  256
370
   -1
100
AcDbMText
 10
31.58
 20
21.16
 30
0
 40
0.075
 41
0.2785714166666667
 71
    1
 72
    1
  1
DATE
  7
romans
210
0
220
0
230
1
 50
0
 73
    2
 44
1
  0
MTEXT
  5
201
100
AcDbEntity
  8
Title_Block
  6
ByLayer
 62
  256
370
   -1
100
AcDbMText
 10
32.64
 20
21.16
 30
0
 40
0.075
 41
0.5928570833333334
 71
    1
 72
    1
  1
APPROVED
  7
romans
210
0
220
0
230
1
 50
0
 73
    2
 44
1
  0
MTEXT
  5
202
100
AcDbEntity
  8
Title_Block
  6
ByLayer
 62
  256
370
   -1
100
AcDbMText
 10
28.9
 20
21.42
 30
0
 40
0.075
 41
1.031249916666667
 71
    1
 72
    1
  1
REVISION HISTORY
  7
romans
210
0
220
0
230
1
 50
0
 73
    2
 44
1
  0
LINE
  5
203
100
AcDbEntity
  8
Title_Block
  6
ByLayer
 62
  256
370
   -1
100
AcDbLine
 10
33.5
 20
20.75
 11
31.1
 21
20.75
  0
LINE
  5
204
100
AcDbEntity
  8
Title_Block
  6
ByLayer
 62
  256
370
   -1
100
AcDbLine
 10
31.1
 20
20.75
 11
25.5
 21
20.75
  0
LINE
  5
205
100
AcDbEntity
  8
Title_Block
  6
ByLayer
 62
  256
370
   -1
100
AcDbLine
 10
25.5
 20
21
 11
25.5
 21
20.75
  0
LINE
  5
206
100
AcDbEntity
  8
Title_Block
  6
ByLayer
 62
  256
370
   -1
100
AcDbLine
 10
25.5
 20
20.75
 11
25.1
 21
20.75
  0
LINE
  5
207
100
AcDbEntity
  8
Title_Block
  6
ByLayer
 62
  256
370
   -1
100
AcDbLine
 10
32.3
 20
21
 11
32.3
 21
20.75
  0
LINE
  5
208
100
AcDbEntity
  8
Title_Block
  6
ByLayer
 62
  256
370
   -1
100
AcDbLine
 10
31.1
 20
21
 11
31.1
 21
20.75
  0
LINE
  5
209
100
AcDbEntity
  8
Title_Block
  6
ByLayer
 62
  256
370
   -1
100
AcDbLine
 10
25.1
 20
21
 11
25.1
 21
20.75
  0
LINE
  5
20A
100
AcDbEntity
  8
Title_Block
  6
ByLayer
 62
  256
370
   -1
100
AcDbLine
 10
33.5
 20
20.5
 11
31.1
 21
20.5
  0
LINE
  5
20B
100
AcDbEntity
  8
Title_Block
  6
ByLayer
 62
  256
370
   -1
100
AcDbLine
 10
31.1
 20
20.5
 11
25.5
 21
20.5
  0
LINE
  5
20C
100
AcDbEntity
  8
Title_Block
  6
ByLayer
 62
  256
370
   -1
100
AcDbLine
 10
25.5
 20
20.75
 11
25.5
 21
20.5
  0
LINE
  5
20D
100
AcDbEntity
  8
Title_Block
  6
ByLayer
 62
  256
370
   -1
100
AcDbLine
 10
25.5
 20
20.5
 11
25.1
 21
20.5
  0
LINE
  5
20E
100
AcDbEntity
  8
Title_Block
  6
ByLayer
 62
  256
370
   -1
100
AcDbLine
 10
32.3
 20
20.75
 11
32.3
 21
20.5
  0
LINE
  5
20F
100
AcDbEntity
  8
Title_Block
  6
ByLayer
 62
  256
370
   -1
100
AcDbLine
 10
31.1
 20
20.75
 11
31.1
 21
20.5
  0
LINE
  5
210
100
AcDbEntity
  8
Title_Block
  6
ByLayer
 62
  256
370
   -1
100
AcDbLine
 10
25.1
 20
20.75
 11
25.1
 21
20.5
  0
LINE
  5
211
100
AcDbEntity
  8
Title_Block
  6
ByLayer
 62
  256
370
   -1
100
AcDbLine
 10
33.5
 20
21
 11
33.5
 21
21.5
  0
LINE
  5
212
100
AcDbEntity
  8
Formating
  6
ByLayer
 62
  256
370
   -1
100
AcDbLine
 10
25.1
 20
21
 11
25.5
 21
20.75
  0
LINE
  5
213
100
AcDbEntity
  8
Formating
  6
ByLayer
 62
  256
370
   -1
100
AcDbLine
 10
25.5
 20
21
 11
31.1
 21
20.75
  0
LINE
  5
214
100
AcDbEntity
  8
Formating
  6
ByLayer
 62
  256
370
   -1
100
AcDbLine
 10
31.1
 20
21
 11
32.3
 21
20.75
  0
LINE
  5
215
100
AcDbEntity
  8
Formating
  6
ByLayer
 62
  256
370
   -1
100
AcDbLine
 10
32.3
 20
21
 11
33.5
 21
20.75
  0
LINE
  5
216
100
AcDbEntity
  8
Formating
  6
ByLayer
 62
  256
370
   -1
100
AcDbLine
 10
25.5
 20
21
 11
25.1
 21
20.75
  0
LINE
  5
217
100
AcDbEntity
  8
Formating
  6
ByLayer
 62
  256
370
   -1
100
AcDbLine
 10
25.5
 20
20.75
 11
31.1
 21
21
  0
LINE
  5
218
100
AcDbEntity
  8
Formating
  6
ByLayer
 62
  256
370
   -1
100
AcDbLine
 10
32.3
 20
21
 11
31.10000000000002
 21
20.75
  0
LINE
  5
219
100
AcDbEntity
  8
Formating
  6
ByLayer
 62
  256
370
   -1
100
AcDbLine
 10
33.5
 20
21
 11
32.3
 21
20.75
  0
MTEXT
  5
21A
100
AcDbEntity
  8
Title_Block
  6
ByLayer
 62
  256
370
   -1
100
AcDbMText
 10
28.25
 20
0.6250000000000001
 30
0
 40
0.08
 41
0.7161904
 71
    5
 72
    1
  1
APPROVALS
  7
romans
210
0
220
0
230
1
 50
0
 73
    2
 44
1
  0
LINE
  5
21B
100
AcDbEntity
  8
Formating
  6
ByLayer
 62
  256
370
   -1
100
AcDbLine
 10
27.25
 20
2.75
 11
25.88
 21
2.5
  0
LINE
  5
21C
100
AcDbEntity
  8
Formating
  6
ByLayer
 62
  256
370
   -1
100
AcDbLine
 10
25.88
 20
2.75
 11
24.5
 21
2.5
  0
LINE
  5
21D
100
AcDbEntity
  8
Formating
  6
ByLayer
 62
  256
370
   -1
100
AcDbLine
 10
27.25
 20
2.5
 11
25.88
 21
2.25
  0
LINE
  5
21E
100
AcDbEntity
  8
Formating
  6
ByLayer
 62
  256
370
   -1
100
AcDbLine
 10
25.88
 20
2.5
 11
24.5
 21
2.25
  0
LINE
  5
21F
100
AcDbEntity
  8
Formating
  6
ByLayer
 62
  256
370
   -1
100
AcDbLine
 10
27.25
 20
2.25
 11
25.88
 21
2
  0
LINE
  5
220
100
AcDbEntity
  8
Formating
  6
ByLayer
 62
  256
370
   -1
100
AcDbLine
 10
25.88
 20
2.25
 11
24.5
 21
2
  0
LINE
  5
221
100
AcDbEntity
  8
Formating
  6
ByLayer
 62
  256
370
   -1
100
AcDbLine
 10
27.25
 20
2
 11
25.88
 21
1.75
  0
LINE
  5
222
100
AcDbEntity
  8
Formating
  6
ByLayer
 62
  256
370
   -1
100
AcDbLine
 10
25.88
 20
2
 11
24.5
 21
1.75
  0
LINE
  5
223
100
AcDbEntity
  8
Formating
  6
ByLayer
 62
  256
370
   -1
100
AcDbLine
 10
27.25
 20
1.75
 11
25.88
 21
1.5
  0
LINE
  5
224
100
AcDbEntity
  8
Formating
  6
ByLayer
 62
  256
370
   -1
100
AcDbLine
 10
25.88
 20
1.75
 11
24.5
 21
1.5
  0
LINE
  5
225
100
AcDbEntity
  8
Formating
  6
ByLayer
 62
  256
370
   -1
100
AcDbLine
 10
27.26
 20
1.500000000000001
 11
25.89
 21
1.250000000000001
  0
LINE
  5
226
100
AcDbEntity
  8
Formating
  6
ByLayer
 62
  256
370
   -1
100
AcDbLine
 10
25.89
 20
1.500000000000001
 11
24.51
 21
1.250000000000001
  0
LINE
  5
227
100
AcDbEntity
  8
Formating
  6
ByLayer
 62
  256
370
   -1
100
AcDbLine
 10
27.25
 20
1.25
 11
25.88
 21
1
  0
LINE
  5
228
100
AcDbEntity
  8
Formating
  6
ByLayer
 62
  256
370
   -1
100
AcDbLine
 10
25.88
 20
1.25
 11
24.5
 21
1
  0
LINE
  5
229
100
AcDbEntity
  8
delete_me
  6
ByLayer
 62
  256
370
   -1
100
AcDbLine
 10
24.7
 20
13.9
 11
26.8
 21
15.5
  0
LINE
  5
22A
100
AcDbEntity
  8
delete_me
  6
ByLayer
 62
  256
370
   -1
100
AcDbLine
 10
25.8
 20
15.5
 11
27.9
 21
15.5
  0
CIRCLE
  5
22B
100
AcDbEntity
  8
delete_me
  6
ByLayer
 62
  256
370
   -1
100
AcDbCircle
 10
24.7
 20
13.9
 40
0.282842712474618
  0
MTEXT
  5
22C
100
AcDbEntity
  8
delete_me
  6
ByLayer
 62
  256
370
   -1
100
AcDbMText
 10
27.27500008333334
 20
16.05
 30
0
 40
0.15
 41
3.805357983333335
 71
    5
 72
    1
  1
This would be something like the\P Windford proto board that clips\P to the din rail and has TBS on\P both sides
  7
romans
210
0
220
0
230
1
 50
0
 73
    2
 44
1
  0
LINE
  5
22D
100
AcDbEntity
  8
delete_me
  6
ByLayer
 62
  256
370
   -1
100
AcDbLine
 10
31.1
 20
14
 11
36.1
 21
10.8
  0
LINE
  5
22E
100
AcDbEntity
  8
delete_me
  6
ByLayer
 62
  256
370
   -1
100
AcDbLine
 10
36.1
 20
10.8
 11
31.1
 21
9.000000000000002
  0
MTEXT
  5
22F
100
AcDbEntity
  8
delete_me
  6
ByLayer
 62
  256
370
   -1
100
AcDbMText
 10
38.9
 20
10.8
 30
0
 40
0.15
 41
5.414286983333335
 71
    5
 72
    1
  1
It is sometimes a good idea to split up\Pjacks, plugs, or tbs to keep the drawing clean\Pthese are the same jack coming out of unit 1
  7
romans
210
0
220
0
230
1
 50
0
 73
    2
 44
1
  0
LINE
  5
230
100
AcDbEntity
  8
delete_me
  6
ByLayer
 62
  256
370
   -1
100
AcDbLine
 10
25.7
 20
7.9
 11
27.2
 21
5.9
  0
LINE
  5
231
100
AcDbEntity
  8
delete_me
  6
ByLayer
 62
  256
370
   -1
100
AcDbLine
 10
27.2
 20
5.9
 11
25.8
 21
5.9
  0
CIRCLE
  5
232
100
AcDbEntity
  8
delete_me
  6
ByLayer
 62
  256
370
   -1
100
AcDbCircle
 10
25.6
 20
7.9
 40
0.3162277660168385
  0
CIRCLE
  5
233
100
AcDbEntity
  8
delete_me
  6
ByLayer
 62
  256
370
   -1
100
AcDbCircle
 10
22.6
 20
14.6
 40
0.5830951894845295
  0
MTEXT
  5
234
100
AcDbEntity
  8
delete_me
  6
ByLayer
 62
  256
370
   -1
100
AcDbMText
 10
21.8
 20
13.5
 30
0
 40
0.15
 41
2.039285883333333
 71
    5
 72
    1
  1
Full Ref: 01A1A1R2
  7
romans
210
0
220
0
230
1
 50
0
 73
    2
 44
1
  0
LINE
  5
235
100
AcDbEntity
  8
delete_me
  6
ByLayer
 62
  256
370
   -1
100
AcDbLine
 10
22.5
 20
14
 11
22.1
 21
13.6
  0
MTEXT
  5
236
100
AcDbEntity
  8
delete_me
  6
ByLayer
 62
  256
370
   -1
100
AcDbMText
 10
7
 20
10
 30
0
 40
0.15
 41
4.066072216666668
 71
    5
 72
    1
  1
These are modular. They have\Pa top, middle and bottom.\PCopy and paste to make as big or\Psmall of a connector as you need
  7
romans
210
0
220
0
230
1
 50
0
 73
    2
 44
1
  0
LINE
  5
237
100
AcDbEntity
  8
delete_me
  6
ByLayer
 62
  256
370
   -1
100
AcDbLine
 10
7.4
 20
13.8
 11
6.5
 21
10.6
  0
LINE
  5
238
100
AcDbEntity
  8
delete_me
  6
ByLayer
 62
  256
370
   -1
100
AcDbLine
 10
6.5
 20
10.6
 11
7.500000000000001
 21
11.8
  0
MTEXT
  5
239
100
AcDbEntity
  8
delete_me
  6
ByLayer
 62
  256
370
   -1
100
AcDbMText
 10
15.7
 20
15.1
 30
0
 40
0.15
 41
4.546429100000003
 71
    5
 72
    1
  1
Off sheet Ref on a differenmt drawing
  7
romans
210
0
220
0
230
1
 50
0
 73
    2
 44
1
  0
MTEXT
  5
23A
100
AcDbEntity
  8
delete_me
  6
ByLayer
 62
  256
370
   -1
100
AcDbMText
 10
13.9
 20
14.6
 30
0
 40
0.15
 41
4.153572050000001
 71
    5
 72
    1
  1
Off sheet Ref on the same drawing
  7
romans
210
0
220
0
230
1
 50
0
 73
    2
 44
1
  0
MTEXT
  5
23B
100
AcDbEntity
  8
delete_me
  6
ByLayer
 62
  256
370
   -1
100
AcDbMText
 10
19
 20
19
 30
0
 40
0.15
 41
7.762501650000001
 71
    5
 72
    1
  1
These TBs are the kind that are found on PCBs, not the din ones
  7
romans
210
0
220
0
230
1
 50
0
 73
    2
 44
1
  0
LINE
  5
23C
100
AcDbEntity
  8
delete_me
  6
ByLayer
 62
  256
370
   -1
100
AcDbLine
 10
15.2
 20
18.8
 11
22.8
 21
18.8
  0
LINE
  5
23D
100
AcDbEntity
  8
delete_me
  6
ByLayer
 62
  256
370
   -1
100
AcDbLine
 10
20.2
 20
15.2
 11
17.4
 21
18.8
  0
CIRCLE
  5
23E
100
AcDbEntity
  8
delete_me
  6
ByLayer
 62
  256
370
   -1
100
AcDbCircle
 10
20.2
 20
15.2
 40
0.223606797749979
  0
MTEXT
  5
23F
100
AcDbEntity
  8
delete_me
  6
ByLayer
 62
  256
370
   -1
100
AcDbMText
 10
-4
 20
16
 30
0
 40
0.15
 41
5.408929816666667
 71
    5
 72
    1
  1
You dont have to put ALL of the black boxes \Ppins on one sheet, in fact you shouldnt\Psplit up signals and power on different sheets
  7
romans
210
0
220
0
230
1
 50
0
 73
    2
 44
1
  0
LINE
  5
240
100
AcDbEntity
  8
delete_me
  6
ByLayer
 62
  256
370
   -1
100
AcDbLine
 10
-6.7
 20
15.5
 11
-1.2
 21
15.5
  0
LINE
  5
241
100
AcDbEntity
  8
delete_me
  6
ByLayer
 62
  256
370
   -1
100
AcDbLine
 10
-4.2
 20
15.5
 11
3.200000000000001
 21
13
  0
MTEXT
  5
242
100
AcDbEntity
  8
delete_me
  6
ByLayer
 62
  256
370
   -1
100
AcDbMText
 10
7.4
 20
6.800000000000001
 30
0
 40
0.15
 41
3.833929333333335
 71
    5
 72
    1
  1
All of these are bussed together
  7
romans
210
0
220
0
230
1
 50
0
 73
    2
 44
1
  0
MTEXT
  5
243
100
AcDbEntity
  8
delete_me
  6
ByLayer
 62
  256
370
   -1
100
AcDbMText
 10
9.328571908333334
 20
3.975000000000001
 30
0
 40
0.15
 41
7.614287150000001
 71
    5
 72
    1
  1
All of these are seperate, although A to B still has a connection
  7
romans
210
0
220
0
230
1
 50
0
 73
    2
 44
1
  0
MTEXT
  5
244
100
AcDbEntity
  8
delete_me
  6
ByLayer
 62
  256
370
   -1
100
AcDbMText
 10
8
 20
5.4
 30
0
 40
0.15
 41
3.605357716666667
 71
    5
 72
    1
  1
Hybrids of these 2 are allowed
  7
romans
210
0
220
0
230
1
 50
0
 73
    2
 44
1
  0
LINE
  5
245
100
AcDbEntity
  8
delete_me
  6
ByLayer
 62
  256
370
   -1
100
AcDbLine
 10
5.5
 20
6.100000000000001
 11
6.100000000000001
 21
5.4
  0
LINE
  5
246
100
AcDbEntity
  8
delete_me
  6
ByLayer
 62
  256
370
   -1
100
AcDbLine
 10
6.100000000000001
 20
5.4
 11
5.5
 21
4.8
  0
MTEXT
  5
247
100
AcDbEntity
  8
delete_me
  6
ByLayer
 62
  256
370
   -1
100
AcDbMText
 10
4.5
 20
8.400000000000002
 30
0
 40
0.15
 41
5.051787050000001
 71
    5
 72
    1
  1
These are modular like the plugs and jacks
  7
romans
210
0
220
0
230
1
 50
0
 73
    2
 44
1
  0
MTEXT
  5
248
100
AcDbEntity
  8
delete_me
  6
ByLayer
 62
  256
370
   -1
100
AcDbMText
 10
25.46785710833333
 20
7.075
 30
0
 40
0.15
 41
1.80357155
 71
    5
 72
    1
  1
Full Ref: 01A2A1
  7
romans
210
0
220
0
230
1
 50
0
 73
    2
 44
1
  0
MTEXT
  5
249
100
AcDbEntity
  8
delete_me
  6
ByLayer
 62
  256
370
   -1
100
AcDbMText
 10
20.4
 20
4.2
 30
0
 40
0.15
 41
5.687500816666668
 71
    5
 72
    1
  1
Notice the arragment of numbers, if they where\Pin order they would be many crossed wires,\Pavoid crossed wires like you strange uncle at\Pthe family gathering
  7
romans
210
0
220
0
230
1
 50
0
 73
    2
 44
1
  0
LINE
  5
24A
100
AcDbEntity
  8
delete_me
  6
ByLayer
 62
  256
370
   -1
100
AcDbLine
 10
23.9
 20
7.7
 11
21.6
 21
4.8
  0
LINE
  5
24B
100
AcDbEntity
  8
delete_me
  6
ByLayer
 62
  256
370
   -1
100
AcDbLine
 10
21.6
 20
4.8
 11
23.9
 21
8.300000000000001
  0
LINE
  5
24C
100
AcDbEntity
  8
delete_me
  6
ByLayer
 62
  256
370
   -1
100
AcDbLine
 10
21.60000000000001
 20
4.800000000000013
 11
23.9
 21
8.699999999999999
  0
MTEXT
  5
24D
100
AcDbEntity
  8
delete_me
  6
ByLayer
 62
  256
370
   -1
100
AcDbMText
 10
16.4
 20
12.1
 30
0
 40
0.15
 41
6.035715249999999
 71
    5
 72
    1
  1
I typically like to see the entire TB on one drawing\PTBs do get a little confusing if the span multiple\Pdrawings ,  so draw all of it like this and off sheet\Pref the connections
  7
romans
210
0
220
0
230
1
 50
0
 73
    2
 44
1
  0
LINE
  5
24E
100
AcDbEntity
  8
delete_me
  6
ByLayer
 62
  256
370
   -1
100
AcDbLine
 10
16.6
 20
11.5
 11
20.7
 21
10.2
  0
LINE
  5
24F
100
AcDbEntity
  8
delete_me
  6
ByLayer
 62
  256
370
   -1
100
AcDbLine
 10
16.6
 20
11.5
 11
16.9
 21
10.3
  0
MTEXT
  5
250
100
AcDbEntity
  8
delete_me
  6
ByLayer
 62
  256
370
   -1
100
AcDbMText
 10
33.5
 20
5.7
 30
0
 40
0.15
 41
4.571429316666668
 71
    5
 72
    1
  1
No need for wire numbers if in a cable
  7
romans
210
0
220
0
230
1
 50
0
 73
    2
 44
1
  0
LINE
  5
251
100
AcDbEntity
  8
delete_me
  6
ByLayer
 62
  256
370
   -1
100
AcDbLine
 10
32.6
 20
5.9
 11
30.6
 21
6.600000000000001
  0
MTEXT
  5
252
100
AcDbEntity
  8
delete_me
  6
ByLayer
 62
  256
370
   -1
100
AcDbMText
 10
33
 20
4
 30
0
 40
0.15
 41
5.571429816666667
 71
    5
 72
    1
  1
This could be some kind of custom \Pserial cable, a standard cable would come up in\Pa different setting, see sheet 2
  7
romans
210
0
220
0
230
1
 50
0
 73
    2
 44
1
  0
LINE
  5
253
100
AcDbEntity
  8
delete_me
  6
ByLayer
 62
  256
370
   -1
100
AcDbLine
 10
29
 20
7.112701665379259
 11
32.9
 21
4.4
  0
MTEXT
  5
254
100
AcDbEntity
  8
delete_me
  6
ByLayer
 62
  256
370
   -1
100
AcDbMText
 10
27.1
 20
5.5
 30
0
 40
0.15
 41
5.091072566666666
 71
    5
 72
    1
  1
Black boxes can be another \Psubsystem, pi, arduino, power supplies, ect.\PThey dont have to have a fancy symbol
  7
romans
210
0
220
0
230
1
 50
0
 73
    2
 44
1
  0
MTEXT
  5
255
100
AcDbEntity
  8
delete_me
  6
ByLayer
 62
  256
370
   -1
100
AcDbMText
 10
4
 20
16
 30
0
 40
0.15
 41
4.530357933333335
 71
    5
 72
    1
  1
For power supplies us PS instead of A
  7
romans
210
0
220
0
230
1
 50
0
 73
    2
 44
1
  0
LINE
  5
256
100
AcDbEntity
  8
delete_me
  6
ByLayer
 62
  256
370
   -1
100
AcDbLine
 10
1.7
 20
15.8
 11
6.300000000000001
 21
15.8
  0
LINE
  5
257
100
AcDbEntity
  8
delete_me
  6
ByLayer
 62
  256
370
   -1
100
AcDbLine
 10
3.3
 20
15
 11
3.5
 21
15.8
  0
MTEXT
  5
258
100
AcDbEntity
  8
delete_me
  6
ByLayer
 62
  256
370
   -1
100
AcDbMText
 10
21.4
 20
10.3
 30
0
 40
0.15
 41
1.939285883333333
 71
    5
 72
    1
  1
Full Ref: 01A2TB1
  7
romans
210
0
220
0
230
1
 50
0
 73
    2
 44
1
  0
LINE
  5
259
100
AcDbEntity
  8
0
  6
ByLayer
 62
  256
370
   -1
100
AcDbLine
 10
33.3
 20
8
 11
33.3
 21
7.6
  0
LINE
  5
25A
100
AcDbEntity
  8
0
  6
ByLayer
 62
  256
370
   -1
100
AcDbLine
 10
33.3
 20
7.600000000000003
 11
33.3
 21
7.200000000000003
  0
LINE
  5
25B
100
AcDbEntity
  8
0
  6
ByLayer
 62
  256
370
   -1
100
AcDbLine
 10
33.3
 20
7.199999999999999
 11
33.3
 21
6.799999999999999
  0
LINE
  5
25C
100
AcDbEntity
  8
0
  6
ByLayer
 62
  256
370
   -1
100
AcDbLine
 10
33.3
 20
6.8
 11
33.3
 21
6.399999999999999
  0
LWPOLYLINE
  5
25D
100
AcDbEntity
  8
Formating
  6
ByLayer
 62
  256
370
   -1
100
AcDbPolyline
 90
    4
 70
    1
 43
0
 10
34
 20
1.110223024625157e-16
 10
34.6
 20
1.110223024625157e-16
 10
34.6
 20
-0.5999999999999999
 10
34
 20
-0.5999999999999999
  0
LWPOLYLINE
  5
25E
100
AcDbEntity
  8
Formating
  6
ByLayer
 62
  256
370
   -1
100
AcDbPolyline
 90
    4
 70
    1
 43
0
 10
1.110223024625157e-16
 20
22
 10
-0.5999999999999999
 20
22
 10
-0.5999999999999999
 20
22.6
 10
1.110223024625157e-16
 20
22.6
  0
MTEXT
  5
25F
100
AcDbEntity
  8
Title_Block_Text
  6
ByLayer
 62
  256
370
   -1
100
AcDbMText
 10
27.8
 20
2.218749999999999
 30
0
 40
0.08
 41
0.8980951111111112
 71
    5
 72
    1
  1
NADIA PAVLOV
  7
romans
210
0
220
0
230
1
 50
0
 73
    2
 44
1
  0
MTEXT
  5
260
100
AcDbEntity
  8
Title_Block_Text
  6
ByLayer
 62
  256
370
   -1
100
AcDbMText
 10
27.8
 20
1.775
 30
0
 40
0.08
 41
0.8980951111111112
 71
    5
 72
    1
  1
NADIA PAVLOV
  7
romans
210
0
220
0
230
1
 50
0
 73
    2
 44
1
  0
MTEXT
  5
261
100
AcDbEntity
  8
Title_Block_Text
  6
ByLayer
 62
  256
370
   -1
100
AcDbMText
 10
31.935
 20
0.875
 30
0
 40
0.15
 41
1.742857333333333
 71
    5
 72
    1
  1
0000-00-0001
  7
romans
210
0
220
0
230
1
 50
0
 73
    2
 44
1
  0
MTEXT
  5
262
100
AcDbEntity
  8
Title_Block_Text
  6
ByLayer
 62
  256
370
   -1
100
AcDbMText
 10
31.375
 20
2.19
 30
0
 40
0.2
 41
3.289287555555556
 71
    5
 72
    1
  1
University of Tulsa
  7
romansi
210
0
220
0
230
1
 50
0
 73
    2
 44
1
  0
MTEXT
  5
263
100
AcDbEntity
  8
Title_Block_Text
  6
ByLayer
 62
  256
370
   -1
100
AcDbMText
 10
33.25
 20
0.9700000000000002
 30
0
 40
0.15
 41
0.1285715
 71
    1
 72
    1
  1
-
  7
romans
210
0
220
0
230
1
 50
0
 73
    2
 44
1
  0
MTEXT
  5
264
100
AcDbEntity
  8
0
  6
ByLayer
 62
  256
370
   -1
100
AcDbMText
 10
16.9
 20
12.3
 30
0
 40
1
 41
0
 71
    1
 72
    1
  1

  7

210
0
220
0
230
1
 50
0
 73
    2
 44
1
  0
LINE
  5
265
100
AcDbEntity
  8
0
  6
ByLayer
 62
  256
370
   -1
100
AcDbLine
 10
27.9
 20
5.800000000000001
 11
27.9
 21
5.400000000000002
  0
LINE
  5
266
100
AcDbEntity
  8
0
  6
ByLayer
 62
  256
370
   -1
100
AcDbLine
 10
27.9
 20
5.400000000000002
 11
27.9
 21
5.000000000000004
  0
LINE
  5
267
100
AcDbEntity
  8
0
  6
ByLayer
 62
  256
370
   -1
100
AcDbLine
 10
27.9
 20
5.000000000000004
 11
27.9
 21
4.600000000000001
  0
LINE
  5
268
100
AcDbEntity
  8
0
  6
ByLayer
 62
  256
370
   -1
100
AcDbLine
 10
28.5
 20
5.800000000000001
 11
27.9
 21
5.800000000000001
  0
LINE
  5
269
100
AcDbEntity
  8
0
  6
ByLayer
 62
  256
370
   -1
100
AcDbLine
 10
28.5
 20
4.600000000000001
 11
27.9
 21
4.600000000000001
  0
LWPOLYLINE
  5
26A
100
AcDbEntity
  8
0
  6
ByLayer
 62
  256
370
   -1
100
AcDbPolyline
 90
    4
 70
    1
 43
0
 10
26
 20
6
 10
28.5
 20
6
 10
28.5
 20
4.400000000000002
 10
26
 20
4.4
  0
LINE
  5
26B
100
AcDbEntity
  8
0
  6
ByLayer
 62
  256
370
   -1
100
AcDbLine
 10
26.6
 20
5.800000000000001
 11
26
 21
5.800000000000001
  0
LINE
  5
26C
100
AcDbEntity
  8
0
  6
ByLayer
 62
  256
370
   -1
100
AcDbLine
 10
26.6
 20
4.600000000000001
 11
26
 21
4.600000000000001
  0
LINE
  5
26D
100
AcDbEntity
  8
0
  6
ByLayer
 62
  256
370
   -1
100
AcDbLine
 10
26.6
 20
5.800000000000001
 11
26.6
 21
5.400000000000002
  0
LINE
  5
26E
100
AcDbEntity
  8
0
  6
ByLayer
 62
  256
370
   -1
100
AcDbLine
 10
26.6
 20
5.400000000000002
 11
26.6
 21
5.000000000000004
  0
MTEXT
  5
26F
100
AcDbEntity
  8
0
  6
ByLayer
 62
  256
370
   -1
100
AcDbMText
 10
27.36071433333333
 20
6.200000000000003
 30
0
 40
0.2
 41
1.016666888888889
 71
    5
 72
    1
  1
Relay 1
  7
romans
210
0
220
0
230
1
 50
0
 73
    2
 44
1
  0
MTEXT
  5
270
100
AcDbEntity
  8
0
  6
ByLayer
 62
  256
370
   -1
100
AcDbMText
 10
28.2
 20
5.600000000000005
 30
0
 40
0.15
 41
0.1285715
 71
    5
 72
    1
  1
In
  7
romans
210
0
220
0
230
1
 50
0
 73
    2
 44
1
  0
MTEXT
  5
271
100
AcDbEntity
  8
0
  6
ByLayer
 62
  256
370
   -1
100
AcDbMText
 10
28.2
 20
5.200000000000003
 30
0
 40
0.15
 41
0.1285715
 71
    5
 72
    1
  1
+
  7
romans
210
0
220
0
230
1
 50
0
 73
    2
 44
1
  0
MTEXT
  5
272
100
AcDbEntity
  8
0
  6
ByLayer
 62
  256
370
   -1
100
AcDbMText
 10
28.2
 20
4.800000000000001
 30
0
 40
0.15
 41
0.1285715
 71
    5
 72
    1
  1
-
  7
romans
210
0
220
0
230
1
 50
0
 73
    2
 44
1
  0
MTEXT
  5
273
100
AcDbEntity
  8
0
  6
ByLayer
 62
  256
370
   -1
100
AcDbMText
 10
26.3
 20
5.600000000000005
 30
0
 40
0.15
 41
0.2571428333333333
 71
    5
 72
    1
  1
NC
  7
romans
210
0
220
0
230
1
 50
0
 73
    2
 44
1
  0
MTEXT
  5
274
100
AcDbEntity
  8
0
  6
ByLayer
 62
  256
370
   -1
100
AcDbMText
 10
26.3
 20
5.200000000000003
 30
0
 40
0.15
 41
0.4357141666666667
 71
    5
 72
    1
  1
COM
  7
romans
210
0
220
0
230
1
 50
0
 73
    2
 44
1
  0
LINE
  5
275
100
AcDbEntity
  8
0
  6
ByLayer
 62
  256
370
   -1
100
AcDbLine
 10
26.6
 20
5
 11
26.6
 21
4.6
  0
MTEXT
  5
276
100
AcDbEntity
  8
0
  6
ByLayer
 62
  256
370
   -1
100
AcDbMText
 10
26.3
 20
4.800000000000001
 30
0
 40
0.15
 41
0.2642856666666666
 71
    5
 72
    1
  1
NO
  7
romans
210
0
220
0
230
1
 50
0
 73
    2
 44
1
  0
LINE
  5
277
100
AcDbEntity
  8
0
  6
ByLayer
 62
  256
370
   -1
100
AcDbLine
 10
28.5
 20
5.200000000000001
 11
29.5
 21
5.200000000000001
  0
LINE
  5
278
100
AcDbEntity
  8
0
  6
ByLayer
 62
  256
370
   -1
100
AcDbLine
 10
29.49857162222222
 20
5.200000000000003
 11
29.69857162222221
 21
5.350000000000003
  0
LINE
  5
279
100
AcDbEntity
  8
0
  6
ByLayer
 62
  256
370
   -1
100
AcDbLine
 10
29.49857162222222
 20
5.200000000000003
 11
29.69857162222221
 21
5.050000000000002
  0
LINE
  5
27A
100
AcDbEntity
  8
0
  6
ByLayer
 62
  256
370
   -1
100
AcDbLine
 10
29.69857162222221
 20
5.050000000000002
 11
30.19857162222221
 21
5.050000000000002
  0
LINE
  5
27B
100
AcDbEntity
  8
0
  6
ByLayer
 62
  256
370
   -1
100
AcDbLine
 10
29.69857162222221
 20
5.350000000000003
 11
30.19857162222221
 21
5.350000000000003
  0
LINE
  5
27C
100
AcDbEntity
  8
0
  6
ByLayer
 62
  256
370
   -1
100
AcDbLine
 10
30.19857162222221
 20
5.350000000000003
 11
30.19857162222221
 21
5.050000000000002
  0
LINE
  5
27D
100
AcDbEntity
  8
0
  6
ByLayer
 62
  256
370
   -1
100
AcDbLine
 10
28.49857162222222
 20
4.800000000000001
 11
29.49857162222222
 21
4.800000000000001
  0
LINE
  5
27E
100
AcDbEntity
  8
0
  6
ByLayer
 62
  256
370
   -1
100
AcDbLine
 10
29.49714324444444
 20
4.800000000000002
 11
29.69714324444444
 21
4.950000000000003
  0
LINE
  5
27F
100
AcDbEntity
  8
0
  6
ByLayer
 62
  256
370
   -1
100
AcDbLine
 10
29.49714324444444
 20
4.800000000000002
 11
29.69714324444444
 21
4.650000000000002
  0
LINE
  5
280
100
AcDbEntity
  8
0
  6
ByLayer
 62
  256
370
   -1
100
AcDbLine
 10
29.69714324444444
 20
4.650000000000002
 11
30.19714324444444
 21
4.650000000000002
  0
LINE
  5
281
100
AcDbEntity
  8
0
  6
ByLayer
 62
  256
370
   -1
100
AcDbLine
 10
29.69714324444444
 20
4.950000000000003
 11
30.19714324444444
 21
4.950000000000003
  0
LINE
  5
282
100
AcDbEntity
  8
0
  6
ByLayer
 62
  256
370
   -1
100
AcDbLine
 10
30.19714324444444
 20
4.950000000000003
 11
30.19714324444444
 21
4.650000000000002
  0
MTEXT
  5
283
100
AcDbEntity
  8
0
  6
ByLayer
 62
  256
370
   -1
100
AcDbMText
 10
29.89857162222221
 20
5.200000000000003
 30
0
 40
0.15
 41
0.2642856666666666
 71
    5
 72
    1
  1
5V
  7
romans
210
0
220
0
230
1
 50
0
 73
    2
 44
1
  0
MTEXT
  5
284
100
AcDbEntity
  8
0
  6
ByLayer
 62
  256
370
   -1
100
AcDbMText
 10
29.89714324444444
 20
4.800000000000002
 30
0
 40
0.15
 41
0.4071428333333333
 71
    5
 72
    1
  1
GND
  7
romans
210
0
220
0
230
1
 50
0
 73
    2
 44
1
  0
LINE
  5
285
100
AcDbEntity
  8
0
  6
ByLayer
 62
  256
370
   -1
100
AcDbLine
 10
25
 20
4.800000000000001
 11
26
 21
4.800000000000001
  0
LINE
  5
286
100
AcDbEntity
  8
0
  6
ByLayer
 62
  256
370
   -1
100
AcDbLine
 10
25
 20
4.800000000000001
 11
24.80000000000001
 21
4.950000000000001
  0
LINE
  5
287
100
AcDbEntity
  8
0
  6
ByLayer
 62
  256
370
   -1
100
AcDbLine
 10
25
 20
4.800000000000001
 11
24.80000000000001
 21
4.650000000000002
  0
LINE
  5
288
100
AcDbEntity
  8
0
  6
ByLayer
 62
  256
370
   -1
100
AcDbLine
 10
24.80004324444445
 20
4.949999999999999
 11
24.19714324444445
 21
4.949999999999999
  0
LINE
  5
289
100
AcDbEntity
  8
0
  6
ByLayer
 62
  256
370
   -1
100
AcDbLine
 10
24.19714324444445
 20
4.949999999999999
 11
24.19714324444445
 21
4.649999999999999
  0
LINE
  5
28A
100
AcDbEntity
  8
0
  6
ByLayer
 62
  256
370
   -1
100
AcDbLine
 10
24.80000000000001
 20
4.650000000000002
 11
24.19714324444445
 21
4.649999999999999
  0
LINE
  5
28B
100
AcDbEntity
  8
0
  6
ByLayer
 62
  256
370
   -1
100
AcDbLine
 10
25
 20
5.600000000000001
 11
26
 21
5.600000000000001
  0
LINE
  5
28C
100
AcDbEntity
  8
0
  6
ByLayer
 62
  256
370
   -1
100
AcDbLine
 10
25
 20
5.600000000000001
 11
24.80000000000001
 21
5.750000000000002
  0
LINE
  5
28D
100
AcDbEntity
  8
0
  6
ByLayer
 62
  256
370
   -1
100
AcDbLine
 10
25
 20
5.600000000000001
 11
24.80000000000001
 21
5.450000000000003
  0
MTEXT
  5
28E
100
AcDbEntity
  8
0
  6
ByLayer
 62
  256
370
   -1
100
AcDbMText
 10
24.5
 20
5.600000000000001
 30
0
 40
0.15
 41
0.4071428333333333
 71
    5
 72
    1
  1
GND
  7
romans
210
0
220
0
230
1
 50
0
 73
    2
 44
1
  0
LINE
  5
28F
100
AcDbEntity
  8
0
  6
ByLayer
 62
  256
370
   -1
100
AcDbLine
 10
24.80004324444445
 20
5.75
 11
24.19714324444445
 21
5.75
  0
LINE
  5
290
100
AcDbEntity
  8
0
  6
ByLayer
 62
  256
370
   -1
100
AcDbLine
 10
24.19714324444445
 20
5.75
 11
24.19714324444445
 21
5.449999999999999
  0
LINE
  5
291
100
AcDbEntity
  8
0
  6
ByLayer
 62
  256
370
   -1
100
AcDbLine
 10
24.80000000000001
 20
5.450000000000003
 11
24.19714324444445
 21
5.449999999999999
  0
MTEXT
  5
292
100
AcDbEntity
  8
0
  6
ByLayer
 62
  256
370
   -1
100
AcDbMText
 10
24.5
 20
4.800000000000001
 30
0
 40
0.15
 41
0.35
 71
    5
 72
    1
  1
12V
  7
romans
210
0
220
0
230
1
 50
0
 73
    2
 44
1
  0
LINE
  5
293
100
AcDbEntity
  8
0
  6
ByLayer
 62
  256
370
   -1
100
AcDbLine
 10
27.9
 20
8.4
 11
27.9
 21
8.000000000000002
  0
LINE
  5
294
100
AcDbEntity
  8
0
  6
ByLayer
 62
  256
370
   -1
100
AcDbLine
 10
27.9
 20
8.000000000000002
 11
27.9
 21
7.600000000000003
  0
LINE
  5
295
100
AcDbEntity
  8
0
  6
ByLayer
 62
  256
370
   -1
100
AcDbLine
 10
27.9
 20
7.600000000000003
 11
27.9
 21
7.200000000000001
  0
LINE
  5
296
100
AcDbEntity
  8
0
  6
ByLayer
 62
  256
370
   -1
100
AcDbLine
 10
28.5
 20
8.4
 11
27.9
 21
8.4
  0
LINE
  5
297
100
AcDbEntity
  8
0
  6
ByLayer
 62
  256
370
   -1
100
AcDbLine
 10
28.5
 20
7.200000000000001
 11
27.9
 21
7.200000000000001
  0
LWPOLYLINE
  5
298
100
AcDbEntity
  8
0
  6
ByLayer
 62
  256
370
   -1
100
AcDbPolyline
 90
    4
 70
    1
 43
0
 10
26
 20
8.6
 10
28.5
 20
8.6
 10
28.5
 20
7.000000000000002
 10
26
 20
7
  0
LINE
  5
299
100
AcDbEntity
  8
0
  6
ByLayer
 62
  256
370
   -1
100
AcDbLine
 10
26.6
 20
8.4
 11
26
 21
8.4
  0
LINE
  5
29A
100
AcDbEntity
  8
0
  6
ByLayer
 62
  256
370
   -1
100
AcDbLine
 10
26.6
 20
7.200000000000001
 11
26
 21
7.200000000000001
  0
LINE
  5
29B
100
AcDbEntity
  8
0
  6
ByLayer
 62
  256
370
   -1
100
AcDbLine
 10
26.6
 20
8.4
 11
26.6
 21
8.000000000000002
  0
LINE
  5
29C
100
AcDbEntity
  8
0
  6
ByLayer
 62
  256
370
   -1
100
AcDbLine
 10
26.6
 20
8.000000000000002
 11
26.6
 21
7.600000000000003
  0
MTEXT
  5
29D
100
AcDbEntity
  8
0
  6
ByLayer
 62
  256
370
   -1
100
AcDbMText
 10
27.36071433333333
 20
8.800000000000002
 30
0
 40
0.2
 41
1.016666888888889
 71
    5
 72
    1
  1
Relay 1
  7
romans
210
0
220
0
230
1
 50
0
 73
    2
 44
1
  0
MTEXT
  5
29E
100
AcDbEntity
  8
0
  6
ByLayer
 62
  256
370
   -1
100
AcDbMText
 10
28.2
 20
8.200000000000005
 30
0
 40
0.15
 41
0.1285715
 71
    5
 72
    1
  1
In
  7
romans
210
0
220
0
230
1
 50
0
 73
    2
 44
1
  0
MTEXT
  5
29F
100
AcDbEntity
  8
0
  6
ByLayer
 62
  256
370
   -1
100
AcDbMText
 10
28.2
 20
7.800000000000002
 30
0
 40
0.15
 41
0.1285715
 71
    5
 72
    1
  1
+
  7
romans
210
0
220
0
230
1
 50
0
 73
    2
 44
1
  0
MTEXT
  5
2A0
100
AcDbEntity
  8
0
  6
ByLayer
 62
  256
370
   -1
100
AcDbMText
 10
28.2
 20
7.4
 30
0
 40
0.15
 41
0.1285715
 71
    5
 72
    1
  1
-
  7
romans
210
0
220
0
230
1
 50
0
 73
    2
 44
1
  0
MTEXT
  5
2A1
100
AcDbEntity
  8
0
  6
ByLayer
 62
  256
370
   -1
100
AcDbMText
 10
26.3
 20
8.200000000000005
 30
0
 40
0.15
 41
0.2571428333333333
 71
    5
 72
    1
  1
NC
  7
romans
210
0
220
0
230
1
 50
0
 73
    2
 44
1
  0
MTEXT
  5
2A2
100
AcDbEntity
  8
0
  6
ByLayer
 62
  256
370
   -1
100
AcDbMText
 10
26.3
 20
7.800000000000002
 30
0
 40
0.15
 41
0.4357141666666667
 71
    5
 72
    1
  1
COM
  7
romans
210
0
220
0
230
1
 50
0
 73
    2
 44
1
  0
LINE
  5
2A3
100
AcDbEntity
  8
0
  6
ByLayer
 62
  256
370
   -1
100
AcDbLine
 10
26.6
 20
7.6
 11
26.6
 21
7.199999999999999
  0
MTEXT
  5
2A4
100
AcDbEntity
  8
0
  6
ByLayer
 62
  256
370
   -1
100
AcDbMText
 10
26.3
 20
7.4
 30
0
 40
0.15
 41
0.2642856666666666
 71
    5
 72
    1
  1
NO
  7
romans
210
0
220
0
230
1
 50
0
 73
    2
 44
1
  0
LINE
  5
2A5
100
AcDbEntity
  8
0
  6
ByLayer
 62
  256
370
   -1
100
AcDbLine
 10
28.5
 20
7.800000000000001
 11
29.5
 21
7.800000000000001
  0
LINE
  5
2A6
100
AcDbEntity
  8
0
  6
ByLayer
 62
  256
370
   -1
100
AcDbLine
 10
29.49857162222222
 20
7.800000000000002
 11
29.69857162222221
 21
7.950000000000003
  0
LINE
  5
2A7
100
AcDbEntity
  8
0
  6
ByLayer
 62
  256
370
   -1
100
AcDbLine
 10
29.49857162222222
 20
7.800000000000002
 11
29.69857162222221
 21
7.650000000000002
  0
LINE
  5
2A8
100
AcDbEntity
  8
0
  6
ByLayer
 62
  256
370
   -1
100
AcDbLine
 10
29.69857162222221
 20
7.650000000000002
 11
30.19857162222221
 21
7.650000000000002
  0
LINE
  5
2A9
100
AcDbEntity
  8
0
  6
ByLayer
 62
  256
370
   -1
100
AcDbLine
 10
29.69857162222221
 20
7.950000000000003
 11
30.19857162222221
 21
7.950000000000003
  0
LINE
  5
2AA
100
AcDbEntity
  8
0
  6
ByLayer
 62
  256
370
   -1
100
AcDbLine
 10
30.19857162222221
 20
7.950000000000003
 11
30.19857162222221
 21
7.650000000000002
  0
LINE
  5
2AB
100
AcDbEntity
  8
0
  6
ByLayer
 62
  256
370
   -1
100
AcDbLine
 10
28.49857162222222
 20
7.4
 11
29.49857162222222
 21
7.4
  0
LINE
  5
2AC
100
AcDbEntity
  8
0
  6
ByLayer
 62
  256
370
   -1
100
AcDbLine
 10
29.49714324444444
 20
7.400000000000002
 11
29.69714324444444
 21
7.550000000000002
  0
LINE
  5
2AD
100
AcDbEntity
  8
0
  6
ByLayer
 62
  256
370
   -1
100
AcDbLine
 10
29.49714324444444
 20
7.400000000000002
 11
29.69714324444444
 21
7.250000000000002
  0
LINE
  5
2AE
100
AcDbEntity
  8
0
  6
ByLayer
 62
  256
370
   -1
100
AcDbLine
 10
29.69714324444444
 20
7.250000000000002
 11
30.19714324444444
 21
7.250000000000002
  0
LINE
  5
2AF
100
AcDbEntity
  8
0
  6
ByLayer
 62
  256
370
   -1
100
AcDbLine
 10
29.69714324444444
 20
7.550000000000002
 11
30.19714324444444
 21
7.550000000000002
  0
LINE
  5
2B0
100
AcDbEntity
  8
0
  6
ByLayer
 62
  256
370
   -1
100
AcDbLine
 10
30.19714324444444
 20
7.550000000000002
 11
30.19714324444444
 21
7.250000000000002
  0
MTEXT
  5
2B1
100
AcDbEntity
  8
0
  6
ByLayer
 62
  256
370
   -1
100
AcDbMText
 10
29.89857162222221
 20
7.800000000000002
 30
0
 40
0.15
 41
0.2642856666666666
 71
    5
 72
    1
  1
5V
  7
romans
210
0
220
0
230
1
 50
0
 73
    2
 44
1
  0
MTEXT
  5
2B2
100
AcDbEntity
  8
0
  6
ByLayer
 62
  256
370
   -1
100
AcDbMText
 10
29.89714324444444
 20
7.400000000000002
 30
0
 40
0.15
 41
0.4071428333333333
 71
    5
 72
    1
  1
GND
  7
romans
210
0
220
0
230
1
 50
0
 73
    2
 44
1
  0
LINE
  5
2B3
100
AcDbEntity
  8
0
  6
ByLayer
 62
  256
370
   -1
100
AcDbLine
 10
25
 20
7.4
 11
26
 21
7.4
  0
LINE
  5
2B4
100
AcDbEntity
  8
0
  6
ByLayer
 62
  256
370
   -1
100
AcDbLine
 10
25
 20
7.4
 11
24.80000000000001
 21
7.550000000000001
  0
LINE
  5
2B5
100
AcDbEntity
  8
0
  6
ByLayer
 62
  256
370
   -1
100
AcDbLine
 10
25
 20
7.4
 11
24.80000000000001
 21
7.250000000000002
  0
LINE
  5
2B6
100
AcDbEntity
  8
0
  6
ByLayer
 62
  256
370
   -1
100
AcDbLine
 10
24.80004324444445
 20
7.549999999999999
 11
24.19714324444445
 21
7.549999999999999
  0
LINE
  5
2B7
100
AcDbEntity
  8
0
  6
ByLayer
 62
  256
370
   -1
100
AcDbLine
 10
24.19714324444445
 20
7.549999999999999
 11
24.19714324444445
 21
7.249999999999998
  0
LINE
  5
2B8
100
AcDbEntity
  8
0
  6
ByLayer
 62
  256
370
   -1
100
AcDbLine
 10
24.80000000000001
 20
7.250000000000002
 11
24.19714324444445
 21
7.249999999999998
  0
LINE
  5
2B9
100
AcDbEntity
  8
0
  6
ByLayer
 62
  256
370
   -1
100
AcDbLine
 10
25
 20
8.200000000000001
 11
26
 21
8.200000000000001
  0
LINE
  5
2BA
100
AcDbEntity
  8
0
  6
ByLayer
 62
  256
370
   -1
100
AcDbLine
 10
25
 20
8.200000000000001
 11
24.80000000000001
 21
8.350000000000001
  0
LINE
  5
2BB
100
AcDbEntity
  8
0
  6
ByLayer
 62
  256
370
   -1
100
AcDbLine
 10
25
 20
8.200000000000001
 11
24.80000000000001
 21
8.050000000000002
  0
MTEXT
  5
2BC
100
AcDbEntity
  8
0
  6
ByLayer
 62
  256
370
   -1
100
AcDbMText
 10
24.5
 20
8.200000000000001
 30
0
 40
0.15
 41
0.4071428333333333
 71
    5
 72
    1
  1
GND
  7
romans
210
0
220
0
230
1
 50
0
 73
    2
 44
1
  0
LINE
  5
2BD
100
AcDbEntity
  8
0
  6
ByLayer
 62
  256
370
   -1
100
AcDbLine
 10
24.80004324444445
 20
8.35
 11
24.19714324444445
 21
8.35
  0
LINE
  5
2BE
100
AcDbEntity
  8
0
  6
ByLayer
 62
  256
370
   -1
100
AcDbLine
 10
24.19714324444445
 20
8.35
 11
24.19714324444445
 21
8.049999999999999
  0
LINE
  5
2BF
100
AcDbEntity
  8
0
  6
ByLayer
 62
  256
370
   -1
100
AcDbLine
 10
24.80000000000001
 20
8.050000000000002
 11
24.19714324444445
 21
8.049999999999999
  0
MTEXT
  5
2C0
100
AcDbEntity
  8
0
  6
ByLayer
 62
  256
370
   -1
100
AcDbMText
 10
24.5
 20
7.4
 30
0
 40
0.15
 41
0.35
 71
    5
 72
    1
  1
12V
  7
romans
210
0
220
0
230
1
 50
0
 73
    2
 44
1
  0
LINE
  5
2C1
100
AcDbEntity
  8
0
  6
ByLayer
 62
  256
370
   -1
100
AcDbLine
 10
20.9
 20
8
 11
20.9
 21
7.600000000000001
  0
LINE
  5
2C2
100
AcDbEntity
  8
0
  6
ByLayer
 62
  256
370
   -1
100
AcDbLine
 10
20.9
 20
7.600000000000001
 11
20.9
 21
7.199999999999999
  0
LINE
  5
2C3
100
AcDbEntity
  8
0
  6
ByLayer
 62
  256
370
   -1
100
AcDbLine
 10
21.5
 20
7.199999999999999
 11
20.9
 21
7.199999999999999
  0
LINE
  5
2C4
100
AcDbEntity
  8
0
  6
ByLayer
 62
  256
370
   -1
100
AcDbLine
 10
21.49857162222222
 20
7.399999999999999
 11
22.49857162222222
 21
7.399999999999999
  0
LINE
  5
2C5
100
AcDbEntity
  8
0
  6
ByLayer
 62
  256
370
   -1
100
AcDbLine
 10
22.49714324444444
 20
7.4
 11
22.69714324444444
 21
7.550000000000001
  0
LINE
  5
2C6
100
AcDbEntity
  8
0
  6
ByLayer
 62
  256
370
   -1
100
AcDbLine
 10
22.49714324444444
 20
7.4
 11
22.69714324444444
 21
7.25
  0
LINE
  5
2C7
100
AcDbEntity
  8
0
  6
ByLayer
 62
  256
370
   -1
100
AcDbLine
 10
22.69714324444444
 20
7.25
 11
23.19714324444444
 21
7.25
  0
LINE
  5
2C8
100
AcDbEntity
  8
0
  6
ByLayer
 62
  256
370
   -1
100
AcDbLine
 10
22.69714324444444
 20
7.550000000000001
 11
23.19714324444444
 21
7.550000000000001
  0
LINE
  5
2C9
100
AcDbEntity
  8
0
  6
ByLayer
 62
  256
370
   -1
100
AcDbLine
 10
23.19714324444444
 20
7.550000000000001
 11
23.19714324444444
 21
7.25
  0
MTEXT
  5
2CA
100
AcDbEntity
  8
0
  6
ByLayer
 62
  256
370
   -1
100
AcDbMText
 10
22.89714324444444
 20
7.4
 30
0
 40
0.15
 41
0.4071428333333333
 71
    5
 72
    1
  1
GND
  7
romans
210
0
220
0
230
1
 50
0
 73
    2
 44
1
  0
MTEXT
  5
2CB
100
AcDbEntity
  8
0
  6
ByLayer
 62
  256
370
   -1
100
AcDbMText
 10
21.2
 20
7.800000000000001
 30
0
 40
0.15
 41
0.1285715
 71
    5
 72
    1
  1
+
  7
romans
210
0
220
0
230
1
 50
0
 73
    2
 44
1
  0
MTEXT
  5
2CC
100
AcDbEntity
  8
0
  6
ByLayer
 62
  256
370
   -1
100
AcDbMText
 10
21.2
 20
7.399999999999999
 30
0
 40
0.15
 41
0.1285715
 71
    5
 72
    1
  1
-
  7
romans
210
0
220
0
230
1
 50
0
 73
    2
 44
1
  0
LWPOLYLINE
  5
2CD
100
AcDbEntity
  8
0
  6
ByLayer
 62
  256
370
   -1
100
AcDbPolyline
 90
    4
 70
    1
 43
0
 10
20
 20
8.199999999999999
 10
21.5
 20
8.199999999999999
 10
21.5
 20
7
 10
20
 20
6.999999999999999
  0
LINE
  5
2CE
100
AcDbEntity
  8
0
  6
ByLayer
 62
  256
370
   -1
100
AcDbLine
 10
21.5
 20
7.999999999999998
 11
20.9
 21
7.999999999999998
  0
MTEXT
  5
2CF
100
AcDbEntity
  8
0
  6
ByLayer
 62
  256
370
   -1
100
AcDbMText
 10
20.77976188888889
 20
8.399999999999999
 30
0
 40
0.2
 41
1.569047777777778
 71
    5
 72
    1
  1
Actuator 1
  7
romans
210
0
220
0
230
1
 50
0
 73
    2
 44
1
  0
LINE
  5
2D0
100
AcDbEntity
  8
0
  6
ByLayer
 62
  256
370
   -1
100
AcDbLine
 10
21.5
 20
7.800000000000001
 11
26
 21
7.800000000000001
  0
LINE
  5
2D1
100
AcDbEntity
  8
0
  6
ByLayer
 62
  256
370
   -1
100
AcDbLine
 10
20.9
 20
5.399999999999999
 11
20.9
 21
5.000000000000001
  0
LINE
  5
2D2
100
AcDbEntity
  8
0
  6
ByLayer
 62
  256
370
   -1
100
AcDbLine
 10
20.9
 20
5.000000000000001
 11
20.9
 21
4.599999999999999
  0
LINE
  5
2D3
100
AcDbEntity
  8
0
  6
ByLayer
 62
  256
370
   -1
100
AcDbLine
 10
21.5
 20
4.599999999999999
 11
20.9
 21
4.599999999999999
  0
LINE
  5
2D4
100
AcDbEntity
  8
0
  6
ByLayer
 62
  256
370
   -1
100
AcDbLine
 10
21.49857162222222
 20
4.799999999999998
 11
22.49857162222222
 21
4.799999999999998
  0
LINE
  5
2D5
100
AcDbEntity
  8
0
  6
ByLayer
 62
  256
370
   -1
100
AcDbLine
 10
22.49714324444444
 20
4.8
 11
22.69714324444444
 21
4.95
  0
LINE
  5
2D6
100
AcDbEntity
  8
0
  6
ByLayer
 62
  256
370
   -1
100
AcDbLine
 10
22.49714324444444
 20
4.8
 11
22.69714324444444
 21
4.649999999999999
  0
LINE
  5
2D7
100
AcDbEntity
  8
0
  6
ByLayer
 62
  256
370
   -1
100
AcDbLine
 10
22.69714324444444
 20
4.649999999999999
 11
23.19714324444444
 21
4.649999999999999
  0
LINE
  5
2D8
100
AcDbEntity
  8
0
  6
ByLayer
 62
  256
370
   -1
100
AcDbLine
 10
22.69714324444444
 20
4.95
 11
23.19714324444444
 21
4.95
  0
LINE
  5
2D9
100
AcDbEntity
  8
0
  6
ByLayer
 62
  256
370
   -1
100
AcDbLine
 10
23.19714324444444
 20
4.95
 11
23.19714324444444
 21
4.649999999999999
  0
MTEXT
  5
2DA
100
AcDbEntity
  8
0
  6
ByLayer
 62
  256
370
   -1
100
AcDbMText
 10
22.89714324444444
 20
4.8
 30
0
 40
0.15
 41
0.4071428333333333
 71
    5
 72
    1
  1
GND
  7
romans
210
0
220
0
230
1
 50
0
 73
    2
 44
1
  0
MTEXT
  5
2DB
100
AcDbEntity
  8
0
  6
ByLayer
 62
  256
370
   -1
100
AcDbMText
 10
21.2
 20
5.2
 30
0
 40
0.15
 41
0.1285715
 71
    5
 72
    1
  1
+
  7
romans
210
0
220
0
230
1
 50
0
 73
    2
 44
1
  0
MTEXT
  5
2DC
100
AcDbEntity
  8
0
  6
ByLayer
 62
  256
370
   -1
100
AcDbMText
 10
21.2
 20
4.799999999999998
 30
0
 40
0.15
 41
0.1285715
 71
    5
 72
    1
  1
-
  7
romans
210
0
220
0
230
1
 50
0
 73
    2
 44
1
  0
LWPOLYLINE
  5
2DD
100
AcDbEntity
  8
0
  6
ByLayer
 62
  256
370
   -1
100
AcDbPolyline
 90
    4
 70
    1
 43
0
 10
20
 20
5.599999999999999
 10
21.5
 20
5.599999999999999
 10
21.5
 20
4.399999999999999
 10
20
 20
4.399999999999999
  0
LINE
  5
2DE
100
AcDbEntity
  8
0
  6
ByLayer
 62
  256
370
   -1
100
AcDbLine
 10
21.5
 20
5.399999999999998
 11
20.9
 21
5.399999999999998
  0
LINE
  5
2DF
100
AcDbEntity
  8
0
  6
ByLayer
 62
  256
370
   -1
100
AcDbLine
 10
21.5
 20
5.2
 11
26
 21
5.2
  0
MTEXT
  5
2E0
100
AcDbEntity
  8
0
  6
ByLayer
 62
  256
370
   -1
100
AcDbMText
 10
20.77976188888889
 20
5.799999999999998
 30
0
 40
0.2
 41
1.654762
 71
    5
 72
    1
  1
Actuator 2
  7
romans
210
0
220
0
230
1
 50
0
 73
    2
 44
1
  0
LINE
  5
2E1
100
AcDbEntity
  8
0
  6
ByLayer
 62
  256
370
   -1
100
AcDbLine
 10
26.40142837777778
 20
11.5
 11
26.40142837777778
 21
11.1
  0
LINE
  5
2E2
100
AcDbEntity
  8
0
  6
ByLayer
 62
  256
370
   -1
100
AcDbLine
 10
26.40285675555555
 20
12.1
 11
26.40285675555555
 21
11.7
  0
LINE
  5
2E3
100
AcDbEntity
  8
0
  6
ByLayer
 62
  256
370
   -1
100
AcDbLine
 10
26.40285675555555
 20
11.7
 11
26.40285675555555
 21
11.3
  0
LINE
  5
2E4
100
AcDbEntity
  8
0
  6
ByLayer
 62
  256
370
   -1
100
AcDbLine
 10
26.39857162222222
 20
13.2
 11
26.39857162222222
 21
12.8
  0
LINE
  5
2E5
100
AcDbEntity
  8
0
  6
ByLayer
 62
  256
370
   -1
100
AcDbLine
 10
27.2
 20
10.5
 11
26.40285675555555
 21
10.5
  0
LINE
  5
2E6
100
AcDbEntity
  8
0
  6
ByLayer
 62
  256
370
   -1
100
AcDbLine
 10
27.2
 20
11.7
 11
27.2
 21
11.3
  0
LINE
  5
2E7
100
AcDbEntity
  8
0
  6
ByLayer
 62
  256
370
   -1
100
AcDbLine
 10
27.2
 20
11.3
 11
27.2
 21
10.9
  0
LINE
  5
2E8
100
AcDbEntity
  8
0
  6
ByLayer
 62
  256
370
   -1
100
AcDbLine
 10
27.2
 20
10.9
 11
27.2
 21
10.5
  0
MTEXT
  5
2E9
100
AcDbEntity
  8
0
  6
ByLayer
 62
  256
370
   -1
100
AcDbMText
 10
26.810714275
 20
11.475
 30
0
 40
0.15
 41
0.2928571666666667
 71
    5
 72
    1
  1
A-
  7
romans
210
0
220
0
230
1
 50
0
 73
    2
 44
1
  0
MTEXT
  5
2EA
100
AcDbEntity
  8
0
  6
ByLayer
 62
  256
370
   -1
100
AcDbMText
 10
26.80285675555555
 20
11.1
 30
0
 40
0.15
 41
0.2785715
 71
    5
 72
    1
  1
B+
  7
romans
210
0
220
0
230
1
 50
0
 73
    2
 44
1
  0
MTEXT
  5
2EB
100
AcDbEntity
  8
0
  6
ByLayer
 62
  256
370
   -1
100
AcDbMText
 10
26.80285675555555
 20
10.7
 30
0
 40
0.15
 41
0.2785715
 71
    5
 72
    1
  1
B-
  7
romans
210
0
220
0
230
1
 50
0
 73
    2
 44
1
  0
LINE
  5
2EC
100
AcDbEntity
  8
0
  6
ByLayer
 62
  256
370
   -1
100
AcDbLine
 10
27.2
 20
12.1
 11
26.40285675555556
 21
12.1
  0
MTEXT
  5
2ED
100
AcDbEntity
  8
0
  6
ByLayer
 62
  256
370
   -1
100
AcDbMText
 10
26.78214291666667
 20
11.875
 30
0
 40
0.15
 41
0.2928571666666667
 71
    5
 72
    1
  1
A+
  7
romans
210
0
220
0
230
1
 50
0
 73
    2
 44
1
  0
LINE
  5
2EE
100
AcDbEntity
  8
0
  6
ByLayer
 62
  256
370
   -1
100
AcDbLine
 10
27.19714324444444
 20
12.1
 11
27.19714324444444
 21
11.7
  0
MTEXT
  5
2EF
100
AcDbEntity
  8
0
  6
ByLayer
 62
  256
370
   -1
100
AcDbMText
 10
26.79999999999999
 20
12.5
 30
0
 40
0.15
 41
0.1285715
 71
    5
 72
    1
  1
-
  7
romans
210
0
220
0
230
1
 50
0
 73
    2
 44
1
  0
LINE
  5
2F0
100
AcDbEntity
  8
0
  6
ByLayer
 62
  256
370
   -1
100
AcDbLine
 10
27.19714324444444
 20
13.1
 11
26.4
 21
13.1
  0
LINE
  5
2F1
100
AcDbEntity
  8
0
  6
ByLayer
 62
  256
370
   -1
100
AcDbLine
 10
27.19714324444444
 20
13.1
 11
27.19714324444444
 21
12.7
  0
LINE
  5
2F2
100
AcDbEntity
  8
0
  6
ByLayer
 62
  256
370
   -1
100
AcDbLine
 10
27.19714324444444
 20
12.7
 11
27.19714324444444
 21
12.3
  0
MTEXT
  5
2F3
100
AcDbEntity
  8
0
  6
ByLayer
 62
  256
370
   -1
100
AcDbMText
 10
26.80785751944444
 20
12.875
 30
0
 40
0.15
 41
0.1285715
 71
    5
 72
    1
  1
+
  7
romans
210
0
220
0
230
1
 50
0
 73
    2
 44
1
  0
LINE
  5
2F4
100
AcDbEntity
  8
0
  6
ByLayer
 62
  256
370
   -1
100
AcDbLine
 10
27.19714324444444
 20
12.3
 11
26.4
 21
12.3
  0
LWPOLYLINE
  5
2F5
100
AcDbEntity
  8
0
  6
ByLayer
 62
  256
370
   -1
100
AcDbPolyline
 90
    4
 70
    1
 43
0
 10
28.4
 20
13.3
 10
26.4
 20
13.3
 10
26.4
 20
9.300000000000001
 10
28.4
 20
9.300000000000001
  0
MTEXT
  5
2F6
100
AcDbEntity
  8
0
  6
ByLayer
 62
  256
370
   -1
100
AcDbMText
 10
26.340476
 20
13.43333333333334
 30
0
 40
0.2
 41
2.226190733333333
 71
    7
 72
    1
  1
Stepper Driver
  7
romans
210
0
220
0
230
1
 50
0
 73
    2
 44
1
  0
LINE
  5
2F7
100
AcDbEntity
  8
0
  6
ByLayer
 62
  256
370
   -1
100
AcDbLine
 10
25.4
 20
12.9
 11
26.4
 21
12.9
  0
LINE
  5
2F8
100
AcDbEntity
  8
0
  6
ByLayer
 62
  256
370
   -1
100
AcDbLine
 10
25.4
 20
12.9
 11
25.20000000000001
 21
13.05
  0
LINE
  5
2F9
100
AcDbEntity
  8
0
  6
ByLayer
 62
  256
370
   -1
100
AcDbLine
 10
25.4
 20
12.9
 11
25.20000000000001
 21
12.75
  0
LINE
  5
2FA
100
AcDbEntity
  8
0
  6
ByLayer
 62
  256
370
   -1
100
AcDbLine
 10
25.20004324444445
 20
13.05
 11
24.59714324444445
 21
13.05
  0
LINE
  5
2FB
100
AcDbEntity
  8
0
  6
ByLayer
 62
  256
370
   -1
100
AcDbLine
 10
24.59714324444445
 20
13.05
 11
24.59714324444445
 21
12.75
  0
LINE
  5
2FC
100
AcDbEntity
  8
0
  6
ByLayer
 62
  256
370
   -1
100
AcDbLine
 10
25.20000000000001
 20
12.75
 11
24.59714324444445
 21
12.75
  0
MTEXT
  5
2FD
100
AcDbEntity
  8
0
  6
ByLayer
 62
  256
370
   -1
100
AcDbMText
 10
24.9
 20
12.9
 30
0
 40
0.15
 41
0.35
 71
    5
 72
    1
  1
12V
  7
romans
210
0
220
0
230
1
 50
0
 73
    2
 44
1
  0
LINE
  5
2FE
100
AcDbEntity
  8
0
  6
ByLayer
 62
  256
370
   -1
100
AcDbLine
 10
25.4
 20
12.5
 11
26.4
 21
12.5
  0
LINE
  5
2FF
100
AcDbEntity
  8
0
  6
ByLayer
 62
  256
370
   -1
100
AcDbLine
 10
25.4
 20
12.5
 11
25.20000000000001
 21
12.65
  0
LINE
  5
300
100
AcDbEntity
  8
0
  6
ByLayer
 62
  256
370
   -1
100
AcDbLine
 10
25.4
 20
12.5
 11
25.20000000000001
 21
12.35
  0
LINE
  5
301
100
AcDbEntity
  8
0
  6
ByLayer
 62
  256
370
   -1
100
AcDbLine
 10
25.20004324444445
 20
12.65
 11
24.59714324444445
 21
12.65
  0
LINE
  5
302
100
AcDbEntity
  8
0
  6
ByLayer
 62
  256
370
   -1
100
AcDbLine
 10
24.59714324444445
 20
12.65
 11
24.59714324444445
 21
12.35
  0
LINE
  5
303
100
AcDbEntity
  8
0
  6
ByLayer
 62
  256
370
   -1
100
AcDbLine
 10
25.20000000000001
 20
12.35
 11
24.59714324444445
 21
12.35
  0
MTEXT
  5
304
100
AcDbEntity
  8
0
  6
ByLayer
 62
  256
370
   -1
100
AcDbMText
 10
24.9
 20
12.5
 30
0
 40
0.15
 41
0.4071428333333333
 71
    5
 72
    1
  1
GND
  7
romans
210
0
220
0
230
1
 50
0
 73
    2
 44
1
  0
LINE
  5
305
100
AcDbEntity
  8
0
  6
ByLayer
 62
  256
370
   -1
100
AcDbLine
 10
26.4
 20
11.9
 11
23.4
 21
11.9
  0
MTEXT
  5
306
100
AcDbEntity
  8
0
  6
ByLayer
 62
  256
370
   -1
100
AcDbMText
 10
22.11428555555555
 20
12.13333333333334
 30
0
 40
0.2
 41
2.178571555555556
 71
    7
 72
    1
  1
Stepper Motor
  7
romans
210
0
220
0
230
1
 50
0
 73
    2
 44
1
  0
LINE
  5
307
100
AcDbEntity
  8
0
  6
ByLayer
 62
  256
370
   -1
100
AcDbLine
 10
26.4
 20
11.5
 11
23.4
 21
11.5
  0
LINE
  5
308
100
AcDbEntity
  8
0
  6
ByLayer
 62
  256
370
   -1
100
AcDbLine
 10
26.40142837777778
 20
11.1
 11
23.40142837777778
 21
11.1
  0
LINE
  5
309
100
AcDbEntity
  8
0
  6
ByLayer
 62
  256
370
   -1
100
AcDbLine
 10
26.4
 20
10.7
 11
23.4
 21
10.7
  0
LWPOLYLINE
  5
30A
100
AcDbEntity
  8
0
  6
ByLayer
 62
  256
370
   -1
100
AcDbPolyline
 90
    4
 70
    1
 43
0
 10
23.4
 20
12
 10
22.6
 20
12
 10
22.6
 20
10.6
 10
23.4
 20
10.6
  0
MTEXT
  5
30B
100
AcDbEntity
  8
Title_Block_Text
  6
ByLayer
 62
  256
370
   -1
100
AcDbMText
 10
31.375
 20
1.445
 30
0
 40
0.15
 41
2.725000266666666
 71
    5
 72
    1
  1
IEEE Competition Robot
  7
romans
210
0
220
0
230
1
 50
0
 73
    2
 44
1
  0
MTEXT
  5
30C
100
AcDbEntity
  8
Title_Block_Text
  6
ByLayer
 62
  256
370
   -1
100
AcDbMText
 10
28.8
 20
1.768749999999999
 30
0
 40
0.08
 41
0.8038096
 71
    5
 72
    1
  1
03/27/2028
  7
romans
210
0
220
0
230
1
 50
0
 73
    2
 44
1
  0
MTEXT
  5
30D
100
AcDbEntity
  8
Title_Block_Text
  6
ByLayer
 62
  256
370
   -1
100
AcDbMText
 10
28.8
 20
1.331249999999999
 30
0
 40
0.08
 41
0.800000088888889
 71
    5
 72
    1
  1
03/28/2026
  7
romans
210
0
220
0
230
1
 50
0
 73
    2
 44
1
  0
MTEXT
  5
30E
100
AcDbEntity
  8
Title_Block_Text
  6
ByLayer
 62
  256
370
   -1
100
AcDbMText
 10
28.8
 20
0.8937499999999994
 30
0
 40
0.08
 41
0.800000088888889
 71
    5
 72
    1
  1
03/28/2026
  7
romans
210
0
220
0
230
1
 50
0
 73
    2
 44
1
  0
MTEXT
  5
30F
100
AcDbEntity
  8
Title_Block_Text
  6
ByLayer
 62
  256
370
   -1
100
AcDbMText
 10
28.8
 20
2.206249999999999
 30
0
 40
0.08
 41
0.800000088888889
 71
    5
 72
    1
  1
03/27/2026
  7
romans
210
0
220
0
230
1
 50
0
 73
    2
 44
1
  0
MTEXT
  5
310
100
AcDbEntity
  8
Title_Block_Text
  6
ByLayer
 62
  256
370
   -1
100
AcDbMText
 10
31.7
 20
20.875
 30
0
 40
0.08
 41
0.800000088888889
 71
    5
 72
    1
  1
03/28/2026
  7
romans
210
0
220
0
230
1
 50
0
 73
    2
 44
1
  0
LINE
  5
311
100
AcDbEntity
  8
0
  6
ByLayer
 62
  256
370
   -1
100
AcDbLine
 10
25.79857162222222
 20
16.5
 11
24.99857162222222
 21
16.5
  0
LINE
  5
312
100
AcDbEntity
  8
0
  6
ByLayer
 62
  256
370
   -1
100
AcDbLine
 10
25.79857162222222
 20
16.90000000000001
 11
24.99857162222222
 21
16.90000000000001
  0
LINE
  5
313
100
AcDbEntity
  8
0
  6
ByLayer
 62
  256
370
   -1
100
AcDbLine
 10
25.8
 20
17.3
 11
24.99999999999999
 21
17.3
  0
LWPOLYLINE
  5
314
100
AcDbEntity
  8
0
  6
ByLayer
 62
  256
370
   -1
100
AcDbPolyline
 90
    4
 70
    1
 43
0
 10
24.99571486666666
 20
17.40000000000001
 10
24.19571486666666
 20
17.40000000000001
 10
24.19571486666666
 20
16.3
 10
24.99571486666666
 20
16.3
  0
MTEXT
  5
315
100
AcDbEntity
  8
0
  6
ByLayer
 62
  256
370
   -1
100
AcDbMText
 10
26.49857162222222
 20
17.90000000000001
 30
0
 40
0.2
 41
1.911904955555555
 71
    7
 72
    1
  1
Servo Driver
  7
romans
210
0
220
0
230
1
 50
0
 73
    2
 44
1
  0
MTEXT
  5
316
100
AcDbEntity
  8
0
  6
ByLayer
 62
  256
370
   -1
100
AcDbMText
 10
26.20642914166666
 20
17.37500000000001
 30
0
 40
0.15
 41
0.5928572166666667
 71
    5
 72
    1
  1
Serial
  7
romans
210
0
220
0
230
1
 50
0
 73
    2
 44
1
  0
MTEXT
  5
317
100
AcDbEntity
  8
0
  6
ByLayer
 62
  256
370
   -1
100
AcDbMText
 10
26.19857162222221
 20
16.6
 30
0
 40
0.15
 41
0.1285715
 71
    5
 72
    1
  1
+
  7
romans
210
0
220
0
230
1
 50
0
 73
    2
 44
1
  0
MTEXT
  5
318
100
AcDbEntity
  8
0
  6
ByLayer
 62
  256
370
   -1
100
AcDbMText
 10
26.19857162222221
 20
17
 30
0
 40
0.15
 41
0.1285715
 71
    5
 72
    1
  1
-
  7
romans
210
0
220
0
230
1
 50
0
 73
    2
 44
1
  0
LINE
  5
319
100
AcDbEntity
  8
0
  6
ByLayer
 62
  256
370
   -1
100
AcDbLine
 10
26.59571486666666
 20
16.40000000000001
 11
25.79857162222222
 21
16.40000000000001
  0
LINE
  5
31A
100
AcDbEntity
  8
0
  6
ByLayer
 62
  256
370
   -1
100
AcDbLine
 10
26.59571486666666
 20
17.6
 11
25.79857162222222
 21
17.6
  0
LINE
  5
31B
100
AcDbEntity
  8
0
  6
ByLayer
 62
  256
370
   -1
100
AcDbLine
 10
26.59571486666666
 20
17.6
 11
26.59571486666666
 21
17.2
  0
LINE
  5
31C
100
AcDbEntity
  8
0
  6
ByLayer
 62
  256
370
   -1
100
AcDbLine
 10
26.59571486666666
 20
17.2
 11
26.59571486666666
 21
16.8
  0
LINE
  5
31D
100
AcDbEntity
  8
0
  6
ByLayer
 62
  256
370
   -1
100
AcDbLine
 10
26.59571486666666
 20
16.8
 11
26.59571486666666
 21
16.4
  0
MTEXT
  5
31E
100
AcDbEntity
  8
0
  6
ByLayer
 62
  256
370
   -1
100
AcDbMText
 10
24.09571486666666
 20
17.5
 30
0
 40
0.2
 41
1.092857333333333
 71
    7
 72
    1
  1
Servo 1
  7
romans
210
0
220
0
230
1
 50
0
 73
    2
 44
1
  0
MTEXT
  5
31F
100
AcDbEntity
  8
0
  6
ByLayer
 62
  256
370
   -1
100
AcDbMText
 10
26.20642914166666
 20
15.67500000000001
 30
0
 40
0.15
 41
0.5928572166666667
 71
    5
 72
    1
  1
Serial
  7
romans
210
0
220
0
230
1
 50
0
 73
    2
 44
1
  0
MTEXT
  5
320
100
AcDbEntity
  8
0
  6
ByLayer
 62
  256
370
   -1
100
AcDbMText
 10
26.19857162222221
 20
14.9
 30
0
 40
0.15
 41
0.1285715
 71
    5
 72
    1
  1
+
  7
romans
210
0
220
0
230
1
 50
0
 73
    2
 44
1
  0
MTEXT
  5
321
100
AcDbEntity
  8
0
  6
ByLayer
 62
  256
370
   -1
100
AcDbMText
 10
26.19857162222221
 20
15.3
 30
0
 40
0.15
 41
0.1285715
 71
    5
 72
    1
  1
-
  7
romans
210
0
220
0
230
1
 50
0
 73
    2
 44
1
  0
LINE
  5
322
100
AcDbEntity
  8
0
  6
ByLayer
 62
  256
370
   -1
100
AcDbLine
 10
26.59571486666666
 20
14.7
 11
25.79857162222222
 21
14.7
  0
LINE
  5
323
100
AcDbEntity
  8
0
  6
ByLayer
 62
  256
370
   -1
100
AcDbLine
 10
26.59571486666666
 20
15.9
 11
25.79857162222222
 21
15.9
  0
LINE
  5
324
100
AcDbEntity
  8
0
  6
ByLayer
 62
  256
370
   -1
100
AcDbLine
 10
26.59571486666666
 20
15.9
 11
26.59571486666666
 21
15.5
  0
LINE
  5
325
100
AcDbEntity
  8
0
  6
ByLayer
 62
  256
370
   -1
100
AcDbLine
 10
26.59571486666666
 20
15.5
 11
26.59571486666666
 21
15.1
  0
LINE
  5
326
100
AcDbEntity
  8
0
  6
ByLayer
 62
  256
370
   -1
100
AcDbLine
 10
26.59571486666666
 20
15.1
 11
26.59571486666666
 21
14.7
  0
LINE
  5
327
100
AcDbEntity
  8
0
  6
ByLayer
 62
  256
370
   -1
100
AcDbLine
 10
25.80142837777778
 20
14.9
 11
25.00142837777777
 21
14.9
  0
LINE
  5
328
100
AcDbEntity
  8
0
  6
ByLayer
 62
  256
370
   -1
100
AcDbLine
 10
25.80142837777778
 20
15.3
 11
25.00142837777777
 21
15.3
  0
LINE
  5
329
100
AcDbEntity
  8
0
  6
ByLayer
 62
  256
370
   -1
100
AcDbLine
 10
25.80285675555556
 20
15.7
 11
25.00285675555555
 21
15.7
  0
LWPOLYLINE
  5
32A
100
AcDbEntity
  8
0
  6
ByLayer
 62
  256
370
   -1
100
AcDbPolyline
 90
    4
 70
    1
 43
0
 10
24.99857162222222
 20
15.8
 10
24.19857162222222
 20
15.8
 10
24.19857162222222
 20
14.7
 10
24.99857162222222
 20
14.7
  0
MTEXT
  5
32B
100
AcDbEntity
  8
0
  6
ByLayer
 62
  256
370
   -1
100
AcDbMText
 10
24.09857162222222
 20
15.9
 30
0
 40
0.2
 41
1.178571555555556
 71
    7
 72
    1
  1
Servo 2
  7
romans
210
0
220
0
230
1
 50
0
 73
    2
 44
1
  0
LWPOLYLINE
  5
32C
100
AcDbEntity
  8
0
  6
ByLayer
 62
  256
370
   -1
100
AcDbPolyline
 90
    4
 70
    1
 43
0
 10
28.79857162222222
 20
17.8
 10
25.79857162222222
 20
17.8
 10
25.8
 20
14.5
 10
28.8
 20
14.5
  0
LINE
  5
32D
100
AcDbEntity
  8
0
  6
ByLayer
 62
  256
370
   -1
100
AcDbLine
 10
28.2
 20
16.8
 11
28.2
 21
16.4
  0
LINE
  5
32E
100
AcDbEntity
  8
0
  6
ByLayer
 62
  256
370
   -1
100
AcDbLine
 10
28.2
 20
16.4
 11
28.2
 21
16
  0
LINE
  5
32F
100
AcDbEntity
  8
0
  6
ByLayer
 62
  256
370
   -1
100
AcDbLine
 10
28.8
 20
16.8
 11
28.19857162222222
 21
16.8
  0
LINE
  5
330
100
AcDbEntity
  8
0
  6
ByLayer
 62
  256
370
   -1
100
AcDbLine
 10
28.2
 20
16
 11
28.2
 21
16
  0
LINE
  5
331
100
AcDbEntity
  8
0
  6
ByLayer
 62
  256
370
   -1
100
AcDbLine
 10
28.79857162222222
 20
16.2
 11
29.79857162222222
 21
16.2
  0
LINE
  5
332
100
AcDbEntity
  8
0
  6
ByLayer
 62
  256
370
   -1
100
AcDbLine
 10
29.79857162222222
 20
16.2
 11
29.99857162222222
 21
16.35
  0
LINE
  5
333
100
AcDbEntity
  8
0
  6
ByLayer
 62
  256
370
   -1
100
AcDbLine
 10
29.79857162222222
 20
16.2
 11
29.99857162222222
 21
16.05
  0
LINE
  5
334
100
AcDbEntity
  8
0
  6
ByLayer
 62
  256
370
   -1
100
AcDbLine
 10
29.99857162222222
 20
16.05
 11
30.49857162222222
 21
16.05
  0
LINE
  5
335
100
AcDbEntity
  8
0
  6
ByLayer
 62
  256
370
   -1
100
AcDbLine
 10
29.99857162222222
 20
16.35
 11
30.49857162222222
 21
16.35
  0
LINE
  5
336
100
AcDbEntity
  8
0
  6
ByLayer
 62
  256
370
   -1
100
AcDbLine
 10
30.49857162222222
 20
16.35
 11
30.49857162222222
 21
16.05
  0
MTEXT
  5
337
100
AcDbEntity
  8
0
  6
ByLayer
 62
  256
370
   -1
100
AcDbMText
 10
30.19857162222222
 20
16.2
 30
0
 40
0.15
 41
0.2642856666666666
 71
    5
 72
    1
  1
5V
  7
romans
210
0
220
0
230
1
 50
0
 73
    2
 44
1
  0
LINE
  5
338
100
AcDbEntity
  8
0
  6
ByLayer
 62
  256
370
   -1
100
AcDbLine
 10
28.8
 20
15.6
 11
28.2
 21
15.6
  0
LINE
  5
339
100
AcDbEntity
  8
0
  6
ByLayer
 62
  256
370
   -1
100
AcDbLine
 10
28.2
 20
16
 11
28.2
 21
15.6
  0
MTEXT
  5
33A
100
AcDbEntity
  8
0
  6
ByLayer
 62
  256
370
   -1
100
AcDbMText
 10
28.49857162222222
 20
16.6
 30
0
 40
0.15
 41
0.4285713333333333
 71
    5
 72
    1
  1
VCC
  7
romans
210
0
220
0
230
1
 50
0
 73
    2
 44
1
  0
MTEXT
  5
33B
100
AcDbEntity
  8
0
  6
ByLayer
 62
  256
370
   -1
100
AcDbMText
 10
28.49857162222222
 20
16.2
 30
0
 40
0.15
 41
0.2928571666666667
 71
    5
 72
    1
  1
V+
  7
romans
210
0
220
0
230
1
 50
0
 73
    2
 44
1
  0
MTEXT
  5
33C
100
AcDbEntity
  8
0
  6
ByLayer
 62
  256
370
   -1
100
AcDbMText
 10
28.48928575
 20
15.835
 30
0
 40
0.15
 41
0.3500001666666667
 71
    5
 72
    1
  1
gnd
  7
romans
210
0
220
0
230
1
 50
0
 73
    2
 44
1
  0
LINE
  5
33D
100
AcDbEntity
  8
0
  6
ByLayer
 62
  256
370
   -1
100
AcDbLine
 10
28.8
 20
15.8
 11
29.8
 21
15.8
  0
LINE
  5
33E
100
AcDbEntity
  8
0
  6
ByLayer
 62
  256
370
   -1
100
AcDbLine
 10
29.8
 20
15.8
 11
30
 21
15.95
  0
LINE
  5
33F
100
AcDbEntity
  8
0
  6
ByLayer
 62
  256
370
   -1
100
AcDbLine
 10
29.8
 20
15.8
 11
30
 21
15.65
  0
LINE
  5
340
100
AcDbEntity
  8
0
  6
ByLayer
 62
  256
370
   -1
100
AcDbLine
 10
30
 20
15.65
 11
30.5
 21
15.65
  0
LINE
  5
341
100
AcDbEntity
  8
0
  6
ByLayer
 62
  256
370
   -1
100
AcDbLine
 10
30
 20
15.95
 11
30.5
 21
15.95
  0
LINE
  5
342
100
AcDbEntity
  8
0
  6
ByLayer
 62
  256
370
   -1
100
AcDbLine
 10
30.5
 20
15.95
 11
30.5
 21
15.65
  0
MTEXT
  5
343
100
AcDbEntity
  8
0
  6
ByLayer
 62
  256
370
   -1
100
AcDbMText
 10
30.2
 20
15.8
 30
0
 40
0.15
 41
0.4071428333333333
 71
    5
 72
    1
  1
GND
  7
romans
210
0
220
0
230
1
 50
0
 73
    2
 44
1
  0
LINE
  5
344
100
AcDbEntity
  8
0
  6
ByLayer
 62
  256
370
   -1
100
AcDbLine
 10
28.8
 20
16.6
 11
29.4
 21
16.6
  0
LINE
  5
345
100
AcDbEntity
  8
0
  6
ByLayer
 62
  256
370
   -1
100
AcDbLine
 10
29.4
 20
16.6
 11
29.4
 21
16.2
  0
LINE
  5
346
100
AcDbEntity
  8
0
  6
ByLayer
 62
  256
370
   -1
100
AcDbLine
 10
7.304285133333339
 20
16.2
 11
8.304285133333339
 21
16.2
  0
LINE
  5
347
100
AcDbEntity
  8
0
  6
ByLayer
 62
  256
370
   -1
100
AcDbLine
 10
6.904285133333337
 20
14.8
 11
6.904285133333337
 21
14.4
  0
LINE
  5
348
100
AcDbEntity
  8
0
  6
ByLayer
 62
  256
370
   -1
100
AcDbLine
 10
6.904285133333337
 20
14.4
 11
6.904285133333337
 21
14
  0
LINE
  5
349
100
AcDbEntity
  8
0
  6
ByLayer
 62
  256
370
   -1
100
AcDbLine
 10
6.904285133333337
 20
14
 11
6.904285133333337
 21
13.6
  0
LINE
  5
34A
100
AcDbEntity
  8
0
  6
ByLayer
 62
  256
370
   -1
100
AcDbLine
 10
7.304285133333339
 20
14.8
 11
6.904285133333337
 21
14.8
  0
LINE
  5
34B
100
AcDbEntity
  8
0
  6
ByLayer
 62
  256
370
   -1
100
AcDbLine
 10
7.304285133333339
 20
13.6
 11
6.904285133333337
 21
13.6
  0
MTEXT
  5
34C
100
AcDbEntity
  8
0
  6
ByLayer
 62
  256
370
   -1
100
AcDbMText
 10
7.104285133333329
 20
14.6
 30
0
 40
0.15
 41
0.2357143333333333
 71
    5
 72
    1
  1
d5
  7
romans
210
0
220
0
230
1
 50
0
 73
    2
 44
1
  0
MTEXT
  5
34D
100
AcDbEntity
  8
0
  6
ByLayer
 62
  256
370
   -1
100
AcDbMText
 10
7.104285133333329
 20
14.2
 30
0
 40
0.15
 41
0.2285715
 71
    5
 72
    1
  1
d6
  7
romans
210
0
220
0
230
1
 50
0
 73
    2
 44
1
  0
MTEXT
  5
34E
100
AcDbEntity
  8
0
  6
ByLayer
 62
  256
370
   -1
100
AcDbMText
 10
7.104285133333329
 20
13.8
 30
0
 40
0.15
 41
0.2357143333333333
 71
    5
 72
    1
  1
d7
  7
romans
210
0
220
0
230
1
 50
0
 73
    2
 44
1
  0
LINE
  5
34F
100
AcDbEntity
  8
0
  6
ByLayer
 62
  256
370
   -1
100
AcDbLine
 10
4.304285133333339
 20
15
 11
4.304285133333339
 21
14.6
  0
LINE
  5
350
100
AcDbEntity
  8
0
  6
ByLayer
 62
  256
370
   -1
100
AcDbLine
 10
4.704285133333338
 20
16.4
 11
4.304285133333339
 21
16.4
  0
LINE
  5
351
100
AcDbEntity
  8
0
  6
ByLayer
 62
  256
370
   -1
100
AcDbLine
 10
4.704285133333338
 20
16.4
 11
4.704285133333338
 21
16
  0
LINE
  5
352
100
AcDbEntity
  8
0
  6
ByLayer
 62
  256
370
   -1
100
AcDbLine
 10
4.704285133333338
 20
16
 11
4.304285133333339
 21
16
  0
MTEXT
  5
353
100
AcDbEntity
  8
0
  6
ByLayer
 62
  256
370
   -1
100
AcDbMText
 10
4.504285133333338
 20
16.2
 30
0
 40
0.15
 41
0.3214286666666667
 71
    5
 72
    1
  1
d10
  7
romans
210
0
220
0
230
1
 50
0
 73
    2
 44
1
  0
LINE
  5
354
100
AcDbEntity
  8
0
  6
ByLayer
 62
  256
370
   -1
100
AcDbLine
 10
4.705713511111108
 20
14.4
 11
4.305713511111117
 21
14.4
  0
LINE
  5
355
100
AcDbEntity
  8
0
  6
ByLayer
 62
  256
370
   -1
100
AcDbLine
 10
4.705713511111108
 20
14.4
 11
4.705713511111108
 21
14
  0
LINE
  5
356
100
AcDbEntity
  8
0
  6
ByLayer
 62
  256
370
   -1
100
AcDbLine
 10
4.705713511111108
 20
14
 11
4.705713511111108
 21
13.6
  0
LINE
  5
357
100
AcDbEntity
  8
0
  6
ByLayer
 62
  256
370
   -1
100
AcDbLine
 10
4.705713511111108
 20
13.6
 11
4.305713511111117
 21
13.6
  0
MTEXT
  5
358
100
AcDbEntity
  8
0
  6
ByLayer
 62
  256
370
   -1
100
AcDbMText
 10
4.505713511111109
 20
14.2
 30
0
 40
0.15
 41
0.2428571666666667
 71
    5
 72
    1
  1
29
  7
romans
210
0
220
0
230
1
 50
0
 73
    2
 44
1
  0
MTEXT
  5
359
100
AcDbEntity
  8
0
  6
ByLayer
 62
  256
370
   -1
100
AcDbMText
 10
4.505713511111109
 20
13.8
 30
0
 40
0.15
 41
0.25
 71
    5
 72
    1
  1
30
  7
romans
210
0
220
0
230
1
 50
0
 73
    2
 44
1
  0
LINE
  5
35A
100
AcDbEntity
  8
0
  6
ByLayer
 62
  256
370
   -1
100
AcDbLine
 10
4.305713511111117
 20
13.8
 11
3.505713511111109
 21
13.8
  0
LINE
  5
35B
100
AcDbEntity
  8
0
  6
ByLayer
 62
  256
370
   -1
100
AcDbLine
 10
3.505713511111109
 20
13.8
 11
3.305713511111117
 21
13.95
  0
LINE
  5
35C
100
AcDbEntity
  8
0
  6
ByLayer
 62
  256
370
   -1
100
AcDbLine
 10
3.505713511111109
 20
13.8
 11
3.305713511111117
 21
13.65
  0
LINE
  5
35D
100
AcDbEntity
  8
0
  6
ByLayer
 62
  256
370
   -1
100
AcDbLine
 10
3.305713511111117
 20
13.65
 11
2.205713511111108
 21
13.65
  0
LINE
  5
35E
100
AcDbEntity
  8
0
  6
ByLayer
 62
  256
370
   -1
100
AcDbLine
 10
2.205713511111108
 20
13.95
 11
2.205713511111108
 21
13.65
  0
MTEXT
  5
35F
100
AcDbEntity
  8
0
  6
ByLayer
 62
  256
370
   -1
100
AcDbMText
 10
3.005713511111109
 20
13.8
 30
0
 40
0.15
 41
0.4071428333333333
 71
    5
 72
    1
  1
GND
  7
romans
210
0
220
0
230
1
 50
0
 73
    2
 44
1
  0
LINE
  5
360
100
AcDbEntity
  8
0
  6
ByLayer
 62
  256
370
   -1
100
AcDbLine
 10
4.305713511111117
 20
15.6
 11
4.305713511111117
 21
15.2
  0
LINE
  5
361
100
AcDbEntity
  8
0
  6
ByLayer
 62
  256
370
   -1
100
AcDbLine
 10
4.305713511111117
 20
15.2
 11
4.305713511111117
 21
14.8
  0
LINE
  5
362
100
AcDbEntity
  8
0
  6
ByLayer
 62
  256
370
   -1
100
AcDbLine
 10
4.705713511111108
 20
15.6
 11
4.305713511111117
 21
15.6
  0
LINE
  5
363
100
AcDbEntity
  8
0
  6
ByLayer
 62
  256
370
   -1
100
AcDbLine
 10
4.705713511111108
 20
15.6
 11
4.705713511111108
 21
15.2
  0
LINE
  5
364
100
AcDbEntity
  8
0
  6
ByLayer
 62
  256
370
   -1
100
AcDbLine
 10
4.705713511111108
 20
15.2
 11
4.705713511111108
 21
14.8
  0
LINE
  5
365
100
AcDbEntity
  8
0
  6
ByLayer
 62
  256
370
   -1
100
AcDbLine
 10
4.705713511111108
 20
14.8
 11
4.305713511111117
 21
14.8
  0
MTEXT
  5
366
100
AcDbEntity
  8
0
  6
ByLayer
 62
  256
370
   -1
100
AcDbMText
 10
4.505713511111109
 20
15.4
 30
0
 40
0.15
 41
0.2428571666666666
 71
    5
 72
    1
  1
a4
  7
romans
210
0
220
0
230
1
 50
0
 73
    2
 44
1
  0
MTEXT
  5
367
100
AcDbEntity
  8
0
  6
ByLayer
 62
  256
370
   -1
100
AcDbMText
 10
4.505713511111109
 20
15
 30
0
 40
0.15
 41
0.2357143333333333
 71
    5
 72
    1
  1
a5
  7
romans
210
0
220
0
230
1
 50
0
 73
    2
 44
1
  0
LWPOLYLINE
  5
368
100
AcDbEntity
  8
0
  6
ByLayer
 62
  256
370
   -1
100
AcDbPolyline
 90
    4
 70
    1
 43
0
 10
7.302856755555558
 20
16.8
 10
4.302856755555558
 20
16.8
 10
4.304285133333339
 20
13.2
 10
7.304285133333339
 20
13.2
  0
LINE
  5
369
100
AcDbEntity
  8
0
  6
ByLayer
 62
  256
370
   -1
100
AcDbLine
 10
8.302856755555554
 20
16.2
 11
8.502856755555554
 21
16.35
  0
LINE
  5
36A
100
AcDbEntity
  8
0
  6
ByLayer
 62
  256
370
   -1
100
AcDbLine
 10
8.302856755555554
 20
16.2
 11
8.502856755555554
 21
16.05
  0
LINE
  5
36B
100
AcDbEntity
  8
0
  6
ByLayer
 62
  256
370
   -1
100
AcDbLine
 10
8.502856755555554
 20
16.05
 11
9.002856755555554
 21
16.05
  0
LINE
  5
36C
100
AcDbEntity
  8
0
  6
ByLayer
 62
  256
370
   -1
100
AcDbLine
 10
8.502856755555554
 20
16.35
 11
9.002856755555554
 21
16.35
  0
LINE
  5
36D
100
AcDbEntity
  8
0
  6
ByLayer
 62
  256
370
   -1
100
AcDbLine
 10
9.002856755555554
 20
16.35
 11
9.002856755555554
 21
16.05
  0
MTEXT
  5
36E
100
AcDbEntity
  8
0
  6
ByLayer
 62
  256
370
   -1
100
AcDbMText
 10
8.702856755555553
 20
16.2
 30
0
 40
0.15
 41
0.4071428333333333
 71
    5
 72
    1
  1
GND
  7
romans
210
0
220
0
230
1
 50
0
 73
    2
 44
1
  0
LINE
  5
36F
100
AcDbEntity
  8
0
  6
ByLayer
 62
  256
370
   -1
100
AcDbLine
 10
6.704285133333338
 20
16.4
 11
6.704285133333338
 21
16
  0
LINE
  5
370
100
AcDbEntity
  8
0
  6
ByLayer
 62
  256
370
   -1
100
AcDbLine
 10
6.704285133333338
 20
16
 11
6.704285133333338
 21
15.6
  0
LINE
  5
371
100
AcDbEntity
  8
0
  6
ByLayer
 62
  256
370
   -1
100
AcDbLine
 10
7.304285133333339
 20
16.4
 11
6.70285675555556
 21
16.4
  0
MTEXT
  5
372
100
AcDbEntity
  8
0
  6
ByLayer
 62
  256
370
   -1
100
AcDbMText
 10
7.002856755555561
 20
16.2
 30
0
 40
0.15
 41
0.3500001666666667
 71
    5
 72
    1
  1
gnd
  7
romans
210
0
220
0
230
1
 50
0
 73
    2
 44
1
  0
MTEXT
  5
373
100
AcDbEntity
  8
0
  6
ByLayer
 62
  256
370
   -1
100
AcDbMText
 10
4.30285675555556
 20
16.9
 30
0
 40
0.2
 41
2.9571434
 71
    7
 72
    1
  1
Arduino Uno Elegoo
  7
romans
210
0
220
0
230
1
 50
0
 73
    2
 44
1
  0
MTEXT
  5
374
100
AcDbEntity
  8
0
  6
ByLayer
 62
  256
370
   -1
100
AcDbMText
 10
7.002856755555561
 20
15.8
 30
0
 40
0.15
 41
0.2642856666666666
 71
    5
 72
    1
  1
5V
  7
romans
210
0
220
0
230
1
 50
0
 73
    2
 44
1
  0
LINE
  5
375
100
AcDbEntity
  8
0
  6
ByLayer
 62
  256
370
   -1
100
AcDbLine
 10
6.704285133333338
 20
15.6
 11
6.704285133333338
 21
15.6
  0
LINE
  5
376
100
AcDbEntity
  8
0
  6
ByLayer
 62
  256
370
   -1
100
AcDbLine
 10
7.302856755555558
 20
15.6
 11
6.702856755555556
 21
15.6
  0
LINE
  5
377
100
AcDbEntity
  8
0
  6
ByLayer
 62
  256
370
   -1
100
AcDbLine
 10
7.302856755555561
 20
15.8
 11
8.302856755555561
 21
15.8
  0
LINE
  5
378
100
AcDbEntity
  8
0
  6
ByLayer
 62
  256
370
   -1
100
AcDbLine
 10
8.301428377777777
 20
15.8
 11
8.501428377777776
 21
15.95
  0
LINE
  5
379
100
AcDbEntity
  8
0
  6
ByLayer
 62
  256
370
   -1
100
AcDbLine
 10
8.301428377777777
 20
15.8
 11
8.501428377777776
 21
15.65
  0
LINE
  5
37A
100
AcDbEntity
  8
0
  6
ByLayer
 62
  256
370
   -1
100
AcDbLine
 10
8.501428377777776
 20
15.65
 11
9.001428377777776
 21
15.65
  0
LINE
  5
37B
100
AcDbEntity
  8
0
  6
ByLayer
 62
  256
370
   -1
100
AcDbLine
 10
8.501428377777776
 20
15.95
 11
9.001428377777776
 21
15.95
  0
LINE
  5
37C
100
AcDbEntity
  8
0
  6
ByLayer
 62
  256
370
   -1
100
AcDbLine
 10
9.001428377777776
 20
15.95
 11
9.001428377777776
 21
15.65
  0
MTEXT
  5
37D
100
AcDbEntity
  8
0
  6
ByLayer
 62
  256
370
   -1
100
AcDbMText
 10
8.701428377777775
 20
15.8
 30
0
 40
0.15
 41
0.2642856666666666
 71
    5
 72
    1
  1
5V
  7
romans
210
0
220
0
230
1
 50
0
 73
    2
 44
1
  0
LINE
  5
37E
100
AcDbEntity
  8
0
  6
ByLayer
 62
  256
370
   -1
100
AcDbLine
 10
7.304285133333339
 20
11.2
 11
8.304285133333339
 21
11.2
  0
LINE
  5
37F
100
AcDbEntity
  8
0
  6
ByLayer
 62
  256
370
   -1
100
AcDbLine
 10
4.304285133333339
 20
10
 11
4.304285133333339
 21
9.600000000000001
  0
LINE
  5
380
100
AcDbEntity
  8
0
  6
ByLayer
 62
  256
370
   -1
100
AcDbLine
 10
4.305713511111117
 20
8.800000000000002
 11
3.505713511111109
 21
8.800000000000002
  0
LINE
  5
381
100
AcDbEntity
  8
0
  6
ByLayer
 62
  256
370
   -1
100
AcDbLine
 10
4.305713511111117
 20
10.6
 11
4.305713511111117
 21
10.2
  0
LINE
  5
382
100
AcDbEntity
  8
0
  6
ByLayer
 62
  256
370
   -1
100
AcDbLine
 10
4.305713511111117
 20
10.2
 11
4.305713511111117
 21
9.800000000000001
  0
LINE
  5
383
100
AcDbEntity
  8
0
  6
ByLayer
 62
  256
370
   -1
100
AcDbLine
 10
6.704285133333338
 20
11.4
 11
6.704285133333338
 21
11
  0
LINE
  5
384
100
AcDbEntity
  8
0
  6
ByLayer
 62
  256
370
   -1
100
AcDbLine
 10
6.704285133333338
 20
11
 11
6.704285133333338
 21
10.6
  0
LINE
  5
385
100
AcDbEntity
  8
0
  6
ByLayer
 62
  256
370
   -1
100
AcDbLine
 10
7.304285133333339
 20
11.4
 11
6.70285675555556
 21
11.4
  0
MTEXT
  5
386
100
AcDbEntity
  8
0
  6
ByLayer
 62
  256
370
   -1
100
AcDbMText
 10
7.002856755555561
 20
11.2
 30
0
 40
0.15
 41
0.3500001666666667
 71
    5
 72
    1
  1
gnd
  7
romans
210
0
220
0
230
1
 50
0
 73
    2
 44
1
  0
MTEXT
  5
387
100
AcDbEntity
  8
0
  6
ByLayer
 62
  256
370
   -1
100
AcDbMText
 10
7.002856755555561
 20
10.8
 30
0
 40
0.15
 41
0.2642856666666666
 71
    5
 72
    1
  1
5V
  7
romans
210
0
220
0
230
1
 50
0
 73
    2
 44
1
  0
LINE
  5
388
100
AcDbEntity
  8
0
  6
ByLayer
 62
  256
370
   -1
100
AcDbLine
 10
6.704285133333338
 20
10.6
 11
6.704285133333338
 21
10.6
  0
LINE
  5
389
100
AcDbEntity
  8
0
  6
ByLayer
 62
  256
370
   -1
100
AcDbLine
 10
7.302856755555558
 20
10.6
 11
6.702856755555556
 21
10.6
  0
LINE
  5
38A
100
AcDbEntity
  8
0
  6
ByLayer
 62
  256
370
   -1
100
AcDbLine
 10
7.302856755555561
 20
10.8
 11
8.302856755555561
 21
10.8
  0
MTEXT
  5
38B
100
AcDbEntity
  8
0
  6
ByLayer
 62
  256
370
   -1
100
AcDbMText
 10
6.902856755555559
 20
9.600000000000001
 30
0
 40
0.15
 41
0.5982143833333333
 71
    5
 72
    1
  1
Vin +
  7
romans
210
0
220
0
230
1
 50
0
 73
    2
 44
1
  0
MTEXT
  5
38C
100
AcDbEntity
  8
0
  6
ByLayer
 62
  256
370
   -1
100
AcDbMText
 10
6.902856755555559
 20
9.200000000000001
 30
0
 40
0.15
 41
0.5982143833333333
 71
    5
 72
    1
  1
Vin -
  7
romans
210
0
220
0
230
1
 50
0
 73
    2
 44
1
  0
LINE
  5
38D
100
AcDbEntity
  8
0
  6
ByLayer
 62
  256
370
   -1
100
AcDbLine
 10
6.502856755555561
 20
9.800000000000001
 11
6.502856755555561
 21
9.4
  0
LINE
  5
38E
100
AcDbEntity
  8
0
  6
ByLayer
 62
  256
370
   -1
100
AcDbLine
 10
6.502856755555561
 20
9.4
 11
6.502856755555561
 21
9
  0
LINE
  5
38F
100
AcDbEntity
  8
0
  6
ByLayer
 62
  256
370
   -1
100
AcDbLine
 10
7.304285133333339
 20
9.800000000000001
 11
6.502856755555561
 21
9.800000000000001
  0
LINE
  5
390
100
AcDbEntity
  8
0
  6
ByLayer
 62
  256
370
   -1
100
AcDbLine
 10
7.302856755555558
 20
9
 11
6.502856755555561
 21
9
  0
MTEXT
  5
391
100
AcDbEntity
  8
0
  6
ByLayer
 62
  256
370
   -1
100
AcDbMText
 10
4.713571030555558
 20
9.575000000000001
 30
0
 40
0.15
 41
0.5928572166666667
 71
    5
 72
    1
  1
Serial
  7
romans
210
0
220
0
230
1
 50
0
 73
    2
 44
1
  0
MTEXT
  5
392
100
AcDbEntity
  8
0
  6
ByLayer
 62
  256
370
   -1
100
AcDbMText
 10
4.705713511111108
 20
8.800000000000001
 30
0
 40
0.15
 41
0.1285715
 71
    5
 72
    1
  1
+
  7
romans
210
0
220
0
230
1
 50
0
 73
    2
 44
1
  0
MTEXT
  5
393
100
AcDbEntity
  8
0
  6
ByLayer
 62
  256
370
   -1
100
AcDbMText
 10
4.705713511111108
 20
9.200000000000001
 30
0
 40
0.15
 41
0.1285715
 71
    5
 72
    1
  1
-
  7
romans
210
0
220
0
230
1
 50
0
 73
    2
 44
1
  0
LINE
  5
394
100
AcDbEntity
  8
0
  6
ByLayer
 62
  256
370
   -1
100
AcDbLine
 10
5.102856755555559
 20
8.600000000000001
 11
4.305713511111117
 21
8.600000000000001
  0
LINE
  5
395
100
AcDbEntity
  8
0
  6
ByLayer
 62
  256
370
   -1
100
AcDbLine
 10
5.102856755555559
 20
9.800000000000001
 11
4.305713511111117
 21
9.800000000000001
  0
LINE
  5
396
100
AcDbEntity
  8
0
  6
ByLayer
 62
  256
370
   -1
100
AcDbLine
 10
5.102856755555559
 20
9.800000000000001
 11
5.102856755555559
 21
9.4
  0
LINE
  5
397
100
AcDbEntity
  8
0
  6
ByLayer
 62
  256
370
   -1
100
AcDbLine
 10
5.102856755555559
 20
9.4
 11
5.102856755555559
 21
9
  0
LINE
  5
398
100
AcDbEntity
  8
0
  6
ByLayer
 62
  256
370
   -1
100
AcDbLine
 10
5.102856755555559
 20
9
 11
5.102856755555559
 21
8.6
  0
LINE
  5
399
100
AcDbEntity
  8
0
  6
ByLayer
 62
  256
370
   -1
100
AcDbLine
 10
4.305713511111117
 20
9.200000000000003
 11
3.505713511111109
 21
9.200000000000003
  0
LINE
  5
39A
100
AcDbEntity
  8
0
  6
ByLayer
 62
  256
370
   -1
100
AcDbLine
 10
4.307141888888896
 20
9.600000000000003
 11
3.507141888888889
 21
9.600000000000003
  0
LWPOLYLINE
  5
39B
100
AcDbEntity
  8
0
  6
ByLayer
 62
  256
370
   -1
100
AcDbPolyline
 90
    4
 70
    1
 43
0
 10
3.502856755555559
 20
9.700000000000001
 10
2.70285675555556
 20
9.700000000000001
 10
2.70285675555556
 20
8.600000000000001
 10
3.502856755555559
 20
8.600000000000001
  0
MTEXT
  5
39C
100
AcDbEntity
  8
0
  6
ByLayer
 62
  256
370
   -1
100
AcDbMText
 10
5.002856755555559
 20
11.9
 30
0
 40
0.2
 41
1.673809622222222
 71
    7
 72
    1
  1
OpenCr 2.0
  7
romans
210
0
220
0
230
1
 50
0
 73
    2
 44
1
  0
LINE
  5
39D
100
AcDbEntity
  8
0
  6
ByLayer
 62
  256
370
   -1
100
AcDbLine
 10
4.301428377777782
 20
11.7
 11
4.301428377777782
 21
11.3
  0
LINE
  5
39E
100
AcDbEntity
  8
0
  6
ByLayer
 62
  256
370
   -1
100
AcDbLine
 10
4.30285675555556
 20
10.5
 11
3.502856755555552
 21
10.5
  0
MTEXT
  5
39F
100
AcDbEntity
  8
0
  6
ByLayer
 62
  256
370
   -1
100
AcDbMText
 10
4.710714275000001
 20
11.275
 30
0
 40
0.15
 41
0.5928572166666667
 71
    5
 72
    1
  1
Serial
  7
romans
210
0
220
0
230
1
 50
0
 73
    2
 44
1
  0
MTEXT
  5
3A0
100
AcDbEntity
  8
0
  6
ByLayer
 62
  256
370
   -1
100
AcDbMText
 10
4.702856755555551
 20
10.5
 30
0
 40
0.15
 41
0.1285715
 71
    5
 72
    1
  1
+
  7
romans
210
0
220
0
230
1
 50
0
 73
    2
 44
1
  0
MTEXT
  5
3A1
100
AcDbEntity
  8
0
  6
ByLayer
 62
  256
370
   -1
100
AcDbMText
 10
4.702856755555551
 20
10.9
 30
0
 40
0.15
 41
0.1285715
 71
    5
 72
    1
  1
-
  7
romans
210
0
220
0
230
1
 50
0
 73
    2
 44
1
  0
LINE
  5
3A2
100
AcDbEntity
  8
0
  6
ByLayer
 62
  256
370
   -1
100
AcDbLine
 10
5.100000000000001
 20
10.3
 11
4.30285675555556
 21
10.3
  0
LINE
  5
3A3
100
AcDbEntity
  8
0
  6
ByLayer
 62
  256
370
   -1
100
AcDbLine
 10
5.100000000000001
 20
11.5
 11
4.30285675555556
 21
11.5
  0
LINE
  5
3A4
100
AcDbEntity
  8
0
  6
ByLayer
 62
  256
370
   -1
100
AcDbLine
 10
5.100000000000001
 20
11.5
 11
5.100000000000001
 21
11.1
  0
LINE
  5
3A5
100
AcDbEntity
  8
0
  6
ByLayer
 62
  256
370
   -1
100
AcDbLine
 10
5.100000000000001
 20
11.1
 11
5.100000000000001
 21
10.7
  0
LINE
  5
3A6
100
AcDbEntity
  8
0
  6
ByLayer
 62
  256
370
   -1
100
AcDbLine
 10
5.100000000000001
 20
10.7
 11
5.100000000000001
 21
10.3
  0
LINE
  5
3A7
100
AcDbEntity
  8
0
  6
ByLayer
 62
  256
370
   -1
100
AcDbLine
 10
4.30285675555556
 20
10.9
 11
3.502856755555552
 21
10.9
  0
LINE
  5
3A8
100
AcDbEntity
  8
0
  6
ByLayer
 62
  256
370
   -1
100
AcDbLine
 10
4.304285133333339
 20
11.3
 11
3.504285133333331
 21
11.3
  0
LWPOLYLINE
  5
3A9
100
AcDbEntity
  8
0
  6
ByLayer
 62
  256
370
   -1
100
AcDbPolyline
 90
    4
 70
    1
 43
0
 10
3.500000000000002
 20
11.4
 10
2.700000000000003
 20
11.4
 10
2.700000000000003
 20
10.3
 10
3.500000000000002
 20
10.3
  0
MTEXT
  5
3AA
100
AcDbEntity
  8
0
  6
ByLayer
 62
  256
370
   -1
100
AcDbMText
 10
2.600000000000001
 20
11.5
 30
0
 40
0.2
 41
1.016666888888889
 71
    7
 72
    1
  1
wheel 1
  7
romans
210
0
220
0
230
1
 50
0
 73
    2
 44
1
  0
MTEXT
  5
3AB
100
AcDbEntity
  8
0
  6
ByLayer
 62
  256
370
   -1
100
AcDbMText
 10
2.602856755555559
 20
9.800000000000001
 30
0
 40
0.2
 41
1.102381111111111
 71
    7
 72
    1
  1
wheel 2
  7
romans
210
0
220
0
230
1
 50
0
 73
    2
 44
1
  0
LINE
  5
3AC
100
AcDbEntity
  8
0
  6
ByLayer
 62
  256
370
   -1
100
AcDbLine
 10
8.304285133333339
 20
11.2
 11
8.504285133333338
 21
11.35
  0
LINE
  5
3AD
100
AcDbEntity
  8
0
  6
ByLayer
 62
  256
370
   -1
100
AcDbLine
 10
8.304285133333339
 20
11.2
 11
8.504285133333338
 21
11.05
  0
LINE
  5
3AE
100
AcDbEntity
  8
0
  6
ByLayer
 62
  256
370
   -1
100
AcDbLine
 10
8.504285133333338
 20
11.05
 11
9.004285133333338
 21
11.05
  0
LINE
  5
3AF
100
AcDbEntity
  8
0
  6
ByLayer
 62
  256
370
   -1
100
AcDbLine
 10
8.504285133333338
 20
11.35
 11
9.004285133333338
 21
11.35
  0
LINE
  5
3B0
100
AcDbEntity
  8
0
  6
ByLayer
 62
  256
370
   -1
100
AcDbLine
 10
9.004285133333338
 20
11.35
 11
9.004285133333338
 21
11.05
  0
MTEXT
  5
3B1
100
AcDbEntity
  8
0
  6
ByLayer
 62
  256
370
   -1
100
AcDbMText
 10
8.704285133333338
 20
11.2
 30
0
 40
0.15
 41
0.4071428333333333
 71
    5
 72
    1
  1
GND
  7
romans
210
0
220
0
230
1
 50
0
 73
    2
 44
1
  0
LINE
  5
3B2
100
AcDbEntity
  8
0
  6
ByLayer
 62
  256
370
   -1
100
AcDbLine
 10
8.302856755555561
 20
10.8
 11
8.502856755555561
 21
10.95
  0
LINE
  5
3B3
100
AcDbEntity
  8
0
  6
ByLayer
 62
  256
370
   -1
100
AcDbLine
 10
8.302856755555561
 20
10.8
 11
8.502856755555561
 21
10.65
  0
LINE
  5
3B4
100
AcDbEntity
  8
0
  6
ByLayer
 62
  256
370
   -1
100
AcDbLine
 10
8.502856755555561
 20
10.65
 11
9.002856755555561
 21
10.65
  0
LINE
  5
3B5
100
AcDbEntity
  8
0
  6
ByLayer
 62
  256
370
   -1
100
AcDbLine
 10
8.502856755555561
 20
10.95
 11
9.002856755555561
 21
10.95
  0
LINE
  5
3B6
100
AcDbEntity
  8
0
  6
ByLayer
 62
  256
370
   -1
100
AcDbLine
 10
9.002856755555561
 20
10.95
 11
9.002856755555561
 21
10.65
  0
MTEXT
  5
3B7
100
AcDbEntity
  8
0
  6
ByLayer
 62
  256
370
   -1
100
AcDbMText
 10
8.70285675555556
 20
10.8
 30
0
 40
0.15
 41
0.2642856666666666
 71
    5
 72
    1
  1
5V
  7
romans
210
0
220
0
230
1
 50
0
 73
    2
 44
1
  0
MTEXT
  5
3B8
100
AcDbEntity
  8
0
  6
ByLayer
 62
  256
370
   -1
100
AcDbMText
 10
4.802856755555556
 20
19.1
 30
0
 40
0.2
 41
2.350000288888889
 71
    7
 72
    1
  1
LiDAR Breakout
  7
romans
210
0
220
0
230
1
 50
0
 73
    2
 44
1
  0
LINE
  5
3B9
100
AcDbEntity
  8
0
  6
ByLayer
 62
  256
370
   -1
100
AcDbLine
 10
5.704285133333338
 20
18.8
 11
5.704285133333338
 21
18.4
  0
LINE
  5
3BA
100
AcDbEntity
  8
0
  6
ByLayer
 62
  256
370
   -1
100
AcDbLine
 10
5.704285133333338
 20
18.4
 11
5.704285133333338
 21
18
  0
LINE
  5
3BB
100
AcDbEntity
  8
0
  6
ByLayer
 62
  256
370
   -1
100
AcDbLine
 10
6.304285133333339
 20
18.8
 11
5.70285675555556
 21
18.8
  0
MTEXT
  5
3BC
100
AcDbEntity
  8
0
  6
ByLayer
 62
  256
370
   -1
100
AcDbMText
 10
6.002856755555561
 20
18.2
 30
0
 40
0.15
 41
0.2642856666666666
 71
    5
 72
    1
  1
5V
  7
romans
210
0
220
0
230
1
 50
0
 73
    2
 44
1
  0
LINE
  5
3BD
100
AcDbEntity
  8
0
  6
ByLayer
 62
  256
370
   -1
100
AcDbLine
 10
5.704285133333338
 20
18
 11
5.704285133333338
 21
18
  0
LINE
  5
3BE
100
AcDbEntity
  8
0
  6
ByLayer
 62
  256
370
   -1
100
AcDbLine
 10
6.302856755555558
 20
18
 11
5.702856755555556
 21
18
  0
LWPOLYLINE
  5
3BF
100
AcDbEntity
  8
0
  6
ByLayer
 62
  256
370
   -1
100
AcDbPolyline
 90
    4
 70
    1
 43
0
 10
6.299999999999999
 20
19
 10
5.5
 20
19
 10
5.502856755555557
 20
17.8
 10
6.302856755555558
 20
17.8
  0
MTEXT
  5
3C0
100
AcDbEntity
  8
0
  6
ByLayer
 62
  256
370
   -1
100
AcDbMText
 10
6.002856755555555
 20
18.6
 30
0
 40
0.15
 41
0.3500001666666667
 71
    5
 72
    1
  1
gnd
  7
romans
210
0
220
0
230
1
 50
0
 73
    2
 44
1
  0
LINE
  5
3C1
100
AcDbEntity
  8
0
  6
ByLayer
 62
  256
370
   -1
100
AcDbLine
 10
6.302856755555556
 20
18.6
 11
7.302856755555558
 21
18.6
  0
LINE
  5
3C2
100
AcDbEntity
  8
0
  6
ByLayer
 62
  256
370
   -1
100
AcDbLine
 10
7.301428377777773
 20
18.6
 11
7.501428377777769
 21
18.75
  0
LINE
  5
3C3
100
AcDbEntity
  8
0
  6
ByLayer
 62
  256
370
   -1
100
AcDbLine
 10
7.301428377777773
 20
18.6
 11
7.501428377777769
 21
18.45
  0
LINE
  5
3C4
100
AcDbEntity
  8
0
  6
ByLayer
 62
  256
370
   -1
100
AcDbLine
 10
7.501428377777769
 20
18.45
 11
8.001428377777769
 21
18.45
  0
LINE
  5
3C5
100
AcDbEntity
  8
0
  6
ByLayer
 62
  256
370
   -1
100
AcDbLine
 10
7.501428377777769
 20
18.75
 11
8.001428377777769
 21
18.75
  0
LINE
  5
3C6
100
AcDbEntity
  8
0
  6
ByLayer
 62
  256
370
   -1
100
AcDbLine
 10
8.001428377777769
 20
18.75
 11
8.001428377777769
 21
18.45
  0
MTEXT
  5
3C7
100
AcDbEntity
  8
0
  6
ByLayer
 62
  256
370
   -1
100
AcDbMText
 10
7.701428377777772
 20
18.6
 30
0
 40
0.15
 41
0.4071428333333333
 71
    5
 72
    1
  1
GND
  7
romans
210
0
220
0
230
1
 50
0
 73
    2
 44
1
  0
LINE
  5
3C8
100
AcDbEntity
  8
0
  6
ByLayer
 62
  256
370
   -1
100
AcDbLine
 10
6.301428377777778
 20
18.2
 11
7.30142837777778
 21
18.2
  0
LINE
  5
3C9
100
AcDbEntity
  8
0
  6
ByLayer
 62
  256
370
   -1
100
AcDbLine
 10
7.299999999999995
 20
18.2
 11
7.499999999999991
 21
18.35
  0
LINE
  5
3CA
100
AcDbEntity
  8
0
  6
ByLayer
 62
  256
370
   -1
100
AcDbLine
 10
7.299999999999995
 20
18.2
 11
7.499999999999991
 21
18.05
  0
LINE
  5
3CB
100
AcDbEntity
  8
0
  6
ByLayer
 62
  256
370
   -1
100
AcDbLine
 10
7.499999999999991
 20
18.05
 11
7.999999999999991
 21
18.05
  0
LINE
  5
3CC
100
AcDbEntity
  8
0
  6
ByLayer
 62
  256
370
   -1
100
AcDbLine
 10
7.499999999999991
 20
18.35
 11
7.999999999999991
 21
18.35
  0
LINE
  5
3CD
100
AcDbEntity
  8
0
  6
ByLayer
 62
  256
370
   -1
100
AcDbLine
 10
7.999999999999991
 20
18.35
 11
7.999999999999991
 21
18.05
  0
MTEXT
  5
3CE
100
AcDbEntity
  8
0
  6
ByLayer
 62
  256
370
   -1
100
AcDbMText
 10
7.699999999999994
 20
18.2
 30
0
 40
0.15
 41
0.2642856666666666
 71
    5
 72
    1
  1
5V
  7
romans
210
0
220
0
230
1
 50
0
 73
    2
 44
1
  0
LINE
  5
3CF
100
AcDbEntity
  8
0
  6
ByLayer
 62
  256
370
   -1
100
AcDbLine
 10
3.305756755555558
 20
13.95
 11
2.205756755555559
 21
13.95
  0
LINE
  5
3D0
100
AcDbEntity
  8
0
  6
ByLayer
 62
  256
370
   -1
100
AcDbLine
 10
13.9
 20
10.2
 11
13.9
 21
9.800000000000002
  0
LINE
  5
3D1
100
AcDbEntity
  8
0
  6
ByLayer
 62
  256
370
   -1
100
AcDbLine
 10
13.9
 20
9.800000000000002
 11
13.9
 21
9.400000000000004
  0
LINE
  5
3D2
100
AcDbEntity
  8
0
  6
ByLayer
 62
  256
370
   -1
100
AcDbLine
 10
13.9
 20
9.400000000000004
 11
13.9
 21
9.000000000000002
  0
LINE
  5
3D3
100
AcDbEntity
  8
0
  6
ByLayer
 62
  256
370
   -1
100
AcDbLine
 10
14.5
 20
10.2
 11
13.9
 21
10.2
  0
LINE
  5
3D4
100
AcDbEntity
  8
0
  6
ByLayer
 62
  256
370
   -1
100
AcDbLine
 10
14.5
 20
9.000000000000002
 11
13.9
 21
9.000000000000002
  0
LWPOLYLINE
  5
3D5
100
AcDbEntity
  8
0
  6
ByLayer
 62
  256
370
   -1
100
AcDbPolyline
 90
    4
 70
    1
 43
0
 10
12
 20
10.4
 10
14.5
 20
10.4
 10
14.5
 20
8.800000000000002
 10
12
 20
8.800000000000001
  0
LINE
  5
3D6
100
AcDbEntity
  8
0
  6
ByLayer
 62
  256
370
   -1
100
AcDbLine
 10
12.6
 20
10.2
 11
12
 21
10.2
  0
LINE
  5
3D7
100
AcDbEntity
  8
0
  6
ByLayer
 62
  256
370
   -1
100
AcDbLine
 10
12.6
 20
9.000000000000002
 11
12
 21
9.000000000000002
  0
LINE
  5
3D8
100
AcDbEntity
  8
0
  6
ByLayer
 62
  256
370
   -1
100
AcDbLine
 10
12.6
 20
10.2
 11
12.6
 21
9.800000000000002
  0
LINE
  5
3D9
100
AcDbEntity
  8
0
  6
ByLayer
 62
  256
370
   -1
100
AcDbLine
 10
12.6
 20
9.800000000000002
 11
12.6
 21
9.400000000000004
  0
MTEXT
  5
3DA
100
AcDbEntity
  8
0
  6
ByLayer
 62
  256
370
   -1
100
AcDbMText
 10
13.36071433333333
 20
10.6
 30
0
 40
0.2
 41
1.016666888888889
 71
    5
 72
    1
  1
Relay 1
  7
romans
210
0
220
0
230
1
 50
0
 73
    2
 44
1
  0
LINE
  5
3DB
100
AcDbEntity
  8
0
  6
ByLayer
 62
  256
370
   -1
100
AcDbLine
 10
12.6
 20
9.4
 11
12.6
 21
9
  0
LINE
  5
3DC
100
AcDbEntity
  8
0
  6
ByLayer
 62
  256
370
   -1
100
AcDbLine
 10
11
 20
9.200000000000001
 11
12
 21
9.200000000000001
  0
LINE
  5
3DD
100
AcDbEntity
  8
0
  6
ByLayer
 62
  256
370
   -1
100
AcDbLine
 10
11
 20
9.200000000000001
 11
10.80000000000001
 21
9.350000000000001
  0
LINE
  5
3DE
100
AcDbEntity
  8
0
  6
ByLayer
 62
  256
370
   -1
100
AcDbLine
 10
11
 20
9.200000000000001
 11
10.80000000000001
 21
9.050000000000002
  0
LINE
  5
3DF
100
AcDbEntity
  8
0
  6
ByLayer
 62
  256
370
   -1
100
AcDbLine
 10
10.80004324444445
 20
9.35
 11
10.19714324444445
 21
9.35
  0
LINE
  5
3E0
100
AcDbEntity
  8
0
  6
ByLayer
 62
  256
370
   -1
100
AcDbLine
 10
10.80000000000001
 20
9.050000000000002
 11
10.19714324444445
 21
9.049999999999999
  0
MTEXT
  5
3E1
100
AcDbEntity
  8
0
  6
ByLayer
 62
  256
370
   -1
100
AcDbMText
 10
12.3
 20
10.00000000000001
 30
0
 40
0.15
 41
0.15
 71
    5
 72
    1
  1
IN
  7
romans
210
0
220
0
230
1
 50
0
 73
    2
 44
1
  0
MTEXT
  5
3E2
100
AcDbEntity
  8
0
  6
ByLayer
 62
  256
370
   -1
100
AcDbMText
 10
12.3
 20
9.600000000000003
 30
0
 40
0.15
 41
0.1285715
 71
    5
 72
    1
  1
+
  7
romans
210
0
220
0
230
1
 50
0
 73
    2
 44
1
  0
MTEXT
  5
3E3
100
AcDbEntity
  8
0
  6
ByLayer
 62
  256
370
   -1
100
AcDbMText
 10
12.3
 20
9.200000000000001
 30
0
 40
0.15
 41
0.1285715
 71
    5
 72
    1
  1
-
  7
romans
210
0
220
0
230
1
 50
0
 73
    2
 44
1
  0
MTEXT
  5
3E4
100
AcDbEntity
  8
0
  6
ByLayer
 62
  256
370
   -1
100
AcDbMText
 10
14.2
 20
10.00000000000001
 30
0
 40
0.15
 41
0.2571428333333333
 71
    5
 72
    1
  1
NC
  7
romans
210
0
220
0
230
1
 50
0
 73
    2
 44
1
  0
MTEXT
  5
3E5
100
AcDbEntity
  8
0
  6
ByLayer
 62
  256
370
   -1
100
AcDbMText
 10
14.2
 20
9.600000000000003
 30
0
 40
0.15
 41
0.4357141666666667
 71
    5
 72
    1
  1
COM
  7
romans
210
0
220
0
230
1
 50
0
 73
    2
 44
1
  0
MTEXT
  5
3E6
100
AcDbEntity
  8
0
  6
ByLayer
 62
  256
370
   -1
100
AcDbMText
 10
14.2
 20
9.200000000000001
 30
0
 40
0.15
 41
0.2642856666666666
 71
    5
 72
    1
  1
NO
  7
romans
210
0
220
0
230
1
 50
0
 73
    2
 44
1
  0
MTEXT
  5
3E7
100
AcDbEntity
  8
0
  6
ByLayer
 62
  256
370
   -1
100
AcDbMText
 10
10.5
 20
9.200000000000001
 30
0
 40
0.15
 41
0.4071428333333333
 71
    5
 72
    1
  1
GND
  7
romans
210
0
220
0
230
1
 50
0
 73
    2
 44
1
  0
LINE
  5
3E8
100
AcDbEntity
  8
0
  6
ByLayer
 62
  256
370
   -1
100
AcDbLine
 10
10.19714324444445
 20
9.35
 11
10.19714324444445
 21
9.049999999999999
  0
LINE
  5
3E9
100
AcDbEntity
  8
0
  6
ByLayer
 62
  256
370
   -1
100
AcDbLine
 10
14.5
 20
9.200000000000003
 11
15.1
 21
9.200000000000001
  0
LINE
  5
3EA
100
AcDbEntity
  8
0
  6
ByLayer
 62
  256
370
   -1
100
AcDbLine
 10
15.1
 20
9.200000000000001
 11
15.3
 21
9.350000000000001
  0
LINE
  5
3EB
100
AcDbEntity
  8
0
  6
ByLayer
 62
  256
370
   -1
100
AcDbLine
 10
15.1
 20
9.200000000000001
 11
15.3
 21
9.050000000000001
  0
LINE
  5
3EC
100
AcDbEntity
  8
0
  6
ByLayer
 62
  256
370
   -1
100
AcDbLine
 10
15.3
 20
9.050000000000001
 11
15.8
 21
9.050000000000001
  0
LINE
  5
3ED
100
AcDbEntity
  8
0
  6
ByLayer
 62
  256
370
   -1
100
AcDbLine
 10
15.3
 20
9.350000000000001
 11
15.8
 21
9.350000000000001
  0
LINE
  5
3EE
100
AcDbEntity
  8
0
  6
ByLayer
 62
  256
370
   -1
100
AcDbLine
 10
15.8
 20
9.350000000000001
 11
15.8
 21
9.050000000000001
  0
MTEXT
  5
3EF
100
AcDbEntity
  8
0
  6
ByLayer
 62
  256
370
   -1
100
AcDbMText
 10
15.5
 20
9.200000000000001
 30
0
 40
0.15
 41
0.4071428333333333
 71
    5
 72
    1
  1
GND
  7
romans
210
0
220
0
230
1
 50
0
 73
    2
 44
1
  0
CIRCLE
  5
3F0
100
AcDbEntity
  8
0
  6
ByLayer
 62
  256
370
   -1
100
AcDbCircle
 10
15
 20
9.600000000000001
 40
0.09999999999999964
  0
ARC
  5
3F1
100
AcDbEntity
  8
0
  6
ByLayer
 62
  256
370
   -1
100
AcDbCircle
 10
15.25000000000001
 20
9.600000000000001
 40
0.1499999999999968
100
AcDbArc
 50
0
 51
180
  0
LINE
  5
3F2
100
AcDbEntity
  8
0
  6
ByLayer
 62
  256
370
   -1
100
AcDbLine
 10
14.5
 20
9.600000000000001
 11
14.9
 21
9.600000000000001
  0
ARC
  5
3F3
100
AcDbEntity
  8
0
  6
ByLayer
 62
  256
370
   -1
100
AcDbCircle
 10
15.55
 20
9.600000000000001
 40
0.1500000000000021
100
AcDbArc
 50
180
 51
0
  0
CIRCLE
  5
3F4
100
AcDbEntity
  8
0
  6
ByLayer
 62
  256
370
   -1
100
AcDbCircle
 10
15.8
 20
9.600000000000001
 40
0.09999999999999964
  0
LINE
  5
3F5
100
AcDbEntity
  8
0
  6
ByLayer
 62
  256
370
   -1
100
AcDbLine
 10
15.90000000000001
 20
9.600000000000001
 11
16.6
 21
9.6
  0
MTEXT
  5
3F6
100
AcDbEntity
  8
0
  6
ByLayer
 62
  256
370
   -1
100
AcDbMText
 10
15.507143
 20
9.975
 30
0
 40
0.15
 41
1.453571666666667
 71
    5
 72
    1
  1
10 Amp Fuse
  7
romans
210
0
220
0
230
1
 50
0
 73
    2
 44
1
  0
LINE
  5
3F7
100
AcDbEntity
  8
0
  6
ByLayer
 62
  256
370
   -1
100
AcDbLine
 10
16.6
 20
9.9
 11
16.6
 21
9.300000000000001
  0
LINE
  5
3F8
100
AcDbEntity
  8
0
  6
ByLayer
 62
  256
370
   -1
100
AcDbLine
 10
16.7
 20
9.800000000000001
 11
16.7
 21
9.4
  0
LINE
  5
3F9
100
AcDbEntity
  8
0
  6
ByLayer
 62
  256
370
   -1
100
AcDbLine
 10
16.8
 20
9.9
 11
16.8
 21
9.300000000000001
  0
LINE
  5
3FA
100
AcDbEntity
  8
0
  6
ByLayer
 62
  256
370
   -1
100
AcDbLine
 10
16.9
 20
9.800000000000001
 11
16.9
 21
9.4
  0
LINE
  5
3FB
100
AcDbEntity
  8
0
  6
ByLayer
 62
  256
370
   -1
100
AcDbLine
 10
17.8
 20
9.6
 11
18
 21
9.75
  0
LINE
  5
3FC
100
AcDbEntity
  8
0
  6
ByLayer
 62
  256
370
   -1
100
AcDbLine
 10
17.8
 20
9.6
 11
18
 21
9.449999999999999
  0
LINE
  5
3FD
100
AcDbEntity
  8
0
  6
ByLayer
 62
  256
370
   -1
100
AcDbLine
 10
18
 20
9.449999999999999
 11
18.5
 21
9.449999999999999
  0
LINE
  5
3FE
100
AcDbEntity
  8
0
  6
ByLayer
 62
  256
370
   -1
100
AcDbLine
 10
18
 20
9.75
 11
18.5
 21
9.75
  0
LINE
  5
3FF
100
AcDbEntity
  8
0
  6
ByLayer
 62
  256
370
   -1
100
AcDbLine
 10
18.5
 20
9.75
 11
18.5
 21
9.449999999999999
  0
LINE
  5
400
100
AcDbEntity
  8
0
  6
ByLayer
 62
  256
370
   -1
100
AcDbLine
 10
16.9
 20
9.6
 11
17.8
 21
9.6
  0
MTEXT
  5
401
100
AcDbEntity
  8
0
  6
ByLayer
 62
  256
370
   -1
100
AcDbMText
 10
18.2
 20
9.6
 30
0
 40
0.15
 41
0.35
 71
    5
 72
    1
  1
12V
  7
romans
210
0
220
0
230
1
 50
0
 73
    2
 44
1
  0
MTEXT
  5
402
100
AcDbEntity
  8
0
  6
ByLayer
 62
  256
370
   -1
100
AcDbMText
 10
16.807143
 20
9.074999999999999
 30
0
 40
0.15
 41
1.1750001
 71
    5
 72
    1
  1
11.1 V LiPO
  7
romans
210
0
220
0
230
1
 50
0
 73
    2
 44
1
  0
LINE
  5
403
100
AcDbEntity
  8
0
  6
ByLayer
 62
  256
370
   -1
100
AcDbLine
 10
11.4
 20
9.600000000000001
 11
12
 21
9.600000000000001
  0
LINE
  5
404
100
AcDbEntity
  8
0
  6
ByLayer
 62
  256
370
   -1
100
AcDbLine
 10
12
 20
10
 11
11.4
 21
10
  0
LINE
  5
405
100
AcDbEntity
  8
0
  6
ByLayer
 62
  256
370
   -1
100
AcDbLine
 10
13.9
 20
14.8
 11
13.9
 21
14.4
  0
LINE
  5
406
100
AcDbEntity
  8
0
  6
ByLayer
 62
  256
370
   -1
100
AcDbLine
 10
13.9
 20
14.4
 11
13.9
 21
14
  0
LINE
  5
407
100
AcDbEntity
  8
0
  6
ByLayer
 62
  256
370
   -1
100
AcDbLine
 10
13.9
 20
14
 11
13.9
 21
13.6
  0
LINE
  5
408
100
AcDbEntity
  8
0
  6
ByLayer
 62
  256
370
   -1
100
AcDbLine
 10
14.5
 20
14.8
 11
13.9
 21
14.8
  0
LINE
  5
409
100
AcDbEntity
  8
0
  6
ByLayer
 62
  256
370
   -1
100
AcDbLine
 10
14.5
 20
13.6
 11
13.9
 21
13.6
  0
LWPOLYLINE
  5
40A
100
AcDbEntity
  8
0
  6
ByLayer
 62
  256
370
   -1
100
AcDbPolyline
 90
    4
 70
    1
 43
0
 10
12
 20
15
 10
14.5
 20
15
 10
14.5
 20
13.4
 10
12
 20
13.4
  0
LINE
  5
40B
100
AcDbEntity
  8
0
  6
ByLayer
 62
  256
370
   -1
100
AcDbLine
 10
12.6
 20
14.8
 11
12
 21
14.8
  0
LINE
  5
40C
100
AcDbEntity
  8
0
  6
ByLayer
 62
  256
370
   -1
100
AcDbLine
 10
12.6
 20
13.6
 11
12
 21
13.6
  0
LINE
  5
40D
100
AcDbEntity
  8
0
  6
ByLayer
 62
  256
370
   -1
100
AcDbLine
 10
12.6
 20
14.8
 11
12.6
 21
14.4
  0
LINE
  5
40E
100
AcDbEntity
  8
0
  6
ByLayer
 62
  256
370
   -1
100
AcDbLine
 10
12.6
 20
14.4
 11
12.6
 21
14
  0
MTEXT
  5
40F
100
AcDbEntity
  8
0
  6
ByLayer
 62
  256
370
   -1
100
AcDbMText
 10
13.36071433333333
 20
15.2
 30
0
 40
0.2
 41
1.016666888888889
 71
    5
 72
    1
  1
Relay 1
  7
romans
210
0
220
0
230
1
 50
0
 73
    2
 44
1
  0
LINE
  5
410
100
AcDbEntity
  8
0
  6
ByLayer
 62
  256
370
   -1
100
AcDbLine
 10
12.6
 20
14
 11
12.6
 21
13.6
  0
MTEXT
  5
411
100
AcDbEntity
  8
0
  6
ByLayer
 62
  256
370
   -1
100
AcDbMText
 10
14.2
 20
14.6
 30
0
 40
0.15
 41
0.2571428333333333
 71
    5
 72
    1
  1
NC
  7
romans
210
0
220
0
230
1
 50
0
 73
    2
 44
1
  0
MTEXT
  5
412
100
AcDbEntity
  8
0
  6
ByLayer
 62
  256
370
   -1
100
AcDbMText
 10
14.2
 20
14.2
 30
0
 40
0.15
 41
0.4357141666666667
 71
    5
 72
    1
  1
COM
  7
romans
210
0
220
0
230
1
 50
0
 73
    2
 44
1
  0
MTEXT
  5
413
100
AcDbEntity
  8
0
  6
ByLayer
 62
  256
370
   -1
100
AcDbMText
 10
14.2
 20
13.8
 30
0
 40
0.15
 41
0.2642856666666666
 71
    5
 72
    1
  1
NO
  7
romans
210
0
220
0
230
1
 50
0
 73
    2
 44
1
  0
MTEXT
  5
414
100
AcDbEntity
  8
0
  6
ByLayer
 62
  256
370
   -1
100
AcDbMText
 10
12.3
 20
13.8
 30
0
 40
0.15
 41
0.15
 71
    5
 72
    1
  1
IN
  7
romans
210
0
220
0
230
1
 50
0
 73
    2
 44
1
  0
LINE
  5
415
100
AcDbEntity
  8
0
  6
ByLayer
 62
  256
370
   -1
100
AcDbLine
 10
11
 20
14.6
 11
12
 21
14.6
  0
LINE
  5
416
100
AcDbEntity
  8
0
  6
ByLayer
 62
  256
370
   -1
100
AcDbLine
 10
11
 20
14.6
 11
10.80000000000001
 21
14.75
  0
LINE
  5
417
100
AcDbEntity
  8
0
  6
ByLayer
 62
  256
370
   -1
100
AcDbLine
 10
11
 20
14.6
 11
10.80000000000001
 21
14.45
  0
LINE
  5
418
100
AcDbEntity
  8
0
  6
ByLayer
 62
  256
370
   -1
100
AcDbLine
 10
10.80004324444445
 20
14.75
 11
10.19714324444445
 21
14.75
  0
LINE
  5
419
100
AcDbEntity
  8
0
  6
ByLayer
 62
  256
370
   -1
100
AcDbLine
 10
10.80000000000001
 20
14.45
 11
10.19714324444445
 21
14.45
  0
MTEXT
  5
41A
100
AcDbEntity
  8
0
  6
ByLayer
 62
  256
370
   -1
100
AcDbMText
 10
10.5
 20
14.6
 30
0
 40
0.15
 41
0.4071428333333333
 71
    5
 72
    1
  1
GND
  7
romans
210
0
220
0
230
1
 50
0
 73
    2
 44
1
  0
LINE
  5
41B
100
AcDbEntity
  8
0
  6
ByLayer
 62
  256
370
   -1
100
AcDbLine
 10
10.19714324444445
 20
14.75
 11
10.19714324444445
 21
14.45
  0
MTEXT
  5
41C
100
AcDbEntity
  8
0
  6
ByLayer
 62
  256
370
   -1
100
AcDbMText
 10
12.3
 20
14.6
 30
0
 40
0.15
 41
0.1285715
 71
    5
 72
    1
  1
-
  7
romans
210
0
220
0
230
1
 50
0
 73
    2
 44
1
  0
MTEXT
  5
41D
100
AcDbEntity
  8
0
  6
ByLayer
 62
  256
370
   -1
100
AcDbMText
 10
12.3
 20
14.2
 30
0
 40
0.15
 41
0.1285715
 71
    5
 72
    1
  1
+
  7
romans
210
0
220
0
230
1
 50
0
 73
    2
 44
1
  0
LINE
  5
41E
100
AcDbEntity
  8
0
  6
ByLayer
 62
  256
370
   -1
100
AcDbLine
 10
12
 20
14.2
 11
11.4
 21
14.2
  0
LINE
  5
41F
100
AcDbEntity
  8
0
  6
ByLayer
 62
  256
370
   -1
100
AcDbLine
 10
11.4
 20
13.8
 11
12
 21
13.8
  0
CIRCLE
  5
420
100
AcDbEntity
  8
0
  6
ByLayer
 62
  256
370
   -1
100
AcDbCircle
 10
16.5
 20
14.2
 40
0.09999999999999964
  0
ARC
  5
421
100
AcDbEntity
  8
0
  6
ByLayer
 62
  256
370
   -1
100
AcDbCircle
 10
16.75000000000001
 20
14.2
 40
0.1499999999999968
100
AcDbArc
 50
0
 51
180
  0
ARC
  5
422
100
AcDbEntity
  8
0
  6
ByLayer
 62
  256
370
   -1
100
AcDbCircle
 10
17.05
 20
14.2
 40
0.1500000000000021
100
AcDbArc
 50
180
 51
0
  0
CIRCLE
  5
423
100
AcDbEntity
  8
0
  6
ByLayer
 62
  256
370
   -1
100
AcDbCircle
 10
17.3
 20
14.2
 40
0.09999999999999964
  0
LINE
  5
424
100
AcDbEntity
  8
0
  6
ByLayer
 62
  256
370
   -1
100
AcDbLine
 10
17.40000000000001
 20
14.2
 11
18.1
 21
14.2
  0
MTEXT
  5
425
100
AcDbEntity
  8
0
  6
ByLayer
 62
  256
370
   -1
100
AcDbMText
 10
17.007143
 20
14.575
 30
0
 40
0.15
 41
1.453571666666667
 71
    5
 72
    1
  1
10 Amp Fuse
  7
romans
210
0
220
0
230
1
 50
0
 73
    2
 44
1
  0
LINE
  5
426
100
AcDbEntity
  8
0
  6
ByLayer
 62
  256
370
   -1
100
AcDbLine
 10
18.09999999999999
 20
14.5
 11
18.09999999999999
 21
13.9
  0
LINE
  5
427
100
AcDbEntity
  8
0
  6
ByLayer
 62
  256
370
   -1
100
AcDbLine
 10
18.2
 20
14.4
 11
18.2
 21
14
  0
LINE
  5
428
100
AcDbEntity
  8
0
  6
ByLayer
 62
  256
370
   -1
100
AcDbLine
 10
18.3
 20
14.5
 11
18.3
 21
13.9
  0
LINE
  5
429
100
AcDbEntity
  8
0
  6
ByLayer
 62
  256
370
   -1
100
AcDbLine
 10
18.4
 20
14.4
 11
18.4
 21
14
  0
LINE
  5
42A
100
AcDbEntity
  8
0
  6
ByLayer
 62
  256
370
   -1
100
AcDbLine
 10
19.3
 20
14.2
 11
19.5
 21
14.35
  0
LINE
  5
42B
100
AcDbEntity
  8
0
  6
ByLayer
 62
  256
370
   -1
100
AcDbLine
 10
19.3
 20
14.2
 11
19.5
 21
14.05
  0
LINE
  5
42C
100
AcDbEntity
  8
0
  6
ByLayer
 62
  256
370
   -1
100
AcDbLine
 10
18.4
 20
14.2
 11
19.3
 21
14.2
  0
MTEXT
  5
42D
100
AcDbEntity
  8
0
  6
ByLayer
 62
  256
370
   -1
100
AcDbMText
 10
19.86053580833333
 20
14.215
 30
0
 40
0.15
 41
0.5982143833333333
 71
    5
 72
    1
  1
Vin +
  7
romans
210
0
220
0
230
1
 50
0
 73
    2
 44
1
  0
LINE
  5
42E
100
AcDbEntity
  8
0
  6
ByLayer
 62
  256
370
   -1
100
AcDbLine
 10
19.5
 20
14.05
 11
20.2
 21
14.05
  0
LINE
  5
42F
100
AcDbEntity
  8
0
  6
ByLayer
 62
  256
370
   -1
100
AcDbLine
 10
19.5
 20
14.35
 11
20.2
 21
14.35
  0
LINE
  5
430
100
AcDbEntity
  8
0
  6
ByLayer
 62
  256
370
   -1
100
AcDbLine
 10
20.2
 20
14.35
 11
20.2
 21
14.05
  0
MTEXT
  5
431
100
AcDbEntity
  8
0
  6
ByLayer
 62
  256
370
   -1
100
AcDbMText
 10
18.55714299999999
 20
14.625
 30
0
 40
0.15
 41
1.1750001
 71
    5
 72
    1
  1
11.1 V LiPO
  7
romans
210
0
220
0
230
1
 50
0
 73
    2
 44
1
  0
LINE
  5
432
100
AcDbEntity
  8
0
  6
ByLayer
 62
  256
370
   -1
100
AcDbLine
 10
14.5
 20
14.2
 11
16.4
 21
14.2
  0
LINE
  5
433
100
AcDbEntity
  8
0
  6
ByLayer
 62
  256
370
   -1
100
AcDbLine
 10
15
 20
14.2
 11
15
 21
15.4
  0
LINE
  5
434
100
AcDbEntity
  8
0
  6
ByLayer
 62
  256
370
   -1
100
AcDbLine
 10
14.5
 20
13.8
 11
19.3
 21
13.8
  0
LINE
  5
435
100
AcDbEntity
  8
0
  6
ByLayer
 62
  256
370
   -1
100
AcDbLine
 10
19.3
 20
13.8
 11
19.5
 21
13.95
  0
LINE
  5
436
100
AcDbEntity
  8
0
  6
ByLayer
 62
  256
370
   -1
100
AcDbLine
 10
19.3
 20
13.8
 11
19.5
 21
13.65
  0
LINE
  5
437
100
AcDbEntity
  8
0
  6
ByLayer
 62
  256
370
   -1
100
AcDbLine
 10
19.5
 20
13.65
 11
20.2
 21
13.65
  0
LINE
  5
438
100
AcDbEntity
  8
0
  6
ByLayer
 62
  256
370
   -1
100
AcDbLine
 10
19.5
 20
13.95
 11
20.2
 21
13.95
  0
LINE
  5
439
100
AcDbEntity
  8
0
  6
ByLayer
 62
  256
370
   -1
100
AcDbLine
 10
20.2
 20
13.95
 11
20.2
 21
13.65
  0
MTEXT
  5
43A
100
AcDbEntity
  8
0
  6
ByLayer
 62
  256
370
   -1
100
AcDbMText
 10
19.86053580833333
 20
13.815
 30
0
 40
0.15
 41
0.5982143833333333
 71
    5
 72
    1
  1
Vin -
  7
romans
210
0
220
0
230
1
 50
0
 73
    2
 44
1
  0
LINE
  5
43B
100
AcDbEntity
  8
0
  6
ByLayer
 62
  256
370
   -1
100
AcDbLine
 10
15.3
 20
15.6
 11
15.3
 21
16.1
  0
LINE
  5
43C
100
AcDbEntity
  8
0
  6
ByLayer
 62
  256
370
   -1
100
AcDbLine
 10
15.6
 20
14.3
 11
15.6
 21
15.4
  0
LINE
  5
43D
100
AcDbEntity
  8
0
  6
ByLayer
 62
  256
370
   -1
100
AcDbLine
 10
15.6
 20
13.8
 11
15.6
 21
14.1
  0
LINE
  5
43E
100
AcDbEntity
  8
0
  6
ByLayer
 62
  256
370
   -1
100
AcDbLine
 10
14.9
 20
15.6
 11
15.7
 21
15.6
  0
CIRCLE
  5
43F
100
AcDbEntity
  8
0
  6
ByLayer
 62
  256
370
   -1
100
AcDbCircle
 10
15
 20
15.45
 40
0.04999999999999982
  0
CIRCLE
  5
440
100
AcDbEntity
  8
0
  6
ByLayer
 62
  256
370
   -1
100
AcDbCircle
 10
15.6
 20
15.45
 40
0.04999999999999982
  0
ARC
  5
441
100
AcDbEntity
  8
0
  6
ByLayer
 62
  256
370
   -1
100
AcDbCircle
 10
15.6
 20
14.2
 40
0.1000000000000005
100
AcDbArc
 50
270
 51
90
  0
MTEXT
  5
442
100
AcDbEntity
  8
0
  6
ByLayer
 62
  256
370
   -1
100
AcDbMText
 10
15.3
 20
16.3
 30
0
 40
0.15
 41
1.533928666666667
 71
    5
 72
    1
  1
Start (Green)
  7
romans
210
0
220
0
230
1
 50
0
 73
    2
 44
1
  0
LINE
  5
443
100
AcDbEntity
  8
0
  6
ByLayer
 62
  256
370
   -1
100
AcDbLine
 10
11.4
 20
14.2
 11
11.4
 21
9.600000000000001
  0
LINE
  5
444
100
AcDbEntity
  8
0
  6
ByLayer
 62
  256
370
   -1
100
AcDbLine
 10
11.4
 20
11.9
 11
12
 21
11.9
  0
LINE
  5
445
100
AcDbEntity
  8
0
  6
ByLayer
 62
  256
370
   -1
100
AcDbLine
 10
12.2
 20
12.2
 11
12.2
 21
11.7
  0
LINE
  5
446
100
AcDbEntity
  8
0
  6
ByLayer
 62
  256
370
   -1
100
AcDbLine
 10
11.9
 20
11.7
 11
12.5
 21
11.7
  0
CIRCLE
  5
447
100
AcDbEntity
  8
0
  6
ByLayer
 62
  256
370
   -1
100
AcDbCircle
 10
12.05
 20
11.9
 40
0.04999999999999982
  0
CIRCLE
  5
448
100
AcDbEntity
  8
0
  6
ByLayer
 62
  256
370
   -1
100
AcDbCircle
 10
12.35
 20
11.9
 40
0.05000000000000071
  0
LINE
  5
449
100
AcDbEntity
  8
0
  6
ByLayer
 62
  256
370
   -1
100
AcDbLine
 10
12.4
 20
11.9
 11
13.4
 21
11.9
  0
LINE
  5
44A
100
AcDbEntity
  8
0
  6
ByLayer
 62
  256
370
   -1
100
AcDbLine
 10
13.4
 20
11.9
 11
13.6
 21
12.05
  0
LINE
  5
44B
100
AcDbEntity
  8
0
  6
ByLayer
 62
  256
370
   -1
100
AcDbLine
 10
13.4
 20
11.9
 11
13.6
 21
11.75
  0
LINE
  5
44C
100
AcDbEntity
  8
0
  6
ByLayer
 62
  256
370
   -1
100
AcDbLine
 10
13.6
 20
11.75
 11
14.1
 21
11.75
  0
LINE
  5
44D
100
AcDbEntity
  8
0
  6
ByLayer
 62
  256
370
   -1
100
AcDbLine
 10
13.6
 20
12.05
 11
14.1
 21
12.05
  0
LINE
  5
44E
100
AcDbEntity
  8
0
  6
ByLayer
 62
  256
370
   -1
100
AcDbLine
 10
14.1
 20
12.05
 11
14.1
 21
11.75
  0
MTEXT
  5
44F
100
AcDbEntity
  8
0
  6
ByLayer
 62
  256
370
   -1
100
AcDbMText
 10
13.8
 20
11.9
 30
0
 40
0.15
 41
0.2642856666666666
 71
    5
 72
    1
  1
5V
  7
romans
210
0
220
0
230
1
 50
0
 73
    2
 44
1
  0
MTEXT
  5
450
100
AcDbEntity
  8
0
  6
ByLayer
 62
  256
370
   -1
100
AcDbMText
 10
12.2
 20
11.5
 30
0
 40
0.15
 41
0.4071428333333333
 71
    5
 72
    1
  1
EPO
  7
romans
210
0
220
0
230
1
 50
0
 73
    2
 44
1
  0
LWPOLYLINE
  5
451
100
AcDbEntity
  8
0
  6
ByLayer
 62
  256
370
   -1
100
AcDbPolyline
 90
    4
 70
    1
 43
0
 10
7.302856755555558
 20
11.8
 10
4.302856755555558
 20
11.8
 10
4.300000000000001
 20
8
 10
7.300000000000001
 20
8.000000000000002
  0
LINE
  5
452
100
AcDbEntity
  8
0
  6
ByLayer
 62
  256
370
   -1
100
AcDbLine
 10
7.502856755555562
 20
8.500000000000002
 11
8.502856755555563
 21
8.500000000000002
  0
LINE
  5
453
100
AcDbEntity
  8
0
  6
ByLayer
 62
  256
370
   -1
100
AcDbLine
 10
8.502856755555563
 20
8.500000000000002
 11
8.702856755555562
 21
8.650000000000002
  0
LINE
  5
454
100
AcDbEntity
  8
0
  6
ByLayer
 62
  256
370
   -1
100
AcDbLine
 10
8.502856755555563
 20
8.500000000000002
 11
8.702856755555562
 21
8.350000000000001
  0
LINE
  5
455
100
AcDbEntity
  8
0
  6
ByLayer
 62
  256
370
   -1
100
AcDbLine
 10
8.702856755555562
 20
8.350000000000001
 11
9.202856755555562
 21
8.350000000000001
  0
LINE
  5
456
100
AcDbEntity
  8
0
  6
ByLayer
 62
  256
370
   -1
100
AcDbLine
 10
8.702856755555562
 20
8.650000000000002
 11
9.202856755555562
 21
8.650000000000002
  0
LINE
  5
457
100
AcDbEntity
  8
0
  6
ByLayer
 62
  256
370
   -1
100
AcDbLine
 10
9.202856755555562
 20
8.650000000000002
 11
9.202856755555562
 21
8.350000000000001
  0
LINE
  5
458
100
AcDbEntity
  8
0
  6
ByLayer
 62
    0
370
   -1
100
AcDbLine
 10
7.300000000000001
 20
8.800000000000001
 11
7.500000000000001
 21
8.800000000000001
  0
LINE
  5
459
100
AcDbEntity
  8
0
  6
ByLayer
 62
    0
370
   -1
100
AcDbLine
 10
7.500000000000001
 20
8.800000000000001
 11
7.500000000000001
 21
8.200000000000001
  0
LINE
  5
45A
100
AcDbEntity
  8
0
  6
ByLayer
 62
    0
370
   -1
100
AcDbLine
 10
7.500000000000001
 20
8.200000000000001
 11
7.300000000000001
 21
8.200000000000001
  0
MTEXT
  5
45B
100
AcDbEntity
  8
0
  6
ByLayer
 62
  256
370
   -1
100
AcDbMText
 10
8.902856755555561
 20
8.500000000000002
 30
0
 40
0.15
 41
0.4
 71
    5
 72
    1
  1
USB
  7
romans
210
0
220
0
230
1
 50
0
 73
    2
 44
1
  0
LINE
  5
45C
100
AcDbEntity
  8
0
  6
ByLayer
 62
  256
370
   -1
100
AcDbLine
 10
7.304285133333339
 20
6.400000000000001
 11
8.304285133333339
 21
6.400000000000001
  0
LINE
  5
45D
100
AcDbEntity
  8
0
  6
ByLayer
 62
  256
370
   -1
100
AcDbLine
 10
6.704285133333338
 20
6.600000000000001
 11
6.704285133333338
 21
6.2
  0
LINE
  5
45E
100
AcDbEntity
  8
0
  6
ByLayer
 62
  256
370
   -1
100
AcDbLine
 10
6.704285133333338
 20
6.2
 11
6.704285133333338
 21
5.800000000000002
  0
LINE
  5
45F
100
AcDbEntity
  8
0
  6
ByLayer
 62
  256
370
   -1
100
AcDbLine
 10
7.304285133333339
 20
6.600000000000001
 11
6.70285675555556
 21
6.600000000000002
  0
MTEXT
  5
460
100
AcDbEntity
  8
0
  6
ByLayer
 62
  256
370
   -1
100
AcDbMText
 10
7.002856755555561
 20
6.400000000000001
 30
0
 40
0.15
 41
0.3500001666666667
 71
    5
 72
    1
  1
gnd
  7
romans
210
0
220
0
230
1
 50
0
 73
    2
 44
1
  0
MTEXT
  5
461
100
AcDbEntity
  8
0
  6
ByLayer
 62
  256
370
   -1
100
AcDbMText
 10
7.002856755555561
 20
6.000000000000001
 30
0
 40
0.15
 41
0.2642856666666666
 71
    5
 72
    1
  1
5V
  7
romans
210
0
220
0
230
1
 50
0
 73
    2
 44
1
  0
LINE
  5
462
100
AcDbEntity
  8
0
  6
ByLayer
 62
  256
370
   -1
100
AcDbLine
 10
6.704285133333338
 20
5.800000000000002
 11
6.704285133333338
 21
5.800000000000002
  0
LINE
  5
463
100
AcDbEntity
  8
0
  6
ByLayer
 62
  256
370
   -1
100
AcDbLine
 10
7.302856755555558
 20
5.800000000000003
 11
6.702856755555556
 21
5.800000000000003
  0
LINE
  5
464
100
AcDbEntity
  8
0
  6
ByLayer
 62
  256
370
   -1
100
AcDbLine
 10
7.302856755555561
 20
6.000000000000001
 11
8.302856755555561
 21
6.000000000000001
  0
LINE
  5
465
100
AcDbEntity
  8
0
  6
ByLayer
 62
  256
370
   -1
100
AcDbLine
 10
8.304285133333339
 20
6.400000000000001
 11
8.504285133333338
 21
6.550000000000002
  0
LINE
  5
466
100
AcDbEntity
  8
0
  6
ByLayer
 62
  256
370
   -1
100
AcDbLine
 10
8.304285133333339
 20
6.400000000000001
 11
8.504285133333338
 21
6.250000000000001
  0
LINE
  5
467
100
AcDbEntity
  8
0
  6
ByLayer
 62
  256
370
   -1
100
AcDbLine
 10
8.504285133333338
 20
6.250000000000001
 11
9.004285133333338
 21
6.250000000000001
  0
LINE
  5
468
100
AcDbEntity
  8
0
  6
ByLayer
 62
  256
370
   -1
100
AcDbLine
 10
8.504285133333338
 20
6.550000000000002
 11
9.004285133333338
 21
6.550000000000002
  0
LINE
  5
469
100
AcDbEntity
  8
0
  6
ByLayer
 62
  256
370
   -1
100
AcDbLine
 10
9.004285133333338
 20
6.550000000000002
 11
9.004285133333338
 21
6.250000000000001
  0
MTEXT
  5
46A
100
AcDbEntity
  8
0
  6
ByLayer
 62
  256
370
   -1
100
AcDbMText
 10
8.704285133333338
 20
6.400000000000001
 30
0
 40
0.15
 41
0.4071428333333333
 71
    5
 72
    1
  1
GND
  7
romans
210
0
220
0
230
1
 50
0
 73
    2
 44
1
  0
LINE
  5
46B
100
AcDbEntity
  8
0
  6
ByLayer
 62
  256
370
   -1
100
AcDbLine
 10
8.302856755555561
 20
6.000000000000001
 11
8.502856755555561
 21
6.150000000000001
  0
LINE
  5
46C
100
AcDbEntity
  8
0
  6
ByLayer
 62
  256
370
   -1
100
AcDbLine
 10
8.302856755555561
 20
6.000000000000001
 11
8.502856755555561
 21
5.850000000000001
  0
LINE
  5
46D
100
AcDbEntity
  8
0
  6
ByLayer
 62
  256
370
   -1
100
AcDbLine
 10
8.502856755555561
 20
5.850000000000001
 11
9.002856755555561
 21
5.850000000000001
  0
LINE
  5
46E
100
AcDbEntity
  8
0
  6
ByLayer
 62
  256
370
   -1
100
AcDbLine
 10
8.502856755555561
 20
6.150000000000001
 11
9.002856755555561
 21
6.150000000000001
  0
LINE
  5
46F
100
AcDbEntity
  8
0
  6
ByLayer
 62
  256
370
   -1
100
AcDbLine
 10
9.002856755555561
 20
6.150000000000001
 11
9.002856755555561
 21
5.850000000000001
  0
MTEXT
  5
470
100
AcDbEntity
  8
0
  6
ByLayer
 62
  256
370
   -1
100
AcDbMText
 10
8.70285675555556
 20
6.000000000000001
 30
0
 40
0.15
 41
0.2642856666666666
 71
    5
 72
    1
  1
5V
  7
romans
210
0
220
0
230
1
 50
0
 73
    2
 44
1
  0
LWPOLYLINE
  5
471
100
AcDbEntity
  8
0
  6
ByLayer
 62
  256
370
   -1
100
AcDbPolyline
 90
    4
 70
    1
 43
0
 10
7.302856755555558
 20
7.000000000000001
 10
4.302856755555558
 20
7.000000000000001
 10
4.300000000000001
 20
3.2
 10
7.300000000000001
 20
3.200000000000002
  0
MTEXT
  5
472
100
AcDbEntity
  8
0
  6
ByLayer
 62
  256
370
   -1
100
AcDbMText
 10
4.661904444444445
 20
7.133333333333335
 30
0
 40
0.2
 41
2.300000288888889
 71
    7
 72
    1
  1
Raspberry Pi 4
  7
romans
210
0
220
0
230
1
 50
0
 73
    2
 44
1
  0
LINE
  5
473
100
AcDbEntity
  8
0
  6
ByLayer
 62
  256
370
   -1
100
AcDbLine
 10
7.502856755555562
 20
5.100000000000002
 11
8.502856755555563
 21
5.100000000000002
  0
LINE
  5
474
100
AcDbEntity
  8
0
  6
ByLayer
 62
  256
370
   -1
100
AcDbLine
 10
8.502856755555563
 20
5.100000000000002
 11
8.702856755555562
 21
5.250000000000003
  0
LINE
  5
475
100
AcDbEntity
  8
0
  6
ByLayer
 62
  256
370
   -1
100
AcDbLine
 10
8.502856755555563
 20
5.100000000000002
 11
8.702856755555562
 21
4.950000000000002
  0
LINE
  5
476
100
AcDbEntity
  8
0
  6
ByLayer
 62
  256
370
   -1
100
AcDbLine
 10
8.702856755555562
 20
4.950000000000002
 11
9.202856755555562
 21
4.950000000000002
  0
LINE
  5
477
100
AcDbEntity
  8
0
  6
ByLayer
 62
  256
370
   -1
100
AcDbLine
 10
8.702856755555562
 20
5.250000000000003
 11
9.202856755555562
 21
5.250000000000003
  0
LINE
  5
478
100
AcDbEntity
  8
0
  6
ByLayer
 62
  256
370
   -1
100
AcDbLine
 10
9.202856755555562
 20
5.250000000000003
 11
9.202856755555562
 21
4.950000000000002
  0
LINE
  5
479
100
AcDbEntity
  8
0
  6
ByLayer
 62
    7
370
   -1
100
AcDbLine
 10
7.300000000000001
 20
5.400000000000001
 11
7.500000000000001
 21
5.400000000000001
  0
LINE
  5
47A
100
AcDbEntity
  8
0
  6
ByLayer
 62
    7
370
   -1
100
AcDbLine
 10
7.500000000000001
 20
5.400000000000001
 11
7.500000000000001
 21
4.800000000000002
  0
LINE
  5
47B
100
AcDbEntity
  8
0
  6
ByLayer
 62
    7
370
   -1
100
AcDbLine
 10
7.500000000000001
 20
4.800000000000002
 11
7.300000000000001
 21
4.800000000000002
  0
MTEXT
  5
47C
100
AcDbEntity
  8
0
  6
ByLayer
 62
  256
370
   -1
100
AcDbMText
 10
8.902856755555561
 20
5.100000000000002
 30
0
 40
0.15
 41
0.4
 71
    5
 72
    1
  1
USB
  7
romans
210
0
220
0
230
1
 50
0
 73
    2
 44
1
  0
ENDSEC
  0
SECTION
  2
OBJECTS
  0
DICTIONARY
  5
C
330
0
100
AcDbDictionary
281
    1
  3
ACAD_GROUP
350
D
  0
DICTIONARY
  5
D
330
C
100
AcDbDictionary
281
    1
  0
PLOTSETTINGS
  5
47D
100
AcDbPlotSettings
  6
1x1
 40
0
 41
0
 42
0
 43
0
  0
ENDSEC
  0
EOF
